<svg preserveAspectRatio="none" width="100%" height="100%" overflow="visible" style="display: block;" viewBox="0 0 12.2264 14.9737" fill="none" xmlns="http://www.w3.org/2000/svg">
<g id="Group 511">
<path id="Vector" d="M10.0859 12.8451C9.02457 13.8966 7.61534 14.4737 6.11321 14.4737C4.61108 14.4737 3.20185 13.8966 2.14048 12.8451C1.08306 11.7956 0.5 10.4042 0.5 8.92378C0.5 8.06401 0.693695 7.23982 1.07516 6.47294C1.44674 5.72386 2.00015 5.05383 2.67215 4.53797C3.10073 4.21025 3.48945 3.83347 3.83037 3.41532C4.32449 2.8125 4.71189 2.14049 4.98069 1.41907C5.09095 1.12149 5.17107 0.813594 5.21984 0.50001C5.69617 0.93879 6.09542 1.46849 6.42945 2.0891C7.08959 3.32638 7.39397 4.42728 7.33468 5.36414C7.32051 5.58478 7.35655 5.80577 7.44008 6.01049C7.52361 6.2152 7.65246 6.39832 7.81694 6.54607C7.95948 6.67483 8.12619 6.77399 8.30737 6.83778C8.48856 6.90156 8.68061 6.92871 8.87238 6.91765C9.26175 6.89789 9.61949 6.72593 9.88039 6.43539C10.1433 6.14089 10.3706 5.84047 10.5603 5.53411C10.837 5.8879 11.0683 6.27332 11.2521 6.68838C11.5663 7.39596 11.7264 8.149 11.7264 8.92378C11.7264 10.4042 11.1434 11.7976 10.0859 12.8451Z" stroke="var(--stroke-0, #97A2B0)" stroke-linejoin="round"/>
<path id="Vector_2" d="M6.96045 11.4415C6.53447 11.8635 5.96889 12.0952 5.36602 12.0952C4.76315 12.0952 4.19756 11.8635 3.77159 11.4415C3.3472 11.0203 3.11319 10.4619 3.11319 9.86771C3.11319 9.52265 3.19093 9.19187 3.34403 8.88409C3.49316 8.58344 3.71527 8.31453 3.98497 8.1075C4.15698 7.97597 4.31299 7.82475 4.44981 7.65693C4.64813 7.41499 4.8036 7.14528 4.91149 6.85575C4.95574 6.73632 4.98789 6.61274 5.00747 6.48689C5.19864 6.66299 5.35888 6.87558 5.49294 7.12466C5.75788 7.62123 5.88004 8.06307 5.85624 8.43907C5.85056 8.52763 5.86502 8.61632 5.89855 8.69848C5.93207 8.78064 5.98378 8.85414 6.0498 8.91344C6.10701 8.96511 6.17391 9.00491 6.24663 9.03051C6.31935 9.05611 6.39643 9.06701 6.47339 9.06257C6.62966 9.05463 6.77324 8.98562 6.87795 8.86901C6.98345 8.75082 7.07468 8.63025 7.15083 8.50729C7.26188 8.64928 7.35469 8.80397 7.42847 8.97055C7.55459 9.25453 7.61884 9.55676 7.61884 9.86771C7.61884 10.4619 7.38484 11.0211 6.96045 11.4415Z" stroke="var(--stroke-0, #97A2B0)" stroke-linejoin="round"/>
</g>
</svg>
