<svg preserveAspectRatio="none" width="100%" height="100%" overflow="visible" style="display: block;" viewBox="0 0 20.8333 19.1146" fill="none" xmlns="http://www.w3.org/2000/svg">
<path id="Vector" d="M10.5208 16.1979L10.4167 16.3021L10.3021 16.1979C5.35417 11.7083 2.08333 8.73958 2.08333 5.72917C2.08333 3.64583 3.64583 2.08333 5.72917 2.08333C7.33333 2.08333 8.89583 3.125 9.44792 4.54167H11.3854C11.9375 3.125 13.5 2.08333 15.1042 2.08333C17.1875 2.08333 18.75 3.64583 18.75 5.72917C18.75 8.73958 15.4792 11.7083 10.5208 16.1979ZM15.1042 0C13.2917 0 11.5521 0.84375 10.4167 2.16667C9.28125 0.84375 7.54167 0 5.72917 0C2.52083 0 0 2.51042 0 5.72917C0 9.65625 3.54167 12.875 8.90625 17.7396L10.4167 19.1146L11.9271 17.7396C17.2917 12.875 20.8333 9.65625 20.8333 5.72917C20.8333 2.51042 18.3125 0 15.1042 0Z" fill="var(--fill-0, #303F3D)"/>
</svg>
