<svg preserveAspectRatio="none" width="100%" height="100%" overflow="visible" style="display: block;" viewBox="0 0 20.0002 19.5417" fill="none" xmlns="http://www.w3.org/2000/svg">
<g id="Buy">
<g id="Stroke 1">
<path fill-rule="evenodd" clip-rule="evenodd" d="M0.750123 0.750123L2.83012 1.11012L3.79312 12.5831C3.87012 13.5201 4.65312 14.2391 5.59312 14.2361H16.5021C17.3991 14.2381 18.1601 13.5781 18.2871 12.6901L19.2361 6.13212C19.3421 5.39912 18.8331 4.71912 18.1011 4.61312C18.0371 4.60412 3.16412 4.59912 3.16412 4.59912" fill="var(--fill-0, white)"/>
<path d="M0.750123 0.750123L2.83012 1.11012L3.79312 12.5831C3.87012 13.5201 4.65312 14.2391 5.59312 14.2361H16.5021C17.3991 14.2381 18.1601 13.5781 18.2871 12.6901L19.2361 6.13212C19.3421 5.39912 18.8331 4.71912 18.1011 4.61312C18.0371 4.60412 3.16412 4.59912 3.16412 4.59912" stroke="var(--stroke-0, #97A2B0)" stroke-width="1.5" stroke-linecap="round" stroke-linejoin="round"/>
</g>
<g id="Stroke 3">
<path fill-rule="evenodd" clip-rule="evenodd" d="M12.1251 8.29502H14.8981Z" fill="var(--fill-0, white)"/>
<path d="M12.1251 8.29502H14.8981" stroke="var(--stroke-0, #97A2B0)" stroke-width="1.5" stroke-linecap="round" stroke-linejoin="round"/>
</g>
<path id="Stroke 5" fill-rule="evenodd" clip-rule="evenodd" d="M5.15442 17.7027C5.45542 17.7027 5.69842 17.9467 5.69842 18.2467C5.69842 18.5477 5.45542 18.7917 5.15442 18.7917C4.85342 18.7917 4.61042 18.5477 4.61042 18.2467C4.61042 17.9467 4.85342 17.7027 5.15442 17.7027Z" fill="var(--fill-0, white)" stroke="var(--stroke-0, #97A2B0)" stroke-width="1.5" stroke-linecap="round" stroke-linejoin="round"/>
<path id="Stroke 7" fill-rule="evenodd" clip-rule="evenodd" d="M16.4347 17.7027C16.7357 17.7027 16.9797 17.9467 16.9797 18.2467C16.9797 18.5477 16.7357 18.7917 16.4347 18.7917C16.1337 18.7917 15.8907 18.5477 15.8907 18.2467C15.8907 17.9467 16.1337 17.7027 16.4347 17.7027Z" fill="var(--fill-0, white)" stroke="var(--stroke-0, #97A2B0)" stroke-width="1.5" stroke-linecap="round" stroke-linejoin="round"/>
</g>
</svg>
