<svg preserveAspectRatio="none" width="100%" height="100%" overflow="visible" style="display: block;" viewBox="0 0 21.5346 20.6155" fill="none" xmlns="http://www.w3.org/2000/svg">
<g id="Group 540">
<path id="Rectangle 359" d="M4.57307 12.9839V15.2778C4.57307 17.4404 4.57307 18.5218 5.24492 19.1936C5.91677 19.8655 6.9981 19.8655 9.16076 19.8655H12.2192C14.3819 19.8655 15.4632 19.8655 16.1351 19.1936C16.8069 18.5218 16.8069 17.4404 16.8069 15.2778V12.9839" stroke="var(--stroke-0, black)" stroke-width="1.5" stroke-linecap="round"/>
<path id="Vector" d="M4.57307 12.9204C2.40332 12.5564 0.75 10.6694 0.75 8.39617C0.75 5.86246 2.80398 3.80849 5.33769 3.80849C5.65251 3.80849 5.95992 3.8402 6.25691 3.9006" stroke="var(--stroke-0, black)" stroke-width="1.5" stroke-linecap="round"/>
<path id="Vector_2" d="M16.9615 12.9204C19.1313 12.5564 20.7846 10.6694 20.7846 8.39617C20.7846 5.86246 18.7306 3.80849 16.1969 3.80849C15.8821 3.80849 15.5747 3.8402 15.2777 3.9006" stroke="var(--stroke-0, black)" stroke-width="1.5" stroke-linecap="round"/>
<path id="Ellipse 99" d="M6.24684 6.48461C6.15249 6.11803 6.10231 5.73372 6.10231 5.33769C6.10231 2.80398 8.15629 0.75 10.69 0.75C13.2237 0.75 15.2777 2.80398 15.2777 5.33769C15.2777 5.73372 15.2275 6.11803 15.1332 6.48461" stroke="var(--stroke-0, black)" stroke-width="1.5" stroke-linecap="round"/>
<path id="Vector 17" d="M4.57307 16.4247H16.8069" stroke="var(--stroke-0, black)" stroke-width="1.5"/>
<path id="Vector 18" d="M10.66 9.04058V11.4432" stroke="var(--stroke-0, black)" stroke-width="1.5" stroke-linecap="round"/>
<path id="Vector 19" d="M6.41115 9.242C6.21908 9.67099 6.57119 11.3066 6.98733 11.5747" stroke="var(--stroke-0, black)" stroke-width="1.5" stroke-linecap="round"/>
<path id="Vector 20" d="M15.2239 9.242C15.4159 9.67099 15.0638 11.3066 14.6477 11.5747" stroke="var(--stroke-0, black)" stroke-width="1.5" stroke-linecap="round"/>
</g>
</svg>
