<svg preserveAspectRatio="none" width="100%" height="100%" overflow="visible" style="display: block;" viewBox="0 0 26 18" fill="none" xmlns="http://www.w3.org/2000/svg">
<path id="Vector" d="M1.44445 18C1.03519 18 0.692375 17.856 0.416005 17.568C0.139635 17.28 0.000967943 16.924 4.98083e-06 16.5C-0.000957982 16.076 0.137709 15.72 0.416005 15.432C0.694301 15.144 1.03712 15 1.44445 15H24.5556C24.9648 15 25.3081 15.144 25.5854 15.432C25.8628 15.72 26.001 16.076 26 16.5C25.999 16.924 25.8604 17.2805 25.584 17.5695C25.3076 17.8585 24.9648 18.002 24.5556 18H1.44445ZM1.44445 10.5C1.03519 10.5 0.692375 10.356 0.416005 10.068C0.139635 9.77999 0.000967943 9.42399 4.98083e-06 8.99999C-0.000957982 8.57599 0.137709 8.21999 0.416005 7.93199C0.694301 7.64399 1.03712 7.49999 1.44445 7.49999H24.5556C24.9648 7.49999 25.3081 7.64399 25.5854 7.93199C25.8628 8.21999 26.001 8.57599 26 8.99999C25.999 9.42399 25.8604 9.78049 25.584 10.0695C25.3076 10.3585 24.9648 10.502 24.5556 10.5H1.44445ZM1.44445 3C1.03519 3 0.692375 2.856 0.416005 2.568C0.139635 2.28 0.000967943 1.924 4.98083e-06 1.5C-0.000957982 1.076 0.137709 0.719999 0.416005 0.432C0.694301 0.144 1.03712 0 1.44445 0H24.5556C24.9648 0 25.3081 0.144 25.5854 0.432C25.8628 0.719999 26.001 1.076 26 1.5C25.999 1.924 25.8604 2.2805 25.584 2.5695C25.3076 2.8585 24.9648 3.002 24.5556 3H1.44445Z" fill="var(--fill-0, #75BF5E)"/>
</svg>
