<svg preserveAspectRatio="none" width="100%" height="100%" overflow="visible" style="display: block;" viewBox="0 0 15.0413 15" fill="none" xmlns="http://www.w3.org/2000/svg">
<path id="Vector" d="M6.76859 7.8L9.99747 11.03L11.0604 9.98L8.27273 7.2V3.75H6.76859V7.8ZM7.52066 15C6.4778 15 5.50178 14.8033 4.59262 14.41C3.67677 14.0167 2.87791 13.4833 2.19603 12.81C1.52084 12.13 0.986042 11.3333 0.591625 10.42C0.197208 9.51333 0 8.54 0 7.5C0 6.46 0.197208 5.48667 0.591625 4.58C0.986042 3.66667 1.52084 2.87 2.19603 2.19C2.87791 1.51667 3.67677 0.983333 4.59262 0.59C5.50178 0.196667 6.4778 0 7.52066 0C8.56353 0 9.53954 0.196667 10.4487 0.59C11.3646 0.983333 12.1634 1.51667 12.8453 2.19C13.5205 2.87 14.0553 3.66667 14.4497 4.58C14.8441 5.48667 15.0413 6.46 15.0413 7.5C15.0413 8.54 14.8441 9.51333 14.4497 10.42C14.0553 11.3333 13.5205 12.13 12.8453 12.81C12.1634 13.4833 11.3646 14.0167 10.4487 14.41C9.53954 14.8033 8.56353 15 7.52066 15ZM7.52066 13.5C9.18523 13.5 10.6058 12.9167 11.7824 11.75C12.9522 10.5767 13.5372 9.16 13.5372 7.5C13.5372 5.84 12.9522 4.42333 11.7824 3.25C10.6058 2.08333 9.18523 1.5 7.52066 1.5C5.85609 1.5 4.43552 2.08333 3.25895 3.25C2.08907 4.42333 1.50413 5.84 1.50413 7.5C1.50413 9.16 2.08907 10.5767 3.25895 11.75C4.43552 12.9167 5.85609 13.5 7.52066 13.5Z" fill="var(--fill-0, #2F3F3D)"/>
</svg>
