<svg preserveAspectRatio="none" width="100%" height="100%" overflow="visible" style="display: block;" viewBox="0 0 13.5372 15" fill="none" xmlns="http://www.w3.org/2000/svg">
<path id="Vector" d="M12.0331 15H1.50413C1.08966 15 0.735354 14.8533 0.441212 14.56C0.147071 14.2667 0 13.9133 0 13.5V3C0 2.58667 0.147071 2.23333 0.441212 1.94C0.735354 1.64667 1.08966 1.5 1.50413 1.5H2.2562V0H3.76033V1.5H9.77686V0H11.281V1.5H12.0331C12.4475 1.5 12.8018 1.64667 13.096 1.94C13.3901 2.23333 13.5372 2.58667 13.5372 3V13.5C13.5372 13.9133 13.3901 14.2667 13.096 14.56C12.8018 14.8533 12.4475 15 12.0331 15ZM1.50413 13.5H12.0331V6H1.50413V13.5ZM1.50413 3V4.5H12.0331V3H1.50413ZM6.76859 9C6.55467 9 6.37752 8.92667 6.23714 8.78C6.09006 8.64 6.01653 8.46333 6.01653 8.25C6.01653 8.03667 6.09006 7.86 6.23714 7.72C6.37752 7.57333 6.55467 7.5 6.76859 7.5C6.98252 7.5 7.15967 7.57333 7.30005 7.72C7.44713 7.86 7.52066 8.03667 7.52066 8.25C7.52066 8.46333 7.44713 8.64 7.30005 8.78C7.15967 8.92667 6.98252 9 6.76859 9ZM3.76033 9C3.54641 9 3.36926 8.92667 3.22887 8.78C3.0818 8.64 3.00826 8.46333 3.00826 8.25C3.00826 8.03667 3.0818 7.86 3.22887 7.72C3.36926 7.57333 3.54641 7.5 3.76033 7.5C3.97425 7.5 4.15141 7.57333 4.29179 7.72C4.43886 7.86 4.5124 8.03667 4.5124 8.25C4.5124 8.46333 4.43886 8.64 4.29179 8.78C4.15141 8.92667 3.97425 9 3.76033 9ZM9.77686 9C9.56294 9 9.38579 8.92667 9.2454 8.78C9.09833 8.64 9.02479 8.46333 9.02479 8.25C9.02479 8.03667 9.09833 7.86 9.2454 7.72C9.38579 7.57333 9.56294 7.5 9.77686 7.5C9.99078 7.5 10.1679 7.57333 10.3083 7.72C10.4554 7.86 10.5289 8.03667 10.5289 8.25C10.5289 8.46333 10.4554 8.64 10.3083 8.78C10.1679 8.92667 9.99078 9 9.77686 9ZM6.76859 12C6.55467 12 6.37752 11.9267 6.23714 11.78C6.09006 11.64 6.01653 11.4633 6.01653 11.25C6.01653 11.0367 6.09006 10.86 6.23714 10.72C6.37752 10.5733 6.55467 10.5 6.76859 10.5C6.98252 10.5 7.15967 10.5733 7.30005 10.72C7.44713 10.86 7.52066 11.0367 7.52066 11.25C7.52066 11.4633 7.44713 11.64 7.30005 11.78C7.15967 11.9267 6.98252 12 6.76859 12ZM3.76033 12C3.54641 12 3.36926 11.9267 3.22887 11.78C3.0818 11.64 3.00826 11.4633 3.00826 11.25C3.00826 11.0367 3.0818 10.86 3.22887 10.72C3.36926 10.5733 3.54641 10.5 3.76033 10.5C3.97425 10.5 4.15141 10.5733 4.29179 10.72C4.43886 10.86 4.5124 11.0367 4.5124 11.25C4.5124 11.4633 4.43886 11.64 4.29179 11.78C4.15141 11.9267 3.97425 12 3.76033 12ZM9.77686 12C9.56294 12 9.38579 11.9267 9.2454 11.78C9.09833 11.64 9.02479 11.4633 9.02479 11.25C9.02479 11.0367 9.09833 10.86 9.2454 10.72C9.38579 10.5733 9.56294 10.5 9.77686 10.5C9.99078 10.5 10.1679 10.5733 10.3083 10.72C10.4554 10.86 10.5289 11.0367 10.5289 11.25C10.5289 11.4633 10.4554 11.64 10.3083 11.78C10.1679 11.9267 9.99078 12 9.77686 12Z" fill="var(--fill-0, #2F3F3D)"/>
</svg>
