<svg preserveAspectRatio="none" width="100%" height="100%" overflow="visible" style="display: block;" viewBox="0 0 16.5455 12" fill="none" xmlns="http://www.w3.org/2000/svg">
<path id="Vector" d="M12.0331 12H0V9.9C0 9.47333 0.110303 9.08333 0.330909 8.73C0.551515 8.37 0.842314 8.09667 1.20331 7.91C1.97877 7.52333 2.7676 7.23333 3.56981 7.04C4.37201 6.84667 5.18758 6.75 6.01653 6.75C6.84547 6.75 7.66105 6.84667 8.46325 7.04C9.26545 7.23333 10.0543 7.52333 10.8298 7.91C11.1907 8.09667 11.4815 8.37 11.7021 8.73C11.9228 9.08333 12.0331 9.47333 12.0331 9.9V12ZM16.5455 12H13.5372V9.75C13.5372 9.19667 13.3834 8.67 13.0759 8.17C12.7684 7.66333 12.3339 7.22667 11.7723 6.86C12.4074 6.93333 13.0091 7.06333 13.5773 7.25C14.1388 7.43 14.6636 7.65 15.1516 7.91C15.6062 8.16333 15.9505 8.44333 16.1845 8.75C16.4251 9.05667 16.5455 9.39 16.5455 9.75V12ZM6.01653 6C5.18758 6 4.47897 5.70667 3.89069 5.12C3.30241 4.53333 3.00826 3.82667 3.00826 3C3.00826 2.17333 3.30241 1.46667 3.89069 0.88C4.47897 0.293333 5.18758 0 6.01653 0C6.84547 0 7.55409 0.293333 8.14237 0.88C8.73065 1.46667 9.02479 2.17333 9.02479 3C9.02479 3.82667 8.73065 4.53333 8.14237 5.12C7.55409 5.70667 6.84547 6 6.01653 6ZM13.5372 3C13.5372 3.82667 13.243 4.53333 12.6548 5.12C12.0665 5.70667 11.3579 6 10.5289 6C10.3885 6 10.2114 5.98333 9.99747 5.95C9.79023 5.92333 9.61642 5.89 9.47603 5.85C9.81697 5.45 10.0777 5.00667 10.2582 4.52C10.4387 4.03333 10.5289 3.52667 10.5289 3C10.5289 2.47333 10.4387 1.96667 10.2582 1.48C10.0777 0.993333 9.81697 0.55 9.47603 0.15C9.64984 0.0899996 9.82365 0.0499997 9.99747 0.0299997C10.178 0.00999973 10.3551 0 10.5289 0C11.3579 0 12.0665 0.293333 12.6548 0.88C13.243 1.46667 13.5372 2.17333 13.5372 3ZM1.50413 9.9V10.5H10.5289V9.9C10.5289 9.76 10.4955 9.63667 10.4286 9.53C10.3551 9.41667 10.2649 9.32667 10.1579 9.26C9.47603 8.92667 8.79082 8.67333 8.10226 8.5C7.4137 8.33333 6.71846 8.25 6.01653 8.25C5.3146 8.25 4.61936 8.33333 3.9308 8.5C3.24224 8.67333 2.56037 8.92667 1.88518 9.26C1.77153 9.32667 1.67794 9.41667 1.60441 9.53C1.53756 9.63667 1.50413 9.76 1.50413 9.9ZM6.01653 4.5C6.431 4.5 6.78531 4.35333 7.07945 4.06C7.37359 3.76667 7.52066 3.41333 7.52066 3C7.52066 2.58667 7.37359 2.23333 7.07945 1.94C6.78531 1.64667 6.431 1.5 6.01653 1.5C5.60206 1.5 5.24775 1.64667 4.95361 1.94C4.65947 2.23333 4.5124 2.58667 4.5124 3C4.5124 3.41333 4.65947 3.76667 4.95361 4.06C5.24775 4.35333 5.60206 4.5 6.01653 4.5Z" fill="var(--fill-0, #2F3F3D)"/>
</svg>
