<svg preserveAspectRatio="none" width="100%" height="100%" overflow="visible" style="display: block;" viewBox="0 0 733.375 821.137" fill="none" xmlns="http://www.w3.org/2000/svg">
<path id="Vector" d="M150.453 211.755C145.135 205.029 139.734 198.366 134.543 191.542C131.947 188.12 129.655 184.473 128.218 180.367C125.593 172.81 127.866 168.782 135.774 167.013C137.27 166.662 138.782 166.392 140.306 166.201C144.524 165.712 148.234 166.563 150.839 170.312C151.71 171.568 152.795 172.673 153.714 173.905C154.965 175.591 156.475 176.071 158.519 175.479C159.999 175.074 161.521 174.842 163.055 174.785C168.432 174.531 171.78 177.317 172.401 182.719C172.679 185.138 172.45 187.607 172.43 190.08C172.381 196.543 172.582 202.98 174.297 209.267C174.959 211.946 175.775 214.585 176.741 217.171C180.593 226.732 181.991 227.876 192.192 231.01C214.678 237.912 237.827 240.625 261.251 240.39C274.801 240.253 288.013 236.924 301.035 233.366C331.091 225.149 358.152 211.105 381.497 190.349C406.788 167.863 430.891 144.253 450.995 116.864C453.351 113.647 455.815 110.485 457.907 107.087C466.779 92.7061 476.716 79.0581 486.478 65.2879C487.895 63.2837 489.279 61.2502 490.559 59.1531C491.84 57.0561 491.141 55.6336 488.785 55.4136C484.469 55.0128 480.26 55.0079 476.164 56.929C469.78 59.9157 463.294 62.6776 456.837 65.5127C442.661 71.7355 431.521 81.5169 422.684 94.1091C416.658 102.637 411.578 111.794 407.531 121.42C404.749 128.068 400.355 133.46 395.927 138.988C389.802 146.643 374.312 150.754 362.766 146.467C355.781 143.872 352.579 139.218 353.381 131.465C353.87 126.816 353.166 123.121 349.959 119.733C348.727 118.428 348.004 116.634 347.129 115.011C341.909 105.235 342.104 95.4925 347.985 86.1705C352.961 78.2809 359.476 71.8919 367.854 67.4387C389.68 55.8438 412.966 50.061 437.622 49.6161C442.534 49.5233 447.461 49.3815 452.359 49.6748C460.249 50.1636 467.542 48.1301 474.683 45.1092C494.059 36.9164 511.915 26.3529 527.127 11.6197C530.431 8.41787 534.063 5.56313 537.465 2.45909C538.352 1.61687 539.402 0.96545 540.55 0.545064C541.699 0.124678 542.921 -0.0557403 544.142 0.0149601C548.737 0.146943 553.341 0.0491815 557.829 0.0491815C559.569 3.21677 555.385 4.16021 555.874 6.70699C556.269 6.9514 556.788 7.52822 557.154 7.44512C561.47 6.46747 564.921 8.35433 568.309 10.6029C570.88 12.3089 573.539 13.7852 576.809 13.6288C583.315 13.3159 586.703 10.8131 589.068 4.47305C590.667 0.190935 590.667 0.0736169 594.606 0.0736169C603.512 0.0149577 612.419 0.0736169 621.325 0.0736169C623.216 0.0736169 624.956 0.313153 626.032 2.23913C631.409 11.869 635.109 21.7922 631.409 32.9863C627.821 43.8627 620.107 51.0973 610.043 55.8584C604.666 58.3954 599.231 57.5742 594.357 54.0938C592.891 53.033 591.336 51.855 590.29 50.3934C588.335 47.6755 585.974 47.6168 582.983 48.0714C569.438 50.1343 559.745 44.8256 554.114 32.3508C551.142 25.7663 550.101 18.8983 552.315 11.7223C549.548 11.0136 548.923 13.1497 547.916 14.2642C537.851 25.4486 527.782 36.628 517.918 47.9932C508.889 58.4561 500.579 69.5174 493.043 81.1014C486.815 90.5993 480.783 100.229 474.351 109.585C472.136 112.802 472.063 115.52 473.466 118.951C483.203 142.728 503.43 150.544 526.105 148.941C529.796 148.682 533.183 147.078 536.575 145.592C538.785 144.615 540.579 142.703 543.512 142.659C546.479 147.733 546.933 153.413 546.806 159.191C546.655 166.279 543.267 171.412 537.26 174.936C536.219 175.587 535.113 176.127 533.96 176.55C530.773 177.596 526.98 177.777 524.502 179.698C522.024 181.619 521.056 185.368 519.062 188.047C513.162 195.971 504.476 197.281 496.464 191.498C494.509 190.075 492.417 188.472 491.161 186.463C488.589 182.362 485.681 181.286 480.656 181.839C473.324 182.645 466.28 175.406 465.503 167.384C464.99 162.178 465.137 156.938 467.849 152.147C470.636 147.225 471.418 141.726 472.21 136.261C472.791 132.237 472.127 128.298 470.777 124.485C470.069 122.476 468.035 121.923 466.461 123.507C463.801 126.048 461.298 128.75 458.968 131.597C453.029 139.159 448.737 147.332 447.676 157.261C445.526 177.415 443.033 197.54 443.634 217.85C444.089 233.385 447.72 248.158 455.092 261.991C462.37 275.635 472.865 286.13 485.886 294.254C487.705 295.388 489.64 296.346 491.552 297.324C504.666 304.021 517.111 301.929 528.984 294.205C535.339 290.084 538.599 284.037 539.039 276.49C539.176 274.149 538.316 272.33 536.131 271.211C535.085 270.673 533.232 271.181 533.198 272.188C533.198 273.41 533.486 274.632 533.413 275.855C533.232 278.788 531.746 281.075 529.605 282.957C523.651 288.197 514.266 288.061 508.586 282.527C498.444 272.614 500.961 257.46 510.102 249.839C516.319 244.658 523.813 244.917 531.057 247.728C544.025 252.753 554.759 269.954 553.816 283.778C553.473 288.833 551.523 293.267 548.493 297.275C542.314 305.448 534.078 310.439 524.253 312.971C516.73 314.926 509.1 315.068 501.381 314.57C499.558 314.447 497.725 314.394 495.902 314.296C495.051 314.252 494.753 314.618 494.973 315.464C495.047 315.738 494.944 316.183 495.1 316.29C496.352 317.146 497.544 318.138 498.937 318.734C503.175 320.519 507.413 322.357 511.778 323.769C519.223 326.179 525.465 330.564 531.668 335.11C540.897 341.895 543.82 350.977 540.955 361.907C540.022 365.447 538.545 368.854 537.191 372.271C535.109 377.535 535.065 377.521 539.826 382.306C537.245 385.625 534.039 385.293 530.749 383.773C526.23 381.689 522.7 377.928 520.904 373.287C519.947 370.704 519.277 368.024 518.905 365.295C518.314 361.663 517.639 357.963 517.683 354.321C517.766 347.443 514.364 342.643 509.197 338.854C504.251 335.232 499.236 331.669 493.996 328.501C490.052 326.149 486.436 323.285 483.242 319.986C459.11 294.889 444.211 264.973 438.526 230.843C434.997 209.628 434.229 188.086 437.495 166.607C437.886 164.026 438.624 161.357 437.793 158.673C434.958 158.644 434.044 160.893 432.655 162.335C417.102 178.534 400.536 193.619 382.597 207.131C377.464 211.002 372.063 214.541 366.613 217.963C350.482 228.121 335.139 239.325 321.203 252.415C293.189 278.734 276.477 311.221 268.299 348.445C264.453 365.965 263.783 383.734 264.223 401.576C264.472 411.699 264.741 421.838 266.295 431.883C269.717 454.041 278.344 473.643 294.705 489.393C306.197 500.455 319.688 508.599 334.958 512.661C351.03 516.939 367.63 518.566 384.122 514.128C404.539 508.648 419.751 496.882 428.329 477.119C439.45 451.509 439.636 425.963 428.466 400.334C426.829 396.58 424.61 393.432 421.134 391.159C417.537 388.812 414.12 386.188 410.493 383.895C408.17 382.383 405.508 381.471 402.745 381.241C393.106 380.507 388.15 383.279 385.148 392.352C383.223 398.144 382.216 404.245 380.818 410.213C380.192 412.902 379.84 415.678 378.994 418.279C373.71 434.053 352.956 441.62 338.658 433.061C329.835 427.782 325.304 415.576 328.638 405.745C329.374 403.731 330.295 401.788 331.39 399.943C332.001 398.853 331.478 398.105 330.862 397.562C329.723 396.555 328.291 395.886 327.166 394.864C324.898 392.816 322.435 390.866 320.631 388.441C314.355 380.033 314.922 371.171 321.931 363.33C324.602 360.354 327.664 357.755 331.033 355.602C332.876 354.419 333.311 352.874 332.744 350.894C331.38 346.187 329.997 341.484 328.667 336.767C326.81 330.173 326.619 323.427 327.166 316.667C328.007 306.255 332.709 297.847 341.278 291.932C352.203 284.394 364.614 281.764 377.704 281.266C377.982 284.688 375.822 286.306 374.688 288.388C372.488 292.45 370.582 296.566 369.424 301.098C367.297 309.364 368.891 316.901 373.217 324.028C376.277 329.073 380.304 333.262 384.836 337.002C392.676 343.43 401.171 349.015 410.18 353.666C429.341 363.667 442.226 379.007 449.773 399.083C451.475 403.634 453.239 408.165 454.93 412.599C458.029 412.325 459.706 410.326 461.739 409.04C472.147 402.434 484.024 398.5 496.317 397.587C512.424 396.287 528.197 398.369 543.79 402.065C554.862 404.69 564.32 400.921 573.251 395.221C577.572 392.444 579.566 387.889 579.918 382.648C580.304 376.988 578.965 371.684 576.931 366.517C575.607 363.149 574.214 359.81 572.649 355.968C582.87 356.364 592.118 358.1 600.79 362.352C616.349 369.988 621.809 382.614 617.698 399.811C616.269 405.478 613.997 410.897 610.957 415.889C609.579 418.215 609.491 420.254 610.498 422.801C612.122 426.788 613.1 431.009 613.396 435.305C614.071 446.709 609.437 453.166 598.272 456.085C593.468 457.341 588.496 457.458 583.608 457.136C580.108 456.906 577.919 458.064 576.071 460.968C573.558 464.848 570.367 468.244 566.652 470.994C559.632 476.288 552.056 477.021 544.167 473.174C539.415 470.862 535.368 467.699 532.362 463.197C528.481 457.278 523.681 452.016 518.143 447.608C506.67 438.59 493.966 436.248 480.016 440.364C474.605 441.953 470.005 445.008 465.596 448.342C457.697 454.31 451.123 461.599 445.237 469.523C439.89 476.645 435.123 484.186 430.984 492.072C426.096 501.511 419.492 509.43 411.431 516.244C408.381 518.821 405.356 521.421 402.384 524.066C398.703 527.362 396.044 531.644 394.719 536.404C391.42 547.686 391.615 558.86 395.79 569.83C399.549 579.694 406.221 587.022 415.831 591.67C418.48 592.951 421.061 593.45 423.818 592.584C427.318 591.48 430.954 590.585 434.2 588.948C439.655 586.2 441.302 581.879 439.86 575.842C439.09 572.859 437.725 570.062 435.847 567.62C433.281 564.149 433.809 562.487 438.946 562.292C440.178 562.243 441.39 562.126 442.632 562.165C456.71 562.605 466.002 568.334 468.656 584.162C468.876 585.057 468.994 585.973 469.008 586.895C468.763 590.771 470.171 593.738 472.713 596.798C482.401 608.466 477.973 619.881 469.374 626.714C459.598 634.506 448.547 638.255 435.852 634.858C427.235 632.556 418.949 629.369 410.732 625.961C409.11 625.287 407.614 623.85 405.453 625.253C421.804 662.364 449.48 685.696 489.474 693.366C502.134 695.81 515.18 694.685 528.051 693.473C535.705 692.75 543.262 691.655 550.536 688.947C574.443 680.03 586.644 657.413 584.967 632.732C584.41 624.519 580.979 617.397 574.79 611.683C571.422 608.574 567.727 607.122 563.108 607.489C557.56 607.934 552.232 609.351 546.87 610.661C543.893 611.39 540.955 612.279 537.998 613.105C534.327 614.083 531.379 612.959 529.004 610.07C526.848 607.445 526.667 605.181 528.823 602.6C530.778 600.269 532.978 598.142 535.07 595.923C532.826 592.692 529.429 591.944 526.315 590.79C514.584 586.435 513.543 578.169 515.528 567.664C516.06 564.824 518.133 562.869 520.87 561.759C523.424 560.664 526.203 560.196 528.975 560.395C531.722 560.64 534.449 561.075 537.172 561.52C540.178 562.008 543.267 563.333 546.141 562.957C549.333 562.531 550.052 558.557 552.139 556.397C559.197 549.03 570.675 546.62 580.094 550.628C591.287 555.419 597.515 563.783 598.473 575.974C598.7 577.803 598.797 579.646 598.761 581.488C598.247 590.676 598.763 599.892 600.301 608.965C602.203 620.839 602.022 632.829 601.621 644.811C601.497 647.253 601.497 649.7 601.621 652.143C601.719 653.644 602.946 654.167 604.231 653.551C611.827 649.904 618.089 644.522 623.593 638.236C629.277 631.739 634.429 624.759 637.973 616.928C640.906 610.407 645.618 608.735 652.022 609.234C656.362 609.576 660.556 610.407 664.349 612.582C666.74 613.956 668.871 613.858 671.261 612.582C675.853 610.092 680.754 608.22 685.837 607.015C696.835 604.399 705.878 607.924 712.379 617.016C715.757 621.718 716.397 626.509 714.095 631.73C713.117 633.944 711.949 636.08 710.854 638.27C713.098 641.203 716.5 642.137 719.276 643.97C724.795 647.607 729.312 652.084 731.932 658.214C735.387 666.299 732.621 669.912 723.817 668.7C718.328 667.947 713.156 665.933 707.975 664.007C696.474 659.734 684.83 655.912 672.859 653.135C663.592 650.941 654.095 649.868 644.572 649.938C634.395 650.022 624.411 652.726 615.581 657.789C609.97 660.952 604.378 664.144 598.923 667.565C596.615 669.032 594.582 670.958 592.607 672.869C578.764 686.297 576.931 687.656 561.695 695.287C567.903 697.565 568.538 697.677 573.588 697.208C580.03 696.611 586.297 695.106 592.49 693.336C601.015 690.892 609.466 691.098 617.737 694.558C621.16 695.942 624.3 697.943 627 700.463C628.953 702.316 630.513 704.542 631.587 707.011C632.661 709.479 633.226 712.138 633.25 714.83C633.274 717.521 632.755 720.19 631.725 722.677C630.695 725.164 629.174 727.418 627.254 729.304C624.14 732.379 620.411 734.476 616.451 736.192C611.671 738.269 606.851 740.254 602.105 742.4C597.867 744.311 594.054 746.887 591.156 750.593C589.753 752.377 589.2 754.401 590.486 756.571C591.771 758.741 593.023 760.765 594.191 762.926C594.875 764.138 595.234 765.506 595.234 766.897C595.234 768.289 594.875 769.657 594.191 770.869C589.547 779.868 575.582 782.601 567.869 775.982C565.425 773.875 564.222 771.006 563.606 768C562.345 761.884 562.438 755.828 564.96 749.913C567.028 745.088 569.726 740.625 572.596 736.285C574.116 733.977 575.748 731.743 577.161 729.368C580.382 723.947 579.913 717.812 575.318 713.383C565.879 704.281 554.603 699.3 541.302 699.559C538.846 699.606 536.397 699.821 533.97 700.204C518.412 702.678 502.755 702.35 487.094 702.033C485.867 702.033 484.65 702.033 483.491 702.033C481.956 703.69 483.183 704.931 484.058 706.051C488.999 712.352 495.19 717.563 502.242 721.356C510.351 725.755 518.235 730.497 525.216 736.612C529.615 740.474 533.706 744.624 536.272 750.016C540.462 758.815 539.205 766.768 532.362 773.616C530.416 775.577 528.255 777.312 525.92 778.788C522.769 780.687 519.524 782.425 516.197 783.994C513.753 785.201 511.158 786.179 508.547 787.294C508.308 790.398 510.317 792.49 511.441 794.856C513.675 799.544 513 803.591 509.804 807.653C501.557 818.148 486.238 825.158 470.186 818.583C466.461 817.053 462.854 815.328 459.921 812.6C456.744 809.667 453.483 808.597 449.109 809.516C441.561 811.104 433.829 810.982 426.164 810.528C422.183 810.299 418.237 809.657 414.389 808.611C401.826 805.097 397.046 796.821 399.51 783.403C401.998 782.484 404.305 783.637 406.695 784.009C419.218 785.964 431.707 786.643 444.138 783.217C459.29 779.042 470.078 769.813 476.711 755.613C480.451 747.487 482.657 738.74 483.217 729.813C483.931 719.899 480.172 711.169 474.346 703.318C473.382 702.12 472.167 701.147 470.787 700.468C458.005 693.767 445.858 686.038 433.965 677.889C433.755 677.748 433.364 677.889 432.47 677.889C431.834 681.59 431.38 685.442 430.485 689.186C427.455 701.832 420.074 710.509 407.208 713.96C405.723 714.328 404.216 714.606 402.697 714.791C396.386 715.676 391.068 714.302 388.032 708.084C386.972 705.919 385.544 704.829 382.934 705.391C376.247 706.857 370.162 705.782 365.039 700.801C359.467 695.38 356.358 688.986 356.729 681.101C356.803 679.581 356.998 678.065 357.13 676.623C359.882 675.734 360.39 678.002 361.383 679.327C364.052 682.895 367.146 685.784 371.872 685.955C377.635 686.16 382.768 684.176 387.148 680.578C389.68 678.5 389.993 675.304 390.154 672.16C390.584 663.787 389.088 655.643 387.275 647.543C384.523 635.264 381.091 623.17 377.288 611.174C375.916 607.105 375.24 602.833 375.289 598.538C375.421 593.323 375.206 588.097 375.055 582.896C374.601 566.901 377.111 550.961 382.46 535.881C382.949 534.453 383.306 532.948 383.682 531.652C382.167 529.624 380.26 530.401 378.574 530.469C370.909 530.763 363.26 531.579 355.566 531.056C339.015 529.932 323.637 525.454 310.107 515.477C303.684 510.745 297.085 506.263 291.044 500.998C273.988 486.102 263.428 467.536 259.364 445.301C259.149 444.099 258.958 442.857 258.817 441.664C258.729 440.887 258.391 440.462 257.673 440.564C257.111 440.648 256.265 440.692 256.055 441.053C254.193 444.211 252.394 447.408 250.678 450.664C249.759 452.409 250.395 454.247 250.678 456.041C251.485 461.506 252.364 466.961 252.931 472.451C253.498 477.94 253.42 483.483 251.954 488.909C249.28 498.686 240.462 503.77 230.627 501.242C226.37 500.147 222.66 497.958 219.35 495.22C216.936 493.221 214.506 492.815 211.676 493.705C207.28 495.092 202.729 495.927 198.127 496.188C186.395 496.872 181.585 491.3 184.122 479.763C185.1 475.305 187.7 470.965 187.705 466.565C187.705 462.503 184.89 458.519 183.932 454.345C180.578 439.792 186.625 430.392 201.226 427.308C209.046 425.655 216.936 424.771 224.972 426.56C228.208 427.278 231.707 427.171 235.051 426.946C239.075 426.692 242.882 425.031 245.805 422.253C248.889 419.369 250.258 415.937 250.175 411.597C249.979 400.842 250.663 390.127 251.421 379.398C252.135 369.264 253.327 359.195 255.713 349.359C259.105 335.359 262.805 321.423 267.581 307.809C273.745 290.211 282.807 274.344 295.164 260.364C296.562 258.78 297.784 257.04 299.04 255.343C299.182 255.153 299.04 254.742 298.972 253.945C292.324 254.811 285.711 255.788 279.068 256.512C259.77 258.623 240.545 259.098 221.389 254.742C211.204 252.378 200.758 251.327 190.306 251.614C185.706 251.76 181.121 251.99 176.619 253.202C172.117 254.415 167.962 256.277 164.766 259.86C163.957 260.784 163.077 261.644 162.136 262.431C153.44 269.622 147.032 278.25 143.644 289.234C141.132 297.378 135.911 303.791 128.452 308.239C124.213 310.756 119.451 312.261 114.536 312.639C107.272 313.245 101.231 310.967 97.1588 304.583C96.3327 303.288 95.5458 301.973 94.7637 300.672C94.3355 299.859 93.6823 299.187 92.8822 298.735C92.0822 298.284 91.1692 298.072 90.2521 298.125C86.8793 298.125 83.4771 298.218 80.1386 297.822C71.8289 296.845 65.9633 292.504 62.8594 284.561C61.3099 280.582 61.2707 276.739 63.5436 273.088C65.3229 270.233 66.9653 267.124 69.3263 264.836C72.831 261.464 73.6473 257.69 72.9972 253.173C72.7145 251.041 72.6098 248.889 72.6843 246.74C72.8651 239.202 76.7561 234.153 84.0149 231.797C89.3918 230.052 94.8713 230.076 100.414 230.931C111.398 232.623 121.829 236.172 132.108 240.268C135.222 241.51 138.258 242.996 141.743 243.172C148.029 243.494 153.816 242.277 158.944 238.352C157.844 235.047 154.593 234.998 152.277 233.869C135.823 225.862 121.13 215.485 108.465 202.242C99.3724 192.652 91.5179 181.959 85.0853 170.415C83.0282 166.649 80.6917 163.043 78.0954 159.626C74.8204 155.462 70.3185 153.761 64.9856 154.904C57.7073 156.493 53.8067 165.008 57.2773 171.647C58.6606 174.296 61.0312 175.733 63.7929 176.334C65.8655 176.779 68.0603 176.638 70.1963 176.823C74.0677 177.175 76.4286 179.297 77.0396 182.968C77.331 184.64 77.2597 186.355 76.8304 187.997C76.4012 189.639 75.6239 191.17 74.5516 192.485C69.1404 199.675 61.2502 204.597 52.4135 206.295C46.3181 207.546 40.8485 206.104 36.1315 201.988C35.2077 201.182 34.1322 200.458 33.4625 199.466C30.7497 195.462 26.9469 194.235 22.3277 194.529C20.8319 194.626 19.297 194.118 17.7817 193.903C11.1095 192.925 6.32903 189.279 3.97787 183.1C-1.50653 168.665 -1.81446 154.376 6.18728 140.572C12.3365 129.974 21.8877 125.418 33.7608 125.257C41.8212 125.145 49.5638 127.178 57.2234 129.495C60.1563 130.38 62.9865 131.45 65.6602 132.369C68.1971 130.864 66.9311 128.948 66.6672 127.339C64.2232 112.455 62.9668 97.5211 63.5192 82.4017C63.7906 73.8093 64.9503 65.268 66.98 56.9143C71.4324 39.3087 72.5187 21.0204 70.1817 3.01147C70.1849 2.40794 70.2704 1.80767 70.4359 1.22725C71.9023 -0.322325 73.8574 0.0736169 75.6367 0.0736169C84.5427 0.0736169 93.4488 0.0996894 102.355 0.151831C102.65 0.157203 102.938 0.241967 103.189 0.397199C103.44 0.55243 103.644 0.772404 103.781 1.03399C103.918 1.29558 103.981 1.58913 103.965 1.88377C103.949 2.17841 103.854 2.46327 103.689 2.7084C102.58 4.54149 101.372 6.31592 100.219 8.12458C93.0675 19.2894 87.6809 31.3096 83.0422 43.6916C80.7546 49.7921 80.2168 56.2691 79.4249 62.6385C77.328 79.4541 76.981 96.3039 79.5081 113.129C83.7118 140.992 95.8195 165.004 114.419 185.964C121.374 193.786 128.77 201.118 137.319 207.223C140.565 209.536 143.82 211.838 147.584 213.299C150.835 215.401 150.835 215.401 153.885 215.436C153.615 214.609 153.168 213.852 152.575 213.216C151.983 212.581 151.259 212.082 150.453 211.755Z" fill="var(--fill-0, #D6C7A9)" fill-opacity="0.35"/>
</svg>
