<svg preserveAspectRatio="none" width="100%" height="100%" overflow="visible" style="display: block;" viewBox="0 0 853.96 956.152" fill="none" xmlns="http://www.w3.org/2000/svg">
<path id="Vector" d="M175.192 246.573C168.999 238.74 162.709 230.982 156.665 223.036C153.642 219.052 150.973 214.805 149.3 210.024C146.243 201.224 148.89 196.534 158.099 194.474C159.84 194.066 161.601 193.75 163.375 193.529C168.287 192.959 172.608 193.95 175.641 198.316C176.654 199.779 177.918 201.065 178.988 202.499C180.445 204.463 182.204 205.021 184.583 204.332C186.307 203.861 188.079 203.59 189.865 203.524C196.126 203.228 200.025 206.472 200.748 212.762C201.072 215.58 200.805 218.454 200.782 221.334C200.725 228.859 200.958 236.355 202.956 243.675C203.727 246.795 204.677 249.869 205.802 252.879C210.287 264.013 211.915 265.345 223.794 268.993C249.976 277.03 276.932 280.19 304.207 279.916C319.984 279.757 335.369 275.881 350.532 271.737C385.531 262.169 417.041 245.816 444.225 221.647C473.674 195.464 501.74 167.972 525.15 136.079C527.894 132.334 530.762 128.651 533.198 124.695C543.529 107.949 555.1 92.0572 566.467 76.0228C568.117 73.6891 569.728 71.3212 571.219 68.8794C572.711 66.4375 571.897 64.7811 569.153 64.525C564.127 64.0582 559.227 64.0525 554.457 66.2895C547.024 69.7673 539.471 72.9833 531.952 76.2847C515.446 83.5306 502.474 94.9203 492.183 109.583C485.167 119.513 479.251 130.176 474.539 141.384C471.3 149.125 466.183 155.404 461.027 161.841C453.895 170.755 435.858 175.542 422.414 170.55C414.28 167.528 410.552 162.109 411.485 153.081C412.055 147.668 411.235 143.365 407.501 139.42C406.067 137.901 405.225 135.812 404.206 133.922C398.127 122.538 398.355 111.194 405.202 100.339C410.996 91.1522 418.583 83.7127 428.339 78.5273C453.753 65.0259 480.868 58.2922 509.577 57.7742C515.298 57.6661 521.035 57.501 526.738 57.8425C535.925 58.4117 544.417 56.0439 552.733 52.5262C575.295 42.9864 596.087 30.686 613.8 13.5302C617.647 9.80198 621.876 6.47785 625.838 2.86343C626.87 1.88273 628.093 1.12419 629.43 0.634686C630.767 0.145178 632.191 -0.0649054 633.613 0.0174199C638.963 0.171104 644.324 0.0572682 649.55 0.0572682C651.576 3.74569 646.704 4.84425 647.273 7.80978C647.734 8.09438 648.337 8.76605 648.764 8.66928C653.79 7.53088 657.808 9.72799 661.753 12.3463C664.747 14.3328 667.843 16.0518 671.651 15.8697C679.226 15.5054 683.171 12.5911 685.926 5.20853C687.787 0.22233 687.787 0.0857213 692.374 0.0857213C702.745 0.0174172 713.115 0.0857213 723.486 0.0857213C725.688 0.0857213 727.715 0.364643 728.967 2.60729C735.228 13.8206 739.536 25.3753 735.228 38.41C731.05 51.0748 722.068 59.4989 710.349 65.0429C704.088 67.9971 697.759 67.0408 692.084 62.9881C690.377 61.753 688.567 60.3812 687.349 58.6793C685.072 55.5145 682.323 55.4462 678.839 55.9756C663.068 58.3776 651.781 52.1961 645.224 37.6701C641.763 30.0029 640.551 22.0057 643.129 13.6498C639.908 12.8244 639.179 15.3118 638.007 16.6096C626.287 29.6329 614.562 42.6506 603.076 55.8845C592.563 68.0677 582.886 80.9478 574.111 94.4365C566.86 105.496 559.836 116.709 552.346 127.604C549.767 131.349 549.682 134.514 551.315 138.51C562.653 166.196 586.206 175.297 612.61 173.43C616.907 173.129 620.852 171.262 624.802 169.531C627.374 168.393 629.463 166.167 632.878 166.116C636.333 172.024 636.863 178.638 636.715 185.366C636.538 193.62 632.594 199.596 625.599 203.7C624.386 204.457 623.099 205.087 621.757 205.579C618.046 206.797 613.629 207.007 610.743 209.244C607.857 211.481 606.73 215.847 604.408 218.966C597.538 228.193 587.424 229.718 578.095 222.985C575.818 221.328 573.382 219.461 571.919 217.122C568.926 212.346 565.539 211.094 559.688 211.737C551.15 212.677 542.948 204.247 542.043 194.906C541.446 188.844 541.617 182.742 544.775 177.164C548.02 171.432 548.93 165.029 549.852 158.665C550.53 153.981 549.756 149.393 548.185 144.953C547.36 142.614 544.992 141.97 543.159 143.815C540.061 146.774 537.147 149.92 534.433 153.235C527.518 162.041 522.521 171.558 521.286 183.118C518.781 206.586 515.878 230.02 516.578 253.67C517.108 271.76 521.337 288.961 529.92 305.069C538.395 320.956 550.615 333.176 565.778 342.637C567.895 343.957 570.149 345.073 572.375 346.211C587.646 354.009 602.137 351.573 615.962 342.58C623.362 337.781 627.158 330.74 627.67 321.952C627.83 319.225 626.828 317.108 624.284 315.804C623.066 315.178 620.909 315.77 620.869 316.943C620.869 318.366 621.205 319.789 621.119 321.212C620.909 324.627 619.178 327.291 616.685 329.482C609.753 335.584 598.824 335.425 592.211 328.981C580.4 317.438 583.332 299.793 593.975 290.919C601.215 284.885 609.941 285.187 618.376 288.46C633.476 294.311 645.975 314.342 644.877 330.439C644.478 336.324 642.207 341.487 638.678 346.154C631.484 355.671 621.893 361.483 610.453 364.431C601.693 366.708 592.808 366.873 583.821 366.293C581.698 366.15 579.563 366.088 577.44 365.974C576.45 365.923 576.103 366.349 576.359 367.334C576.444 367.653 576.325 368.171 576.507 368.296C577.964 369.292 579.353 370.448 580.975 371.142C585.91 373.22 590.845 375.36 595.927 377.005C604.596 379.811 611.864 384.917 619.087 390.21C629.833 398.111 633.237 408.687 629.902 421.414C628.815 425.535 627.095 429.502 625.519 433.481C623.094 439.611 623.043 439.594 628.587 445.167C625.582 449.032 621.848 448.645 618.017 446.874C612.755 444.448 608.644 440.069 606.554 434.665C605.439 431.657 604.659 428.537 604.226 425.359C603.537 421.129 602.752 416.821 602.803 412.58C602.9 404.571 598.938 398.982 592.922 394.57C587.162 390.353 581.322 386.203 575.221 382.515C570.628 379.775 566.418 376.441 562.699 372.599C534.599 343.377 517.25 308.541 510.63 268.8C506.521 244.097 505.627 219.012 509.429 194.001C509.885 190.996 510.744 187.888 509.777 184.763C506.476 184.729 505.411 187.347 503.795 189.026C485.683 207.89 466.394 225.455 445.505 241.188C439.529 245.696 433.239 249.817 426.893 253.801C408.11 265.629 390.244 278.675 374.017 293.919C341.397 324.564 321.937 362.394 312.415 405.738C307.935 426.138 307.155 446.829 307.668 467.605C307.958 479.393 308.271 491.198 310.081 502.895C314.065 528.697 324.111 551.522 343.162 569.862C356.543 582.743 372.252 592.225 390.033 596.956C408.748 601.936 428.077 603.832 447.281 598.663C471.056 592.282 488.768 578.582 498.757 555.569C511.706 525.749 511.923 496.002 498.917 466.159C497.01 461.787 494.426 458.122 490.379 455.475C486.19 452.743 482.211 449.686 477.988 447.017C475.283 445.256 472.183 444.194 468.967 443.926C457.743 443.072 451.971 446.299 448.476 456.864C446.234 463.609 445.061 470.713 443.433 477.662C442.705 480.793 442.295 484.026 441.31 487.054C435.158 505.422 410.99 514.234 394.342 504.267C384.068 498.12 378.792 483.907 382.674 472.46C383.531 470.114 384.604 467.852 385.878 465.704C386.59 464.434 385.981 463.563 385.264 462.932C383.937 461.759 382.27 460.979 380.961 459.79C378.32 457.405 375.451 455.133 373.351 452.31C366.042 442.52 366.703 432.2 374.865 423.07C377.975 419.606 381.54 416.578 385.463 414.071C387.608 412.694 388.115 410.895 387.455 408.59C385.867 403.109 384.256 397.633 382.708 392.14C380.545 384.461 380.323 376.606 380.961 368.734C381.94 356.61 387.415 346.82 397.393 339.933C410.114 331.156 424.565 328.093 439.808 327.513C440.132 331.497 437.616 333.381 436.296 335.806C433.735 340.536 431.515 345.329 430.166 350.605C427.69 360.231 429.545 369.008 434.583 377.307C438.146 383.181 442.836 388.059 448.112 392.413C457.242 399.898 467.133 406.402 477.624 411.817C499.936 423.463 514.939 441.325 523.727 464.702C525.708 470.001 527.763 475.277 529.732 480.44C533.341 480.121 535.293 477.793 537.661 476.296C549.78 468.605 563.61 464.024 577.924 462.96C596.679 461.446 615.046 463.871 633.203 468.174C646.095 471.23 657.108 466.842 667.507 460.205C672.539 456.972 674.861 451.667 675.271 445.565C675.72 438.974 674.161 432.798 671.793 426.782C670.251 422.86 668.628 418.972 666.807 414.498C678.709 414.959 689.477 416.98 699.575 421.932C717.691 430.823 724.049 445.525 719.262 465.55C717.599 472.148 714.953 478.459 711.414 484.271C709.808 486.98 709.706 489.354 710.878 492.319C712.77 496.963 713.909 501.878 714.254 506.879C715.039 520.159 709.643 527.678 696.643 531.076C691.048 532.539 685.26 532.676 679.568 532.3C675.493 532.033 672.943 533.382 670.791 536.763C667.865 541.28 664.15 545.235 659.823 548.437C651.65 554.601 642.828 555.455 633.641 550.976C628.109 548.283 623.396 544.601 619.895 539.358C615.376 532.466 609.787 526.338 603.338 521.206C589.979 510.705 575.187 507.978 558.942 512.771C552.641 514.621 547.285 518.178 542.152 522.06C532.954 529.01 525.298 537.497 518.445 546.724C512.219 555.017 506.669 563.798 501.848 572.981C496.156 583.972 488.467 593.193 479.081 601.128C475.529 604.127 472.006 607.156 468.545 610.235C464.26 614.074 461.163 619.059 459.621 624.602C455.779 637.739 456.006 650.751 460.867 663.524C465.244 675.01 473.014 683.542 484.204 688.955C487.288 690.447 490.294 691.027 493.504 690.02C497.579 688.734 501.814 687.692 505.593 685.785C511.945 682.586 513.863 677.554 512.184 670.525C511.288 667.051 509.698 663.795 507.511 660.951C504.523 656.91 505.138 654.974 511.12 654.747C512.554 654.69 513.966 654.553 515.412 654.599C531.804 655.111 542.624 661.782 545.715 680.213C545.971 681.254 546.108 682.322 546.124 683.394C545.84 687.908 547.479 691.363 550.439 694.926C561.72 708.513 556.563 721.804 546.551 729.762C535.168 738.835 522.299 743.2 507.517 739.244C497.483 736.563 487.835 732.852 478.267 728.885C476.377 728.099 474.636 726.426 472.12 728.06C491.159 771.273 523.386 798.441 569.956 807.372C584.698 810.218 599.889 808.909 614.875 807.497C623.789 806.655 632.588 805.38 641.057 802.226C668.896 791.844 683.103 765.507 681.15 736.768C680.501 727.206 676.506 718.913 669.3 712.259C665.378 708.638 661.075 706.948 655.697 707.375C649.237 707.893 643.032 709.544 636.789 711.069C633.322 711.917 629.902 712.953 626.458 713.915C622.184 715.053 618.751 713.744 615.985 710.38C613.475 707.324 613.265 704.688 615.775 701.683C618.051 698.968 620.613 696.492 623.049 693.908C620.436 690.145 616.48 689.274 612.855 687.931C599.194 682.859 597.982 673.234 600.293 661.002C600.913 657.695 603.327 655.418 606.514 654.126C609.488 652.85 612.724 652.306 615.951 652.538C619.15 652.823 622.326 653.329 625.496 653.847C628.996 654.416 632.594 655.959 635.941 655.521C639.657 655.025 640.494 650.398 642.924 647.882C651.143 639.304 664.507 636.498 675.476 641.165C688.51 646.744 695.761 656.483 696.877 670.678C697.141 672.808 697.253 674.954 697.212 677.099C696.613 687.798 697.215 698.529 699.005 709.094C701.219 722.92 701.009 736.882 700.542 750.833C700.398 753.678 700.398 756.527 700.542 759.371C700.656 761.119 702.085 761.728 703.582 761.011C712.427 756.764 719.718 750.497 726.127 743.178C732.746 735.613 738.745 727.485 742.872 718.366C746.287 710.773 751.774 708.826 759.23 709.407C764.284 709.805 769.168 710.773 773.585 713.306C776.368 714.905 778.85 714.792 781.633 713.306C786.98 710.406 792.687 708.226 798.606 706.823C811.412 703.777 821.942 707.881 829.512 718.469C833.445 723.944 834.191 729.522 831.51 735.602C830.372 738.18 829.011 740.667 827.736 743.217C830.349 746.633 834.31 747.72 837.543 749.854C843.969 754.089 849.228 759.303 852.279 766.441C856.303 775.855 853.082 780.062 842.831 778.65C836.439 777.774 830.417 775.429 824.384 773.186C810.991 768.211 797.433 763.76 783.494 760.527C772.703 757.972 761.645 756.722 750.556 756.804C738.705 756.902 727.079 760.05 716.798 765.946C710.264 769.628 703.752 773.345 697.4 777.33C694.714 779.037 692.346 781.28 690.047 783.505C673.927 799.141 671.793 800.724 654.052 809.609C661.28 812.262 662.02 812.392 667.9 811.846C675.401 811.152 682.698 809.398 689.91 807.338C699.836 804.492 709.677 804.731 719.308 808.761C723.295 810.372 726.951 812.703 730.094 815.637C732.368 817.794 734.185 820.386 735.435 823.261C736.686 826.135 737.344 829.231 737.372 832.365C737.4 835.5 736.796 838.607 735.596 841.503C734.396 844.399 732.626 847.023 730.39 849.22C726.764 852.8 722.421 855.242 717.811 857.24C712.245 859.659 706.632 861.97 701.106 864.469C696.171 866.694 691.731 869.694 688.356 874.008C686.723 876.086 686.079 878.443 687.576 880.97C689.073 883.497 690.53 885.854 691.891 888.369C692.687 889.781 693.105 891.374 693.105 892.994C693.105 894.615 692.687 896.208 691.891 897.619C686.484 908.098 670.222 911.28 661.24 903.573C658.395 901.12 656.994 897.778 656.277 894.278C654.809 887.157 654.917 880.105 657.854 873.217C660.261 867.599 663.403 862.402 666.744 857.348C668.515 854.661 670.416 852.06 672.061 849.294C675.811 842.981 675.265 835.838 669.915 830.681C658.924 820.082 645.793 814.282 630.306 814.584C627.446 814.638 624.593 814.889 621.768 815.335C603.651 818.215 585.42 817.834 567.184 817.464C565.755 817.464 564.338 817.464 562.989 817.464C561.202 819.394 562.63 820.839 563.649 822.143C569.403 829.48 576.611 835.548 584.823 839.965C594.265 845.087 603.446 850.609 611.574 857.729C616.697 862.226 621.461 867.059 624.449 873.337C629.327 883.582 627.864 892.843 619.895 900.818C617.63 903.102 615.113 905.122 612.394 906.84C608.725 909.051 604.947 911.075 601.073 912.902C598.227 914.308 595.205 915.446 592.165 916.744C591.886 920.359 594.226 922.795 595.535 925.55C598.136 931.008 597.35 935.721 593.628 940.451C584.026 952.672 566.188 960.834 547.496 953.179C543.159 951.397 538.958 949.388 535.543 946.212C531.844 942.796 528.047 941.55 522.953 942.62C514.165 944.47 505.161 944.328 496.236 943.798C491.6 943.533 487.005 942.785 482.524 941.567C467.897 937.474 462.33 927.838 465.199 912.213C468.096 911.143 470.782 912.486 473.566 912.919C488.148 915.196 502.69 915.987 517.165 911.997C534.809 907.136 547.371 896.389 555.095 879.854C559.449 870.392 562.017 860.207 562.67 849.812C563.501 838.268 559.124 828.102 552.34 818.961C551.218 817.565 549.803 816.433 548.196 815.643C533.312 807.839 519.168 798.84 505.32 789.351C505.075 789.186 504.62 789.351 503.578 789.351C502.838 793.66 502.309 798.145 501.268 802.505C497.739 817.231 489.144 827.334 474.163 831.353C472.433 831.781 470.679 832.104 468.91 832.32C461.562 833.35 455.369 831.751 451.834 824.511C450.599 821.989 448.937 820.72 445.898 821.374C438.112 823.082 431.025 821.83 425.06 816.03C418.572 809.717 414.952 802.272 415.384 793.091C415.47 791.321 415.697 789.556 415.851 787.877C419.056 786.841 419.648 789.482 420.803 791.025C423.911 795.18 427.513 798.544 433.017 798.743C439.728 798.982 445.704 796.671 450.804 792.482C453.753 790.063 454.117 786.34 454.305 782.68C454.806 772.93 453.064 763.447 450.952 754.015C447.748 739.717 443.752 725.635 439.324 711.667C437.726 706.928 436.938 701.953 436.996 696.953C437.15 690.879 436.899 684.795 436.723 678.738C436.194 660.114 439.118 641.553 445.346 623.993C445.915 622.33 446.331 620.577 446.769 619.069C445.004 616.707 442.784 617.612 440.821 617.692C431.896 618.033 422.989 618.984 414.03 618.375C394.757 617.065 376.851 611.852 361.096 600.234C353.617 594.724 345.933 589.505 338.898 583.374C319.038 566.029 306.742 544.411 302.01 518.52C301.76 517.119 301.537 515.674 301.372 514.285C301.27 513.38 300.877 512.885 300.041 513.004C299.386 513.101 298.401 513.152 298.157 513.573C295.988 517.25 293.893 520.973 291.896 524.764C290.826 526.796 291.566 528.936 291.896 531.025C292.835 537.389 293.859 543.741 294.52 550.133C295.18 556.525 295.089 562.98 293.381 569.298C290.268 580.682 280 586.602 268.548 583.659C263.59 582.384 259.27 579.834 255.417 576.647C252.605 574.318 249.777 573.846 246.481 574.882C241.362 576.498 236.062 577.469 230.703 577.773C217.043 578.57 211.442 572.082 214.397 558.648C215.535 553.457 218.563 548.403 218.569 543.28C218.569 538.55 215.29 533.911 214.174 529.05C210.27 512.105 217.311 501.159 234.312 497.567C243.419 495.643 252.605 494.613 261.963 496.697C265.731 497.533 269.806 497.408 273.699 497.146C278.385 496.851 282.817 494.916 286.221 491.682C289.812 488.324 291.406 484.328 291.309 479.273C291.082 466.751 291.879 454.274 292.761 441.78C293.592 429.98 294.981 418.255 297.758 406.803C301.708 390.501 306.017 374.273 311.578 358.421C318.755 337.929 329.308 319.453 343.696 303.174C345.324 301.33 346.747 299.303 348.21 297.328C348.375 297.106 348.21 296.628 348.13 295.7C340.39 296.708 332.689 297.846 324.954 298.689C302.482 301.148 280.097 301.7 257.791 296.628C245.931 293.875 233.767 292.651 221.597 292.985C216.241 293.156 210.902 293.423 205.66 294.835C200.417 296.247 195.579 298.415 191.857 302.588C190.915 303.663 189.891 304.664 188.795 305.582C178.669 313.955 171.207 324.001 167.263 336.791C164.337 346.274 158.259 353.742 149.573 358.921C144.637 361.852 139.092 363.605 133.368 364.044C124.91 364.75 117.875 362.098 113.134 354.664C112.172 353.155 111.256 351.624 110.345 350.11C109.847 349.164 109.086 348.381 108.154 347.855C107.223 347.329 106.16 347.083 105.092 347.145C101.164 347.145 97.2028 347.253 93.3153 346.792C83.6393 345.653 76.8093 340.599 73.195 331.349C71.3907 326.716 71.3451 322.242 73.9918 317.99C76.0636 314.666 77.9761 311.046 80.7252 308.382C84.8062 304.455 85.7567 300.06 84.9997 294.801C84.6706 292.318 84.5486 289.813 84.6354 287.31C84.846 278.533 89.3767 272.653 97.829 269.91C104.09 267.878 110.47 267.906 116.925 268.902C129.714 270.872 141.86 275.004 153.83 279.774C157.456 281.22 160.991 282.95 165.049 283.155C172.368 283.531 179.108 282.113 185.078 277.543C183.798 273.695 180.012 273.638 177.315 272.323C158.156 263 141.047 250.916 126.299 235.496C115.712 224.329 106.566 211.878 99.0755 198.435C96.6801 194.05 93.9593 189.851 90.9362 185.873C87.1227 181.023 81.8806 179.043 75.6708 180.374C67.1958 182.224 62.6539 192.14 66.695 199.87C68.3058 202.955 71.0662 204.628 74.2821 205.328C76.6954 205.846 79.251 205.681 81.7384 205.897C86.2462 206.307 88.9954 208.778 89.7068 213.052C90.0461 214.999 89.9631 216.996 89.4632 218.908C88.9634 220.821 88.0584 222.603 86.8097 224.135C80.5087 232.506 71.3212 238.238 61.0316 240.215C53.934 241.672 47.565 239.993 42.0724 235.2C40.9967 234.261 39.7444 233.418 38.9646 232.263C35.8057 227.601 31.3776 226.172 25.9989 226.514C24.2572 226.628 22.4699 226.036 20.7055 225.785C12.9362 224.647 7.36968 220.401 4.63193 213.206C-1.75424 196.397 -2.11281 179.76 7.20462 163.685C14.3649 151.345 25.4866 146.04 39.3119 145.852C48.6976 145.721 57.7134 148.089 66.6324 150.787C70.0474 151.818 73.343 153.064 76.4564 154.134C79.4104 152.381 77.9363 150.15 77.6289 148.277C74.783 130.945 73.3201 113.556 73.9633 95.9506C74.2793 85.9453 75.6298 75.9996 77.9931 66.2724C83.1776 45.772 84.4426 24.4766 81.7213 3.50663C81.725 2.80386 81.8246 2.1049 82.0173 1.42904C83.7248 -0.375323 86.0014 0.0857213 88.0732 0.0857213C98.4436 0.0857213 108.814 0.116081 119.185 0.176796C119.528 0.183051 119.864 0.281753 120.156 0.462508C120.448 0.643263 120.686 0.899406 120.845 1.20401C121.004 1.50861 121.078 1.85042 121.059 2.19351C121.04 2.5366 120.93 2.86829 120.738 3.15372C119.446 5.28823 118.04 7.35442 116.697 9.46046C108.37 22.461 102.098 36.4577 96.6964 50.8755C94.0326 57.9792 93.4064 65.5211 92.4844 72.9378C90.0426 92.5183 89.6386 112.139 92.5812 131.731C97.4761 164.175 111.575 192.134 133.232 216.541C141.331 225.649 149.943 234.187 159.898 241.296C163.677 243.988 167.468 246.669 171.851 248.371C175.636 250.819 175.635 250.819 179.187 250.859C178.873 249.897 178.353 249.015 177.663 248.274C176.973 247.534 176.129 246.953 175.192 246.573Z" fill="var(--fill-0, #D6C7A9)" fill-opacity="0.35"/>
</svg>
