<svg preserveAspectRatio="none" width="100%" height="100%" overflow="visible" style="display: block;" viewBox="0 0 820.455 918.638" fill="none" xmlns="http://www.w3.org/2000/svg">
<path id="Vector" opacity="0.62" d="M168.318 236.898C162.368 229.374 156.326 221.92 150.518 214.285C147.614 210.457 145.05 206.378 143.442 201.784C140.505 193.329 143.048 188.823 151.896 186.844C153.569 186.452 155.261 186.149 156.965 185.936C161.685 185.389 165.835 186.34 168.75 190.535C169.723 191.94 170.937 193.176 171.965 194.554C173.365 196.441 175.055 196.977 177.341 196.315C178.997 195.863 180.7 195.602 182.416 195.539C188.431 195.254 192.177 198.372 192.871 204.414C193.183 207.121 192.926 209.883 192.904 212.65C192.85 219.88 193.074 227.082 194.993 234.115C195.734 237.113 196.647 240.065 197.727 242.958C202.037 253.655 203.601 254.934 215.013 258.44C240.168 266.161 266.067 269.197 292.272 268.934C307.43 268.781 322.211 265.057 336.779 261.076C370.405 251.883 400.678 236.171 426.796 212.951C455.089 187.795 482.055 161.381 504.546 130.74C507.182 127.142 509.938 123.604 512.279 119.803C522.204 103.714 533.321 88.4454 544.242 73.0401C545.828 70.798 547.375 68.523 548.808 66.1769C550.241 63.8309 549.459 62.2395 546.823 61.9934C541.994 61.545 537.286 61.5395 532.703 63.6887C525.562 67.03 518.305 70.1199 511.081 73.2917C495.223 80.2533 482.76 91.1962 472.873 105.284C466.132 114.824 460.448 125.069 455.921 135.837C452.809 143.275 447.893 149.306 442.939 155.492C436.087 164.056 418.757 168.655 405.841 163.859C398.026 160.955 394.444 155.749 395.341 147.075C395.888 141.875 395.1 137.74 391.513 133.95C390.135 132.49 389.326 130.483 388.347 128.668C382.507 117.73 382.725 106.831 389.304 96.4024C394.871 87.5759 402.16 80.4283 411.533 75.4464C435.95 62.4746 462.002 56.0052 489.585 55.5075C495.08 55.4036 500.593 55.245 506.072 55.5731C514.898 56.12 523.057 53.845 531.046 50.4654C552.723 41.2999 572.7 29.482 589.718 12.9994C593.414 9.41741 597.477 6.2237 601.283 2.75108C602.275 1.80886 603.45 1.08009 604.735 0.609784C606.02 0.139482 607.387 -0.0623589 608.753 0.0167365C613.894 0.164391 619.045 0.0550213 624.065 0.0550213C626.012 3.59873 621.331 4.65419 621.878 7.50337C622.32 7.77681 622.9 8.42212 623.31 8.32915C628.139 7.23541 632 9.34632 635.789 11.8619C638.666 13.7705 641.641 15.422 645.299 15.247C652.577 14.897 656.367 12.0971 659.014 5.00418C660.802 0.213607 660.802 0.0823581 665.21 0.0823581C675.173 0.0167338 685.137 0.0823581 695.1 0.0823581C697.216 0.0823581 699.163 0.350336 700.366 2.505C706.382 13.2783 710.521 24.3797 706.382 36.903C702.368 49.0709 693.739 57.1645 682.479 62.491C676.464 65.3293 670.383 64.4105 664.931 60.5168C663.29 59.3301 661.551 58.0122 660.381 56.377C658.194 53.3364 655.552 53.2708 652.206 53.7794C637.053 56.0872 626.209 50.1482 619.909 36.1921C616.584 28.8258 615.419 21.1423 617.897 13.1143C614.801 12.3213 614.101 14.7111 612.975 15.958C601.715 28.4703 590.45 40.9772 579.415 53.6919C569.315 65.3972 560.017 77.7719 551.586 90.7313C544.619 101.357 537.871 112.13 530.675 122.597C528.197 126.196 528.115 129.236 529.685 133.075C540.578 159.675 563.206 168.42 588.575 166.626C592.703 166.336 596.493 164.542 600.288 162.88C602.76 161.786 604.767 159.648 608.048 159.599C611.367 165.275 611.876 171.63 611.734 178.094C611.564 186.023 607.774 191.765 601.054 195.708C599.889 196.436 598.652 197.041 597.362 197.513C593.797 198.683 589.553 198.886 586.781 201.035C584.008 203.184 582.926 207.378 580.695 210.375C574.094 219.24 564.377 220.706 555.414 214.236C553.227 212.645 550.886 210.851 549.481 208.603C546.604 204.015 543.35 202.812 537.729 203.43C529.526 204.332 521.646 196.233 520.777 187.259C520.202 181.435 520.367 175.573 523.402 170.213C526.519 164.706 527.393 158.554 528.279 152.44C528.93 147.939 528.186 143.532 526.677 139.266C525.884 137.018 523.609 136.4 521.848 138.172C518.872 141.015 516.072 144.038 513.465 147.223C506.821 155.683 502.02 164.827 500.833 175.934C498.427 198.481 495.638 220.995 496.311 243.718C496.819 261.097 500.882 277.624 509.129 293.1C517.271 308.363 529.012 320.105 543.58 329.194C545.614 330.462 547.78 331.534 549.918 332.628C564.59 340.12 578.513 337.779 591.795 329.139C598.904 324.529 602.552 317.764 603.044 309.32C603.197 306.701 602.235 304.666 599.79 303.414C598.62 302.813 596.548 303.381 596.509 304.508C596.509 305.875 596.832 307.242 596.75 308.609C596.548 311.891 594.885 314.45 592.49 316.555C585.829 322.418 575.33 322.265 568.976 316.074C557.629 304.984 560.445 288.031 570.671 279.505C577.627 273.708 586.01 273.998 594.114 277.143C608.622 282.764 620.631 302.009 619.575 317.474C619.192 323.129 617.011 328.089 613.62 332.573C606.708 341.717 597.494 347.3 586.502 350.133C578.086 352.321 569.55 352.479 560.915 351.921C558.875 351.785 556.825 351.725 554.785 351.615C553.833 351.566 553.5 351.976 553.746 352.922C553.828 353.228 553.713 353.726 553.888 353.846C555.288 354.803 556.622 355.914 558.181 356.581C562.922 358.577 567.663 360.633 572.547 362.213C580.875 364.91 587.858 369.815 594.798 374.901C605.122 382.491 608.392 392.652 605.188 404.88C604.143 408.839 602.492 412.651 600.977 416.474C598.647 422.364 598.598 422.347 603.925 427.701C601.037 431.414 597.45 431.042 593.77 429.342C588.714 427.01 584.765 422.803 582.756 417.611C581.685 414.722 580.935 411.723 580.52 408.67C579.858 404.607 579.103 400.467 579.152 396.393C579.245 388.698 575.439 383.328 569.659 379.09C564.125 375.038 558.515 371.051 552.652 367.507C548.24 364.875 544.195 361.672 540.622 357.981C513.624 329.904 496.956 296.436 490.596 258.254C486.648 234.52 485.789 210.419 489.442 186.39C489.88 183.502 490.706 180.516 489.776 177.514C486.604 177.481 485.582 179.997 484.029 181.61C466.628 199.733 448.095 216.61 428.026 231.725C422.284 236.056 416.242 240.016 410.144 243.844C392.098 255.208 374.933 267.742 359.342 282.387C328.003 311.83 309.306 348.175 300.157 389.819C295.853 409.419 295.104 429.298 295.596 449.259C295.875 460.584 296.176 471.926 297.915 483.164C301.743 507.954 311.395 529.883 329.698 547.504C342.554 559.879 357.647 568.99 374.73 573.534C392.711 578.32 411.282 580.141 429.732 575.175C452.574 569.045 469.592 555.882 479.189 533.772C491.63 505.121 491.838 476.542 479.342 447.87C477.51 443.67 475.028 440.148 471.139 437.605C467.115 434.98 463.292 432.043 459.235 429.478C456.636 427.787 453.658 426.766 450.567 426.509C439.783 425.689 434.238 428.789 430.881 438.939C428.726 445.42 427.6 452.244 426.036 458.922C425.336 461.93 424.942 465.036 423.996 467.945C418.084 485.593 394.865 494.058 378.87 484.482C369 478.576 363.93 464.921 367.66 453.923C368.484 451.669 369.514 449.496 370.738 447.432C371.422 446.213 370.837 445.376 370.148 444.769C368.874 443.642 367.272 442.893 366.014 441.75C363.476 439.459 360.72 437.277 358.702 434.564C351.681 425.158 352.315 415.243 360.157 406.472C363.145 403.143 366.57 400.234 370.339 397.826C372.401 396.502 372.888 394.774 372.253 392.559C370.728 387.293 369.18 382.032 367.693 376.755C365.615 369.377 365.401 361.831 366.014 354.267C366.954 342.619 372.215 333.213 381.801 326.596C394.023 318.163 407.908 315.221 422.552 314.663C422.864 318.491 420.447 320.301 419.178 322.631C416.717 327.176 414.585 331.78 413.289 336.85C410.91 346.097 412.693 354.53 417.532 362.503C420.955 368.147 425.461 372.834 430.531 377.017C439.302 384.209 448.806 390.457 458.885 395.66C480.321 406.849 494.736 424.01 503.179 446.47C505.082 451.561 507.056 456.63 508.948 461.59C512.415 461.284 514.291 459.048 516.566 457.609C528.21 450.219 541.497 445.818 555.25 444.796C573.268 443.341 590.915 445.671 608.359 449.805C620.746 452.742 631.327 448.526 641.318 442.149C646.152 439.043 648.383 433.946 648.777 428.084C649.209 421.751 647.711 415.818 645.436 410.037C643.954 406.269 642.395 402.534 640.645 398.236C652.08 398.679 662.426 400.62 672.127 405.378C689.533 413.92 695.642 428.046 691.043 447.284C689.445 453.624 686.902 459.687 683.502 465.271C681.96 467.874 681.861 470.154 682.988 473.004C684.805 477.465 685.9 482.187 686.23 486.992C686.985 499.751 681.801 506.975 669.311 510.24C663.935 511.645 658.374 511.777 652.905 511.416C648.99 511.159 646.54 512.455 644.473 515.703C641.662 520.044 638.092 523.843 633.935 526.919C626.083 532.842 617.607 533.662 608.781 529.358C603.465 526.772 598.937 523.234 595.574 518.197C591.233 511.575 585.862 505.688 579.667 500.757C566.832 490.667 552.62 488.048 537.013 492.653C530.959 494.43 525.813 497.848 520.881 501.578C512.044 508.255 504.688 516.409 498.104 525.273C492.122 533.242 486.79 541.678 482.158 550.5C476.69 561.06 469.302 569.92 460.285 577.543C456.872 580.425 453.487 583.334 450.162 586.293C446.045 589.981 443.07 594.771 441.588 600.096C437.897 612.718 438.115 625.219 442.785 637.491C446.991 648.527 454.455 656.724 465.206 661.925C468.17 663.358 471.057 663.915 474.142 662.948C478.057 661.712 482.126 660.711 485.757 658.879C491.859 655.805 493.702 650.971 492.089 644.217C491.228 640.88 489.7 637.751 487.6 635.019C484.729 631.136 485.319 629.277 491.067 629.058C492.445 629.003 493.801 628.872 495.19 628.916C510.939 629.408 521.334 635.817 524.304 653.525C524.55 654.526 524.682 655.551 524.698 656.582C524.424 660.919 525.999 664.238 528.843 667.661C539.681 680.715 534.727 693.485 525.108 701.13C514.171 709.847 501.807 714.041 487.605 710.241C477.964 707.665 468.695 704.099 459.503 700.288C457.687 699.533 456.014 697.925 453.597 699.495C471.889 741.013 502.851 767.115 547.594 775.695C561.757 778.43 576.353 777.172 590.751 775.816C599.315 775.006 607.769 773.781 615.906 770.752C642.652 760.777 656.301 735.473 654.426 707.862C653.802 698.674 649.964 690.707 643.041 684.314C639.273 680.836 635.139 679.211 629.971 679.622C623.764 680.119 617.804 681.705 611.805 683.171C608.474 683.986 605.188 684.981 601.879 685.905C597.773 686.999 594.475 685.741 591.817 682.509C589.406 679.572 589.204 677.04 591.615 674.153C593.802 671.544 596.263 669.165 598.604 666.683C596.094 663.068 592.293 662.231 588.81 660.941C575.685 656.068 574.521 646.82 576.741 635.068C577.337 631.891 579.656 629.703 582.718 628.462C585.575 627.236 588.684 626.713 591.785 626.936C594.858 627.21 597.909 627.696 600.955 628.194C604.318 628.741 607.774 630.223 610.99 629.802C614.561 629.326 615.365 624.88 617.7 622.463C625.596 614.222 638.436 611.525 648.974 616.01C661.496 621.369 668.463 630.726 669.535 644.365C669.789 646.411 669.897 648.472 669.858 650.534C669.282 660.812 669.86 671.123 671.58 681.273C673.708 694.557 673.505 707.971 673.057 721.375C672.918 724.108 672.918 726.845 673.057 729.578C673.166 731.257 674.539 731.842 675.977 731.153C684.475 727.073 691.48 721.052 697.638 714.02C703.997 706.752 709.761 698.942 713.726 690.182C717.007 682.886 722.278 681.016 729.442 681.574C734.298 681.957 738.99 682.886 743.234 685.32C745.908 686.857 748.292 686.747 750.966 685.32C756.103 682.534 761.586 680.439 767.273 679.091C779.577 676.165 789.694 680.108 796.967 690.28C800.745 695.541 801.462 700.9 798.886 706.741C797.793 709.218 796.485 711.608 795.26 714.058C797.771 717.339 801.577 718.384 804.683 720.434C810.857 724.503 815.909 729.512 818.841 736.37C822.707 745.415 819.612 749.457 809.763 748.1C803.622 747.258 797.836 745.005 792.04 742.851C779.172 738.071 766.146 733.794 752.754 730.688C742.387 728.234 731.762 727.033 721.108 727.112C709.722 727.206 698.553 730.23 688.675 735.894C682.397 739.433 676.141 743.004 670.038 746.832C667.457 748.472 665.182 750.627 662.973 752.765C647.486 767.788 645.436 769.308 628.391 777.845C635.335 780.393 636.046 780.519 641.695 779.994C648.903 779.327 655.913 777.642 662.842 775.663C672.379 772.928 681.834 773.158 691.086 777.03C694.917 778.578 698.429 780.817 701.449 783.636C703.634 785.708 705.38 788.199 706.581 790.961C707.782 793.722 708.415 796.697 708.442 799.708C708.468 802.72 707.888 805.705 706.735 808.487C705.583 811.27 703.882 813.791 701.733 815.901C698.25 819.341 694.078 821.687 689.648 823.607C684.3 825.931 678.908 828.151 673.598 830.552C668.857 832.69 664.592 835.572 661.349 839.717C659.779 841.714 659.161 843.978 660.6 846.406C662.038 848.834 663.438 851.098 664.745 853.515C665.51 854.871 665.911 856.401 665.911 857.958C665.911 859.515 665.51 861.046 664.745 862.402C659.55 872.469 643.926 875.526 635.297 868.122C632.563 865.765 631.218 862.555 630.529 859.191C629.118 852.35 629.222 845.574 632.043 838.957C634.357 833.56 637.375 828.567 640.585 823.711C642.286 821.129 644.112 818.63 645.693 815.972C649.296 809.908 648.771 803.044 643.631 798.09C633.071 787.907 620.456 782.334 605.576 782.624C602.829 782.676 600.088 782.917 597.373 783.346C579.967 786.113 562.452 785.747 544.931 785.391C543.558 785.391 542.197 785.391 540.901 785.391C539.184 787.245 540.556 788.634 541.535 789.887C547.062 796.936 553.988 802.766 561.878 807.009C570.95 811.931 579.77 817.236 587.579 824.077C592.501 828.397 597.078 833.04 599.949 839.072C604.636 848.916 603.23 857.813 595.574 865.475C593.397 867.669 590.98 869.61 588.367 871.261C584.842 873.386 581.212 875.33 577.49 877.085C574.756 878.436 571.852 879.529 568.932 880.776C568.664 884.249 570.911 886.59 572.169 889.236C574.668 894.481 573.914 899.009 570.337 903.553C561.112 915.295 543.974 923.137 526.015 915.781C521.849 914.07 517.813 912.139 514.532 909.088C510.977 905.807 507.33 904.609 502.435 905.637C493.992 907.414 485.341 907.278 476.766 906.769C472.313 906.514 467.898 905.795 463.593 904.625C449.539 900.693 444.191 891.435 446.947 876.423C449.73 875.395 452.312 876.686 454.986 877.101C468.996 879.289 482.968 880.049 496.874 876.215C513.826 871.545 525.895 861.22 533.316 845.334C537.499 836.243 539.967 826.458 540.594 816.47C541.393 805.38 537.188 795.612 530.669 786.83C529.591 785.489 528.232 784.401 526.688 783.642C512.388 776.144 498.799 767.498 485.494 758.382C485.259 758.223 484.822 758.382 483.821 758.382C483.11 762.521 482.601 766.831 481.601 771.02C478.21 785.167 469.953 794.874 455.56 798.735C453.898 799.147 452.212 799.457 450.512 799.665C443.453 800.655 437.503 799.118 434.107 792.162C432.92 789.739 431.324 788.52 428.403 789.148C420.923 790.789 414.114 789.586 408.383 784.013C402.149 777.949 398.671 770.796 399.087 761.975C399.169 760.274 399.388 758.578 399.535 756.965C402.614 755.97 403.183 758.507 404.293 759.989C407.279 763.982 410.74 767.214 416.028 767.405C422.476 767.635 428.218 765.414 433.117 761.389C435.95 759.065 436.3 755.489 436.48 751.972C436.962 742.604 435.288 733.494 433.259 724.432C430.181 710.695 426.342 697.165 422.087 683.745C420.552 679.192 419.795 674.413 419.851 669.608C419.998 663.773 419.758 657.927 419.588 652.109C419.08 634.215 421.889 616.382 427.873 599.511C428.42 597.914 428.819 596.23 429.24 594.78C427.545 592.511 425.412 593.38 423.526 593.457C414.951 593.785 406.393 594.698 397.786 594.113C379.269 592.855 362.066 587.846 346.929 576.684C339.743 571.391 332.361 566.376 325.602 560.486C306.521 543.821 294.707 523.051 290.161 498.176C289.92 496.831 289.707 495.442 289.548 494.107C289.45 493.238 289.073 492.762 288.269 492.877C287.64 492.97 286.694 493.019 286.459 493.424C284.375 496.956 282.363 500.533 280.443 504.175C279.415 506.127 280.126 508.184 280.443 510.191C281.346 516.305 282.33 522.408 282.964 528.549C283.599 534.69 283.511 540.892 281.871 546.962C278.879 557.9 269.014 563.587 258.012 560.76C253.249 559.535 249.098 557.085 245.396 554.022C242.695 551.786 239.977 551.332 236.81 552.327C231.893 553.879 226.801 554.813 221.652 555.105C208.528 555.871 203.147 549.636 205.985 536.73C207.079 531.743 209.988 526.887 209.993 521.965C209.993 517.42 206.843 512.963 205.771 508.293C202.02 492.013 208.785 481.496 225.119 478.046C233.869 476.197 242.695 475.207 251.685 477.209C255.305 478.013 259.22 477.893 262.961 477.641C267.463 477.357 271.721 475.499 274.991 472.391C278.442 469.165 279.973 465.326 279.88 460.469C279.661 448.438 280.427 436.451 281.275 424.447C282.073 413.111 283.407 401.845 286.076 390.842C289.871 375.18 294.011 359.588 299.353 344.358C306.249 324.671 316.388 306.92 330.212 291.279C331.776 289.507 333.143 287.56 334.548 285.663C334.707 285.449 334.548 284.99 334.472 284.099C327.035 285.067 319.636 286.16 312.204 286.97C290.615 289.332 269.107 289.863 247.676 284.99C236.282 282.345 224.596 281.169 212.902 281.49C207.757 281.654 202.627 281.911 197.591 283.267C192.554 284.624 187.906 286.707 184.33 290.716C183.425 291.749 182.441 292.711 181.388 293.592C171.659 301.637 164.49 311.289 160.7 323.577C157.89 332.688 152.049 339.863 143.704 344.839C138.962 347.655 133.635 349.339 128.136 349.761C120.01 350.439 113.251 347.891 108.695 340.749C107.771 339.3 106.891 337.829 106.016 336.374C105.537 335.465 104.806 334.712 103.911 334.207C103.016 333.702 101.995 333.465 100.969 333.525C97.1953 333.525 93.3891 333.629 89.6542 333.186C80.3578 332.092 73.7957 327.236 70.3232 318.349C68.5897 313.898 68.5459 309.599 71.0888 305.514C73.0793 302.32 74.9167 298.842 77.558 296.283C81.4789 292.51 82.3921 288.288 81.6648 283.235C81.3486 280.85 81.2314 278.442 81.3148 276.038C81.5171 267.605 85.8701 261.956 93.9908 259.32C100.006 257.368 106.136 257.395 112.337 258.352C124.625 260.244 136.295 264.215 147.795 268.797C151.278 270.186 154.674 271.849 158.573 272.046C165.606 272.407 172.08 271.045 177.817 266.654C176.586 262.957 172.95 262.902 170.358 261.639C151.951 252.681 135.513 241.071 121.344 226.256C111.172 215.527 102.385 203.565 95.1883 190.65C92.8869 186.437 90.2729 182.402 87.3684 178.58C83.7045 173.921 78.668 172.018 72.7019 173.298C64.5594 175.075 60.1957 184.601 64.0783 192.028C65.6259 194.992 68.278 196.6 71.3677 197.272C73.6863 197.77 76.1417 197.611 78.5314 197.819C82.8624 198.213 85.5037 200.586 86.1872 204.693C86.5132 206.564 86.4334 208.483 85.9532 210.32C85.473 212.157 84.6035 213.869 83.4038 215.341C77.35 223.384 68.523 228.89 58.6371 230.79C51.8179 232.19 45.6988 230.577 40.4217 225.972C39.3882 225.07 38.185 224.26 37.4359 223.15C34.4009 218.671 30.1465 217.299 24.9788 217.627C23.3055 217.736 21.5883 217.167 19.8931 216.927C12.4287 215.833 7.08053 211.753 4.4502 204.841C-1.68541 188.692 -2.02991 172.707 6.92196 157.263C13.8013 145.407 24.4866 140.31 37.7695 140.13C46.787 140.004 55.449 142.279 64.0181 144.871C67.2992 145.861 70.4654 147.059 73.4567 148.087C76.2948 146.403 74.8785 144.259 74.5832 142.46C71.849 125.808 70.4435 109.101 71.0614 92.186C71.365 82.5733 72.6625 73.0178 74.9331 63.6723C79.9142 43.9762 81.1295 23.5163 78.515 3.36905C78.5186 2.69385 78.6143 2.02231 78.7994 1.37298C80.4399 -0.360597 82.6272 0.0823581 84.6177 0.0823581C94.5813 0.0823581 104.545 0.111526 114.508 0.169859C114.838 0.175869 115.161 0.270698 115.442 0.444362C115.722 0.618025 115.951 0.864119 116.104 1.15677C116.257 1.44942 116.328 1.77782 116.31 2.10745C116.292 2.43708 116.185 2.75576 116.001 3.02999C114.76 5.08075 113.409 7.06587 112.119 9.08929C104.118 21.5798 98.0921 35.0273 92.9025 48.8795C90.3433 55.7044 89.7417 62.9504 88.8558 70.0761C86.5098 88.8884 86.1217 107.739 88.9489 126.562C93.6517 157.734 107.197 184.596 128.005 208.046C135.786 216.796 144.06 224.999 153.624 231.829C157.255 234.416 160.897 236.991 165.108 238.627C168.745 240.978 168.745 240.978 172.157 241.016C171.855 240.092 171.355 239.245 170.692 238.533C170.029 237.822 169.219 237.264 168.318 236.898Z" fill="var(--fill-0, #D6C7A9)" fill-opacity="0.1"/>
</svg>
