<svg preserveAspectRatio="none" width="100%" height="100%" overflow="visible" style="display: block;" viewBox="0 0 885.271 991.21" fill="none" xmlns="http://www.w3.org/2000/svg">
<path id="Vector" d="M181.615 255.613C175.195 247.494 168.675 239.451 162.409 231.214C159.276 227.083 156.509 222.681 154.774 217.725C151.605 208.602 154.349 203.74 163.896 201.604C165.701 201.181 167.527 200.855 169.366 200.625C174.458 200.035 178.936 201.061 182.081 205.587C183.132 207.104 184.441 208.437 185.551 209.924C187.061 211.96 188.884 212.538 191.351 211.824C193.138 211.336 194.975 211.055 196.827 210.986C203.317 210.679 207.359 214.043 208.108 220.563C208.445 223.484 208.167 226.464 208.144 229.45C208.085 237.25 208.327 245.022 210.398 252.61C211.197 255.845 212.182 259.03 213.348 262.151C217.997 273.693 219.685 275.074 231.999 278.856C259.141 287.188 287.086 290.463 315.361 290.18C331.717 290.015 347.666 285.996 363.385 281.7C399.667 271.781 432.332 254.829 460.513 229.774C491.042 202.631 520.137 174.13 544.405 141.069C547.249 137.186 550.223 133.368 552.749 129.267C563.458 111.907 575.454 95.4326 587.237 78.8103C588.948 76.391 590.618 73.9363 592.164 71.4049C593.71 68.8735 592.866 67.1564 590.022 66.8909C584.812 66.407 579.732 66.4011 574.787 68.7201C567.081 72.3254 559.251 75.6593 551.457 79.0817C534.345 86.5933 520.898 98.4007 510.23 113.601C502.957 123.895 496.823 134.949 491.938 146.568C488.581 154.593 483.277 161.102 477.931 167.775C470.537 177.016 451.839 181.978 437.902 176.803C429.47 173.67 425.605 168.053 426.573 158.694C427.163 153.083 426.313 148.622 422.443 144.532C420.956 142.957 420.083 140.791 419.026 138.832C412.725 127.031 412.961 115.271 420.059 104.018C426.066 94.4944 433.931 86.7821 444.044 81.4066C470.39 67.4101 498.5 60.4296 528.262 59.8926C534.192 59.7805 540.139 59.6094 546.052 59.9634C555.575 60.5535 564.379 58.0988 572.999 54.4521C596.389 44.5625 617.943 31.8111 636.305 14.0263C640.294 10.1614 644.678 6.71537 648.785 2.96842C649.855 1.95176 651.123 1.16541 652.509 0.657957C653.895 0.150501 655.371 -0.0672852 656.845 0.0180587C662.391 0.177378 667.949 0.059368 673.366 0.059368C675.467 3.88303 670.416 5.02187 671.006 8.09614C671.484 8.39117 672.109 9.08746 672.552 8.98715C677.762 7.80701 681.928 10.0847 686.017 12.799C689.12 14.8584 692.33 16.6404 696.278 16.4515C704.131 16.0739 708.22 13.0527 711.076 5.39951C713.005 0.230482 713.005 0.0888643 717.761 0.0888643C728.512 0.0180558 739.262 0.0888643 750.013 0.0888643C752.297 0.0888643 754.397 0.378013 755.695 2.70289C762.186 14.3273 766.652 26.3057 762.186 39.8184C757.855 52.9475 748.544 61.6805 736.395 67.4278C729.904 70.4903 723.343 69.499 717.46 65.2977C715.69 64.0172 713.814 62.5951 712.551 60.8308C710.191 57.55 707.341 57.4792 703.73 58.028C687.38 60.5181 675.679 54.1099 668.882 39.0513C665.294 31.103 664.037 22.8125 666.71 14.1503C663.371 13.2947 662.615 15.8733 661.4 17.2186C649.251 30.7195 637.096 44.2144 625.189 57.9336C614.29 70.5635 604.258 83.9158 595.161 97.8991C587.644 109.364 580.363 120.989 572.598 132.283C569.925 136.165 569.836 139.446 571.53 143.588C583.284 172.289 607.7 181.725 635.072 179.789C639.527 179.476 643.616 177.541 647.711 175.747C650.378 174.567 652.543 172.26 656.084 172.207C659.665 178.332 660.214 185.188 660.061 192.163C659.878 200.719 655.789 206.915 648.537 211.169C647.28 211.954 645.945 212.607 644.554 213.116C640.707 214.379 636.128 214.598 633.137 216.916C630.145 219.235 628.977 223.761 626.569 226.995C619.448 236.56 608.962 238.141 599.292 231.161C596.931 229.444 594.406 227.508 592.89 225.083C589.786 220.132 586.275 218.834 580.209 219.501C571.359 220.475 562.856 211.736 561.918 202.053C561.298 195.768 561.476 189.443 564.75 183.66C568.114 177.718 569.058 171.08 570.013 164.483C570.716 159.626 569.913 154.87 568.285 150.268C567.429 147.843 564.974 147.176 563.075 149.088C559.863 152.155 556.842 155.417 554.029 158.853C546.86 167.982 541.679 177.848 540.399 189.832C537.803 214.161 534.794 238.454 535.519 262.972C536.068 281.724 540.452 299.556 549.35 316.255C558.136 332.724 570.804 345.393 586.523 355.2C588.718 356.569 591.055 357.725 593.362 358.905C609.193 366.989 624.215 364.464 638.547 355.141C646.218 350.166 650.154 342.867 650.685 333.757C650.85 330.93 649.811 328.735 647.174 327.384C645.911 326.735 643.675 327.348 643.634 328.564C643.634 330.039 643.982 331.514 643.893 332.989C643.675 336.53 641.881 339.291 639.297 341.563C632.11 347.889 620.781 347.724 613.925 341.044C601.681 329.077 604.72 310.785 615.754 301.586C623.259 295.331 632.305 295.644 641.049 299.037C656.703 305.103 669.66 325.867 668.522 342.555C668.109 348.656 665.754 354.008 662.096 358.846C654.638 368.712 644.696 374.737 632.836 377.794C623.755 380.154 614.544 380.325 605.227 379.723C603.026 379.576 600.814 379.511 598.613 379.393C597.586 379.34 597.226 379.782 597.492 380.803C597.58 381.133 597.457 381.67 597.645 381.8C599.156 382.833 600.595 384.031 602.277 384.751C607.393 386.904 612.509 389.123 617.778 390.828C626.764 393.737 634.299 399.03 641.787 404.518C652.927 412.708 656.455 423.672 652.998 436.866C651.871 441.138 650.089 445.251 648.454 449.375C645.941 455.73 645.888 455.712 651.635 461.489C648.519 465.496 644.648 465.095 640.677 463.26C635.223 460.744 630.961 456.205 628.794 450.602C627.639 447.485 626.829 444.249 626.381 440.955C625.667 436.571 624.852 432.104 624.905 427.708C625.006 419.405 620.899 413.611 614.662 409.038C608.691 404.665 602.637 400.364 596.312 396.54C591.551 393.7 587.186 390.244 583.331 386.261C554.2 355.967 536.216 319.854 529.353 278.656C525.093 253.047 524.167 227.042 528.108 201.114C528.58 197.999 529.471 194.777 528.468 191.538C525.046 191.502 523.943 194.216 522.267 195.957C503.492 215.512 483.495 233.722 461.84 250.031C455.645 254.705 449.125 258.977 442.546 263.107C423.074 275.369 404.553 288.893 387.73 304.696C353.915 336.465 333.741 375.681 323.87 420.615C319.226 441.763 318.417 463.212 318.949 484.75C319.249 496.97 319.574 509.208 321.45 521.334C325.581 548.082 335.995 571.744 355.744 590.756C369.616 604.11 385.901 613.94 404.334 618.844C423.735 624.007 443.773 625.972 463.681 620.614C488.327 613.999 506.69 599.796 517.045 575.94C530.468 545.026 530.693 514.189 517.21 483.251C515.233 478.719 512.555 474.919 508.359 472.176C504.017 469.343 499.892 466.174 495.514 463.407C492.71 461.582 489.496 460.481 486.162 460.203C474.526 459.318 468.543 462.664 464.92 473.615C462.595 480.608 461.38 487.972 459.692 495.176C458.937 498.422 458.512 501.773 457.492 504.913C451.113 523.954 426.06 533.089 408.801 522.756C398.151 516.384 392.681 501.65 396.705 489.783C397.594 487.351 398.706 485.006 400.027 482.779C400.764 481.463 400.133 480.56 399.39 479.905C398.015 478.69 396.286 477.881 394.929 476.648C392.191 474.176 389.217 471.821 387.04 468.895C379.464 458.745 380.148 448.047 388.609 438.583C391.833 434.991 395.529 431.853 399.596 429.254C401.821 427.826 402.346 425.961 401.661 423.571C400.015 417.889 398.345 412.212 396.74 406.518C394.498 398.558 394.268 390.415 394.929 382.254C395.944 369.686 401.62 359.537 411.964 352.397C425.151 343.298 440.132 340.123 455.934 339.522C456.27 343.652 453.662 345.605 452.293 348.119C449.638 353.022 447.337 357.991 445.938 363.461C443.372 373.439 445.295 382.538 450.517 391.141C454.211 397.231 459.073 402.287 464.543 406.801C474.007 414.561 484.261 421.303 495.137 426.917C518.266 438.99 533.82 457.506 542.93 481.741C544.984 487.234 547.114 492.704 549.155 498.056C552.896 497.726 554.92 495.312 557.375 493.76C569.938 485.787 584.275 481.038 599.115 479.935C618.557 478.365 637.597 480.879 656.42 485.34C669.784 488.509 681.202 483.959 691.982 477.079C697.198 473.727 699.606 468.228 700.03 461.902C700.496 455.069 698.88 448.667 696.425 442.43C694.826 438.364 693.144 434.334 691.256 429.696C703.594 430.174 714.758 432.269 725.225 437.403C744.006 446.62 750.597 461.861 745.635 482.62C743.911 489.46 741.168 496.002 737.498 502.027C735.834 504.836 735.728 507.297 736.944 510.371C738.904 515.184 740.086 520.28 740.443 525.465C741.257 539.231 735.663 547.026 722.186 550.549C716.386 552.065 710.385 552.207 704.485 551.817C700.26 551.54 697.617 552.939 695.387 556.444C692.353 561.127 688.502 565.227 684.016 568.546C675.543 574.936 666.398 575.822 656.874 571.178C651.139 568.387 646.253 564.569 642.625 559.134C637.94 551.989 632.146 545.637 625.46 540.317C611.612 529.43 596.276 526.604 579.436 531.572C572.905 533.49 567.352 537.178 562.03 541.202C552.495 548.407 544.559 557.205 537.455 566.77C531 575.368 525.246 584.47 520.249 593.99C514.348 605.384 506.377 614.943 496.647 623.169C492.965 626.278 489.313 629.418 485.725 632.61C481.282 636.589 478.072 641.757 476.473 647.503C472.49 661.122 472.726 674.611 477.765 687.852C482.303 699.76 490.357 708.605 501.957 714.217C505.155 715.763 508.271 716.365 511.599 715.32C515.824 713.987 520.213 712.907 524.131 710.93C530.716 707.614 532.705 702.398 530.964 695.11C530.034 691.509 528.387 688.134 526.12 685.185C523.022 680.996 523.659 678.99 529.861 678.754C531.348 678.695 532.811 678.553 534.31 678.6C551.303 679.131 562.52 686.047 565.724 705.153C565.989 706.233 566.132 707.34 566.149 708.452C565.854 713.131 567.553 716.713 570.621 720.407C582.316 734.492 576.97 748.27 566.591 756.519C554.79 765.925 541.449 770.451 526.126 766.35C515.723 763.57 505.722 759.723 495.803 755.61C493.844 754.796 492.039 753.061 489.431 754.755C509.168 799.553 542.576 827.717 590.854 836.975C606.136 839.926 621.884 838.568 637.42 837.105C646.66 836.232 655.783 834.91 664.563 831.641C693.422 820.878 708.149 793.576 706.125 763.783C705.453 753.87 701.311 745.272 693.841 738.374C689.775 734.622 685.314 732.869 679.739 733.312C673.041 733.849 666.61 735.56 660.137 737.141C656.544 738.02 652.998 739.094 649.428 740.091C644.997 741.272 641.439 739.914 638.571 736.427C635.969 733.258 635.751 730.526 638.353 727.411C640.713 724.596 643.368 722.029 645.893 719.351C643.185 715.45 639.084 714.547 635.326 713.155C621.165 707.897 619.908 697.919 622.303 685.238C622.947 681.81 625.448 679.45 628.753 678.11C631.835 676.788 635.19 676.223 638.536 676.464C641.852 676.759 645.144 677.284 648.431 677.821C652.059 678.411 655.789 680.01 659.258 679.556C663.111 679.043 663.978 674.245 666.498 671.637C675.018 662.745 688.872 659.836 700.243 664.674C713.755 670.457 721.272 680.553 722.428 695.27C722.703 697.477 722.819 699.702 722.776 701.926C722.155 713.016 722.779 724.142 724.635 735.094C726.93 749.426 726.712 763.901 726.228 778.364C726.079 781.312 726.079 784.266 726.228 787.215C726.346 789.026 727.827 789.657 729.379 788.914C738.549 784.512 746.107 778.015 752.751 770.427C759.613 762.585 765.832 754.159 770.11 744.706C773.65 736.834 779.338 734.816 787.068 735.418C792.308 735.831 797.37 736.834 801.949 739.46C804.834 741.118 807.407 741 810.292 739.46C815.835 736.454 821.752 734.194 827.888 732.739C841.164 729.582 852.079 733.837 859.927 744.812C864.004 750.488 864.777 756.271 861.998 762.573C860.818 765.246 859.408 767.825 858.086 770.468C860.794 774.009 864.901 775.136 868.253 777.349C874.914 781.739 880.366 787.144 883.529 794.543C887.701 804.303 884.361 808.664 873.734 807.2C867.108 806.292 860.865 803.86 854.611 801.536C840.727 796.378 826.672 791.764 812.222 788.412C801.035 785.764 789.571 784.468 778.076 784.553C765.79 784.655 753.738 787.918 743.08 794.03C736.306 797.848 729.556 801.701 722.971 805.831C720.186 807.601 717.732 809.926 715.348 812.234C698.638 828.443 696.425 830.083 678.033 839.294C685.527 842.044 686.294 842.18 692.389 841.613C700.166 840.893 707.73 839.076 715.206 836.94C725.497 833.99 735.699 834.237 745.682 838.415C749.815 840.085 753.605 842.501 756.863 845.543C759.221 847.779 761.104 850.467 762.401 853.446C763.697 856.426 764.38 859.636 764.408 862.885C764.437 866.134 763.811 869.356 762.567 872.358C761.324 875.36 759.488 878.08 757.17 880.357C753.412 884.069 748.91 886.6 744.13 888.671C738.36 891.179 732.542 893.575 726.812 896.165C721.697 898.473 717.094 901.582 713.595 906.055C711.902 908.209 711.235 910.652 712.787 913.272C714.339 915.891 715.849 918.334 717.26 920.942C718.085 922.406 718.518 924.057 718.518 925.737C718.518 927.417 718.085 929.068 717.26 930.531C711.654 941.394 694.796 944.693 685.486 936.703C682.535 934.16 681.084 930.696 680.34 927.067C678.818 919.686 678.93 912.375 681.975 905.235C684.471 899.411 687.728 894.023 691.191 888.784C693.026 885.998 694.997 883.302 696.702 880.434C700.591 873.89 700.024 866.485 694.478 861.139C683.084 850.152 669.472 844.139 653.417 844.451C650.452 844.508 647.495 844.768 644.566 845.23C625.785 848.216 606.885 847.821 587.98 847.437C586.499 847.437 585.03 847.437 583.632 847.437C581.779 849.438 583.26 850.936 584.316 852.288C590.28 859.894 597.753 866.184 606.266 870.763C616.055 876.073 625.572 881.797 633.998 889.179C639.309 893.84 644.247 898.85 647.345 905.359C652.402 915.98 650.885 925.58 642.625 933.847C640.276 936.215 637.667 938.309 634.848 940.09C631.045 942.383 627.128 944.48 623.112 946.375C620.162 947.832 617.028 949.012 613.878 950.358C613.588 954.104 616.013 956.63 617.371 959.486C620.067 965.145 619.253 970.031 615.394 974.934C605.44 987.603 586.948 996.064 567.571 988.128C563.075 986.281 558.72 984.198 555.18 980.906C551.344 977.365 547.409 976.073 542.128 977.182C533.017 979.1 523.683 978.952 514.431 978.404C509.625 978.128 504.862 977.353 500.217 976.091C485.053 971.848 479.282 961.858 482.256 945.661C485.259 944.551 488.044 945.944 490.929 946.392C506.046 948.753 521.122 949.573 536.127 945.436C554.419 940.397 567.441 929.257 575.448 912.115C579.962 902.306 582.624 891.748 583.301 880.971C584.163 869.004 579.625 858.466 572.592 848.989C571.429 847.542 569.962 846.368 568.296 845.549C552.867 837.459 538.204 828.13 523.848 818.294C523.594 818.122 523.122 818.294 522.043 818.294C521.276 822.76 520.727 827.41 519.647 831.93C515.989 847.195 507.079 857.669 491.549 861.835C489.756 862.279 487.937 862.614 486.103 862.838C478.485 863.906 472.066 862.248 468.401 854.742C467.121 852.128 465.398 850.812 462.247 851.491C454.175 853.261 446.829 851.963 440.646 845.95C433.919 839.406 430.166 831.688 430.615 822.17C430.703 820.335 430.939 818.506 431.099 816.765C434.421 815.691 435.034 818.429 436.232 820.028C439.454 824.336 443.189 827.823 448.895 828.03C455.851 828.278 462.047 825.882 467.334 821.539C470.39 819.031 470.768 815.172 470.962 811.378C471.482 801.27 469.676 791.44 467.487 781.662C464.165 766.839 460.023 752.241 455.432 737.761C453.775 732.848 452.959 727.691 453.019 722.507C453.178 716.211 452.919 709.903 452.736 703.625C452.188 684.318 455.218 665.076 461.675 646.872C462.265 645.149 462.696 643.332 463.15 641.768C461.321 639.319 459.02 640.257 456.984 640.34C447.732 640.694 438.498 641.679 429.211 641.048C409.232 639.691 390.669 634.286 374.336 622.242C366.583 616.53 358.617 611.12 351.324 604.764C330.736 586.783 317.989 564.372 313.083 537.532C312.824 536.08 312.594 534.581 312.423 533.142C312.316 532.203 311.909 531.69 311.042 531.814C310.363 531.914 309.343 531.967 309.089 532.404C306.841 536.216 304.669 540.075 302.598 544.005C301.489 546.111 302.256 548.33 302.598 550.496C303.572 557.093 304.634 563.678 305.318 570.304C306.003 576.931 305.908 583.622 304.138 590.172C300.911 601.973 290.266 608.11 278.395 605.06C273.255 603.738 268.777 601.094 264.782 597.79C261.867 595.377 258.935 594.887 255.518 595.961C250.212 597.636 244.718 598.643 239.162 598.958C225.001 599.784 219.195 593.058 222.258 579.132C223.438 573.75 226.577 568.511 226.583 563.2C226.583 558.296 223.184 553.487 222.027 548.448C217.98 530.882 225.279 519.535 242.903 515.811C252.344 513.817 261.867 512.749 271.568 514.908C275.474 515.776 279.699 515.646 283.735 515.375C288.592 515.068 293.187 513.063 296.716 509.71C300.439 506.228 302.091 502.086 301.991 496.846C301.755 483.865 302.581 470.93 303.495 457.978C304.357 445.746 305.796 433.591 308.676 421.719C312.771 404.819 317.237 387.996 323.002 371.562C330.443 350.32 341.382 331.166 356.299 314.29C357.986 312.378 359.461 310.278 360.978 308.23C361.149 308 360.978 307.504 360.895 306.542C352.87 307.587 344.887 308.767 336.868 309.64C313.573 312.189 290.367 312.762 267.243 307.504C254.948 304.651 242.339 303.382 229.722 303.728C224.169 303.905 218.635 304.182 213.2 305.646C207.766 307.109 202.751 309.357 198.892 313.682C197.915 314.797 196.854 315.835 195.717 316.786C185.22 325.466 177.485 335.881 173.396 349.14C170.363 358.97 164.061 366.712 155.057 372.082C149.94 375.119 144.192 376.937 138.259 377.392C129.49 378.124 122.197 375.374 117.282 367.668C116.285 366.104 115.335 364.517 114.391 362.947C113.874 361.966 113.086 361.155 112.12 360.609C111.154 360.064 110.052 359.809 108.945 359.873C104.874 359.873 100.767 359.985 96.7368 359.507C86.7061 358.327 79.6256 353.087 75.8788 343.499C74.0083 338.695 73.9611 334.057 76.7048 329.65C78.8526 326.204 80.8352 322.451 83.6851 319.689C87.9157 315.618 88.9011 311.062 88.1163 305.61C87.7751 303.037 87.6487 300.439 87.7386 297.845C87.9569 288.746 92.6538 282.65 101.416 279.806C107.907 277.7 114.521 277.729 121.212 278.762C134.47 280.804 147.062 285.087 159.471 290.032C163.229 291.531 166.893 293.325 171.1 293.537C178.688 293.927 185.675 292.457 191.864 287.719C190.537 283.73 186.613 283.671 183.816 282.308C163.955 272.643 146.218 260.116 130.93 244.131C119.954 232.554 110.473 219.647 102.708 205.711C100.225 201.165 97.4045 196.812 94.2705 192.688C90.3172 187.661 84.8828 185.607 78.4454 186.988C69.6596 188.906 64.9512 199.185 69.1405 207.198C70.8103 210.396 73.672 212.131 77.0057 212.857C79.5075 213.394 82.1569 213.223 84.7354 213.447C89.4086 213.872 92.2585 216.433 92.996 220.864C93.3478 222.882 93.2617 224.953 92.7435 226.935C92.2253 228.917 91.2871 230.765 89.9927 232.353C83.4607 241.032 73.9363 246.973 63.2694 249.022C55.9115 250.533 49.309 248.792 43.6151 243.824C42.4999 242.85 41.2017 241.977 40.3933 240.779C37.1185 235.946 32.5281 234.465 26.9521 234.819C25.1466 234.937 23.2938 234.324 21.4647 234.064C13.4105 232.884 7.63989 228.482 4.80177 221.023C-1.81856 203.599 -2.19028 186.351 7.46879 169.687C14.8916 156.894 26.421 151.395 40.7533 151.2C50.4832 151.065 59.8295 153.519 69.0755 156.316C72.6158 157.384 76.0322 158.676 79.2597 159.786C82.3221 157.968 80.7939 155.655 80.4753 153.714C77.525 135.746 76.0085 117.72 76.6753 99.4687C77.0028 89.0966 78.4028 78.7862 80.8528 68.7024C86.2274 47.4503 87.5387 25.3741 84.7177 3.6352C84.7216 2.90667 84.8248 2.18208 85.0245 1.48144C86.7946 -0.389084 89.1548 0.0888643 91.3025 0.0888643C102.053 0.0888643 112.804 0.120337 123.555 0.183278C123.911 0.189762 124.258 0.292083 124.561 0.479466C124.864 0.666849 125.111 0.932384 125.276 1.24815C125.441 1.56392 125.517 1.91827 125.498 2.27394C125.479 2.62961 125.364 2.97346 125.165 3.26936C123.826 5.48213 122.369 7.62408 120.976 9.80734C112.344 23.2846 105.841 37.7944 100.242 52.7409C97.4804 60.105 96.8313 67.9235 95.8754 75.6121C93.3441 95.9106 92.9253 116.25 95.9758 136.561C101.05 170.195 115.666 199.179 138.117 224.481C146.513 233.922 155.441 242.773 165.761 250.143C169.679 252.934 173.608 255.714 178.152 257.478C182.075 260.015 182.075 260.015 185.757 260.057C185.432 259.059 184.892 258.145 184.177 257.378C183.461 256.61 182.587 256.008 181.615 255.613Z" fill="var(--fill-0, #D6C7A9)" fill-opacity="0.17"/>
</svg>
