<svg width="28" height="22" viewBox="0 0 28 22" fill="none" xmlns="http://www.w3.org/2000/svg">
<path d="M1.95436 9.77176H13.6805V11.7261H1.95436V9.77176ZM0 4.88586H9.77178V6.84022H0V4.88586Z" fill="#FFE5C2"/>
<path d="M27.2819 10.364L24.3504 3.5237C24.2751 3.34797 24.1498 3.19819 23.9902 3.09293C23.8306 2.98767 23.6436 2.93156 23.4524 2.93153H20.5208V0.977178C20.5208 0.718014 20.4179 0.469466 20.2346 0.286209C20.0514 0.102953 19.8028 0 19.5437 0H3.90881V1.95436H18.5665V14.2238C18.1215 14.4827 17.732 14.827 17.4204 15.2368C17.1089 15.6466 16.8813 16.114 16.7509 16.612H10.6103C10.3725 15.6909 9.80684 14.8881 9.01945 14.3542C8.23206 13.8202 7.27696 13.5918 6.33319 13.7116C5.38942 13.8315 4.52176 14.2915 3.89286 15.0053C3.26396 15.7192 2.91699 16.6379 2.91699 17.5892C2.91699 18.5406 3.26396 19.4593 3.89286 20.1731C4.52176 20.8869 5.38942 21.3469 6.33319 21.4668C7.27696 21.5866 8.23206 21.3582 9.01945 20.8243C9.80684 20.2903 10.3725 19.4875 10.6103 18.5664H16.7509C16.9635 19.405 17.4496 20.1489 18.1324 20.6802C18.8152 21.2115 19.6557 21.5 20.5208 21.5C21.386 21.5 22.2265 21.2115 22.9093 20.6802C23.5921 20.1489 24.0782 19.405 24.2908 18.5664H26.3839C26.6431 18.5664 26.8916 18.4634 27.0749 18.2802C27.2581 18.0969 27.3611 17.8484 27.3611 17.5892V10.749C27.3611 10.6166 27.3341 10.4856 27.2819 10.364ZM6.84035 19.5436C6.45381 19.5436 6.07596 19.4289 5.75456 19.2142C5.43317 18.9994 5.18268 18.6942 5.03476 18.3371C4.88684 17.98 4.84813 17.587 4.92354 17.2079C4.99895 16.8288 5.18509 16.4806 5.45841 16.2073C5.73173 15.9339 6.07996 15.7478 6.45907 15.6724C6.83818 15.597 7.23113 15.6357 7.58825 15.7836C7.94536 15.9315 8.25059 16.182 8.46533 16.5034C8.68008 16.8248 8.7947 17.2027 8.7947 17.5892C8.7947 18.1075 8.5888 18.6046 8.22228 18.9711C7.85577 19.3377 7.35867 19.5436 6.84035 19.5436ZM20.5208 4.88589H22.8074L24.9025 9.77178H20.5208V4.88589ZM20.5208 19.5436C20.1343 19.5436 19.7565 19.4289 19.4351 19.2142C19.1137 18.9994 18.8632 18.6942 18.7153 18.3371C18.5673 17.98 18.5286 17.587 18.604 17.2079C18.6794 16.8288 18.8656 16.4806 19.1389 16.2073C19.4122 15.9339 19.7605 15.7478 20.1396 15.6724C20.5187 15.597 20.9116 15.6357 21.2687 15.7836C21.6259 15.9315 21.9311 16.182 22.1458 16.5034C22.3606 16.8248 22.4752 17.2027 22.4752 17.5892C22.4752 18.1075 22.2693 18.6046 21.9028 18.9711C21.5363 19.3377 21.0392 19.5436 20.5208 19.5436ZM25.4067 16.612H24.2908C24.0755 15.775 23.5886 15.0331 22.9064 14.5026C22.2241 13.972 21.3851 13.6829 20.5208 13.6805V11.7261H25.4067V16.612Z" fill="#FFE5C2"/>
</svg>
