<svg width="30" height="22" viewBox="0 0 30 22" fill="none" xmlns="http://www.w3.org/2000/svg">
<path d="M1.875 3.24381C3.53437 2.62262 5.91375 1.95275 8.2275 1.74457C10.7213 1.5196 12.8363 1.85034 14.0625 3.00709V19.3694C12.3094 18.4796 10.0875 18.3571 8.03813 18.5417C5.82563 18.7432 3.59437 19.3157 1.875 19.9033V3.24381ZM15.9375 3.00709C17.1637 1.85034 19.2788 1.5196 21.7725 1.74457C24.0863 1.95275 26.4656 2.62262 28.125 3.24381V19.9033C26.4038 19.3157 24.1744 18.7415 21.9619 18.5434C19.9106 18.3571 17.6906 18.4779 15.9375 19.3694V3.00709ZM15 1.48938C13.1531 0.0673714 10.4756 -0.144167 8.03813 0.0740869C5.19938 0.330955 2.33438 1.20229 0.549375 1.92925C0.385592 1.99595 0.246704 2.10344 0.149289 2.23889C0.051875 2.37434 4.98214e-05 2.53203 0 2.69314L0 21.1608C4.34287e-05 21.3012 0.0394446 21.4394 0.114595 21.5627C0.189744 21.686 0.298241 21.7904 0.430145 21.8665C0.56205 21.9425 0.713146 21.9876 0.869594 21.9978C1.02604 22.008 1.18284 21.9828 1.32563 21.9247C2.97938 21.2531 5.64375 20.4456 8.22563 20.2122C10.8675 19.9738 13.0819 20.3583 14.2688 21.6846C14.3566 21.7826 14.4679 21.8618 14.5945 21.9161C14.721 21.9705 14.8596 21.9987 15 21.9987C15.1404 21.9987 15.279 21.9705 15.4055 21.9161C15.5321 21.8618 15.6434 21.7826 15.7313 21.6846C16.9181 20.3583 19.1325 19.9738 21.7725 20.2122C24.3563 20.4456 27.0225 21.2531 28.6744 21.9247C28.8172 21.9828 28.974 22.008 29.1304 21.9978C29.2869 21.9876 29.4379 21.9425 29.5699 21.8665C29.7018 21.7904 29.8103 21.686 29.8854 21.5627C29.9606 21.4394 30 21.3012 30 21.1608V2.69314C30 2.53203 29.9481 2.37434 29.8507 2.23889C29.7533 2.10344 29.6144 1.99595 29.4506 1.92925C27.6656 1.20229 24.8006 0.330955 21.9619 0.0740869C19.5244 -0.145846 16.8469 0.0673714 15 1.48938Z" fill="#A4B89E"/>
</svg>
