<svg preserveAspectRatio="none" width="100%" height="100%" overflow="visible" style="display: block;" viewBox="0 0 46.6426 44.7727" fill="none" xmlns="http://www.w3.org/2000/svg">
<path id="Vector" d="M0.0392149 22.9216C-0.159415 19.4626 0.39823 16.0019 1.67331 12.7806C2.9484 9.55921 4.91028 6.6546 7.42227 4.26907C9.93528 1.87683 12.5003 -3.06367 16.8504 2.6569C17.9942 4.16505 20.074 2.6569 21.6858 2.3102C30.6459 0.108652 37.5784 3.43698 42.6217 10.631C45.0621 13.8778 46.4585 17.7898 46.6256 21.8485C46.7927 25.9071 45.7228 29.9207 43.5576 33.3573C41.3393 36.9179 38.1093 39.7356 34.2808 41.4495C30.4524 43.1635 26.1997 43.6957 22.0671 42.9782C20.4379 42.7008 18.6008 41.106 17.2317 42.4928C12.3096 47.5373 9.53669 43.0475 6.6944 40.1699C2.35827 35.4796 -0.02247 29.3095 0.0392149 22.9216Z" fill="var(--fill-0, #FFE5C2)"/>
</svg>
