<svg preserveAspectRatio="none" width="100%" height="100%" overflow="visible" style="display: block;" viewBox="0 0 108.607 312.379" fill="none" xmlns="http://www.w3.org/2000/svg">
<path id="Vector" d="M108.607 167.535C108.147 197.387 104.074 227.072 96.4751 255.944C92.593 270.176 87.2896 283.801 78.8147 296.022C76.4009 299.616 73.5417 302.89 70.3052 305.765C59.5773 315.022 46.4057 314.553 36.1803 304.412C28.9013 297.201 24.0486 288.343 20.0277 279.051C10.1664 256.1 5.29632 231.883 2.69666 207.18C1.55281 196.277 0.512973 185.338 0.235676 174.4C-0.942838 130.109 1.96872 86.251 16.5268 43.9362C19.7911 33.7703 24.5517 24.1477 30.6517 15.3854C45.4351 -4.98328 62.5409 -5.17396 77.4456 15.0907C88.2082 29.7561 93.7368 46.7965 97.8789 64.1835C105.47 95.924 108.555 125.463 108.607 167.535Z" fill="var(--fill-0, #FFE5C2)"/>
</svg>
