<svg preserveAspectRatio="none" width="100%" height="100%" overflow="visible" style="display: block;" viewBox="0 0 43.4081 48.1237" fill="none" xmlns="http://www.w3.org/2000/svg">
<path id="Vector" d="M20.6453 48.1237C14.4927 47.5343 7.95887 45.6968 3.15817 40.0629C1.02644 37.5667 -2.26646 35.0878 2.29161 31.6554C4.12871 30.286 2.29164 28.5178 1.89303 27.0097C0.687002 22.871 0.763534 18.4638 2.11252 14.3695C3.46152 10.2752 6.01957 6.686 9.44936 4.07539C12.7896 1.54184 16.8397 0.119091 21.0302 0.00715177C25.2207 -0.104787 29.341 1.09973 32.8116 3.45135C36.3847 5.87594 39.1367 9.32942 40.7028 13.354C42.269 17.3786 42.5752 21.7842 41.5811 25.9869C40.9919 28.5178 39.848 30.4767 42.465 32.9209C44.6834 34.8971 42.465 37.168 41.1479 38.9362C37.4563 44.0327 28.5656 48.1237 20.6453 48.1237Z" fill="var(--fill-0, #FFE5C2)"/>
</svg>
