<svg preserveAspectRatio="none" width="100%" height="100%" overflow="visible" style="display: block;" viewBox="0 0 73.9455 74.8392" fill="none" xmlns="http://www.w3.org/2000/svg">
<g id="Group 1000002379">
<path id="Vector" d="M73.9272 38.7288C73.8134 43.5834 72.7448 48.368 70.7823 52.8095C68.8198 57.251 66.0019 61.2624 62.4895 64.6146C58.9772 67.9668 54.839 70.5942 50.3114 72.3468C45.7839 74.0994 40.9556 74.9429 36.1022 74.8291C31.2487 74.7152 26.4651 73.6463 22.0247 71.6834C17.5842 69.7205 13.5738 66.902 10.2223 63.3888C6.87087 59.8756 4.24397 55.7366 2.49177 51.208C0.739565 46.6794 -0.103639 41.8499 0.0101589 36.9953C0.460767 16.1933 17.8092 -0.656408 37.8439 0.0196583C47.7481 0.403697 57.0988 4.68828 63.8579 11.9393C70.6171 19.1903 74.2365 28.8198 73.9272 38.7288Z" fill="var(--fill-0, #FFE5C2)"/>
</g>
</svg>
