<svg preserveAspectRatio="none" width="100%" height="100%" overflow="visible" style="display: block;" viewBox="0 0 43.1608 48.1341" fill="none" xmlns="http://www.w3.org/2000/svg">
<path id="Vector" d="M20.8727 48.1201C17.2745 47.9122 13.7609 46.946 10.5621 45.285C7.36334 43.624 4.55152 41.3056 2.31103 38.4818C0.577926 36.3496 -1.81379 33.9574 2.17236 31.3918C4.66803 29.8143 2.57097 27.9248 2.17236 26.07C1.49074 23.2705 1.38918 20.3611 1.87395 17.5208C2.35872 14.6806 3.41962 11.9697 4.9912 9.55495C6.56277 7.14021 8.6118 5.07275 11.0122 3.47986C13.4126 1.88696 16.1136 0.802335 18.9488 0.292754C30.2314 -1.73545 41.2366 7.01875 42.6058 18.9973C42.6905 21.5871 42.4222 24.1765 41.8085 26.694C41.6525 27.7861 40.3007 29.3289 40.63 29.7797C42.9177 32.6746 44.5642 35.3789 41.4273 38.7592C38.0732 42.7458 33.599 45.6327 28.5849 47.0454C26.096 47.8486 23.4863 48.2123 20.8727 48.1201Z" fill="var(--fill-0, #FFE5C2)"/>
</svg>
