<svg preserveAspectRatio="none" width="100%" height="100%" overflow="visible" style="display: block;" viewBox="0 0 46.0964 45.4519" fill="none" xmlns="http://www.w3.org/2000/svg">
<path id="Vector" d="M46.0877 23.9441C46.0522 26.6906 45.4412 29.3991 44.2941 31.8947C43.1471 34.3903 41.4894 36.6175 39.4282 38.4325C37.3671 40.2474 34.9482 41.6098 32.3279 42.4316C29.7076 43.2533 26.9441 43.5162 24.2158 43.2033C20.9576 42.8739 17.8207 40.8284 14.9437 44.6247C13.4532 46.5663 11.2175 44.6247 9.60575 43.5326C-3.20192 34.4837 -3.20192 11.0988 9.60575 1.92854C10.9402 0.975118 13.072 -0.983722 14.0425 0.593766C17.0581 5.29156 20.611 2.32727 24.0079 1.9979C36.4863 0.801782 46.4343 10.6828 46.0877 23.9441Z" fill="var(--fill-0, #FFE5C2)"/>
</svg>
