<svg preserveAspectRatio="none" width="100%" height="100%" overflow="visible" style="display: block;" viewBox="0 0 43.6273 48.4188" fill="none" xmlns="http://www.w3.org/2000/svg">
<path id="Vector" d="M21.0535 48.4177C13.3239 47.4123 6.89407 44.552 2.14535 38.5888C1.10549 37.2886 -0.662327 34.775 0.25622 34.1163C5.35156 30.5453 1.62536 26.4889 1.43472 22.6405C0.966782 13.6436 5.16094 7.03899 12.6306 2.6879C20.1003 -1.6632 27.258 -0.415077 33.7918 4.16137C37.08 6.30134 39.6589 9.36964 41.2016 12.9773C42.7443 16.585 43.1814 20.5696 42.4574 24.426C41.9548 27.685 40.3084 30.5973 43.1853 33.8389C44.4678 35.2951 42.6827 37.6353 41.3483 39.1955C38.8413 42.1185 35.726 44.4583 32.2204 46.0513C28.7149 47.6443 24.9037 48.4519 21.0535 48.4177Z" fill="var(--fill-0, #FFE5C2)"/>
</svg>
