<svg preserveAspectRatio="none" width="100%" height="100%" overflow="visible" style="display: block;" viewBox="0 0 43.5047 48.0779" fill="none" xmlns="http://www.w3.org/2000/svg">
<path id="Vector" d="M21.1601 48.0779C14.5743 47.4365 8.31771 45.4257 3.69031 40.2078C1.54126 37.7982 -2.82613 35.25 2.65049 31.419C4.92086 29.8068 2.14786 27.8133 1.74924 26.0624C0.754855 22.4293 0.789007 18.5912 1.84783 14.9763C2.90665 11.3615 4.94855 8.11179 7.74583 5.58974C13.6037 -0.00947863 20.8308 -1.34428 28.5431 1.32532C37.9712 4.4803 43.6558 15.02 41.7147 25.5944C41.3854 27.3279 39.0457 29.3041 41.1948 31.0896C45.8049 34.938 42.5119 37.7289 39.9643 40.3118C34.9639 45.2774 28.2063 48.0682 21.1601 48.0779Z" fill="var(--fill-0, #FFE5C2)"/>
</svg>
