<svg preserveAspectRatio="none" width="100%" height="100%" overflow="visible" style="display: block;" viewBox="0 0 46.9543 46.6386" fill="none" xmlns="http://www.w3.org/2000/svg">
<path id="Vector" d="M0.0181983 20.2061C-0.149642 16.0184 0.846158 11.8662 2.89511 8.21033C4.21227 5.62741 5.65077 2.83643 9.41161 5.298C12.3579 7.23953 13.3111 3.96325 15.0269 2.90581C19.3938 0.325756 24.5497 -0.578119 29.5335 0.362743C34.5173 1.30361 38.9891 4.02498 42.1154 8.01962C48.8051 16.5138 48.5279 27.2962 41.4741 34.7329C39.6352 36.548 37.5096 38.0474 35.1829 39.1707C31.1621 41.2509 25.7895 40.2628 23.0512 45.654C22.0286 47.6475 18.3371 46.174 15.8934 45.0819C11.0473 43.0213 6.93779 39.5427 4.1045 35.103C1.27121 30.6634 -0.153282 25.4704 0.0181983 20.2061Z" fill="var(--fill-0, #FFE5C2)"/>
</svg>
