<svg preserveAspectRatio="none" width="100%" height="100%" overflow="visible" style="display: block;" viewBox="0 0 46.9591 44.6461" fill="none" xmlns="http://www.w3.org/2000/svg">
<path id="Vector" d="M46.9591 22.4723C46.4738 30.3424 43.9262 37.467 37.3577 42.7022C36.0232 43.777 33.8915 45.5105 32.8343 44.141C29.3681 39.6686 25.5899 42.7022 21.9677 42.9276C18.048 43.346 14.095 42.5388 10.6529 40.6172C7.21083 38.6955 4.44895 35.7538 2.7475 32.1972C-1.08267 24.9165 -1.16933 17.1157 4.15131 10.199C9.24665 3.5597 15.7805 0.0927188 24.498 2.05158C26.2311 2.45028 28.3975 4.47847 30.1133 2.4676C34.4461 -2.64623 37.0457 1.32349 39.836 4.20111C44.6021 9.17626 46.5778 15.4342 46.9591 22.4723Z" fill="var(--fill-0, #FFE5C2)"/>
</svg>
