<svg preserveAspectRatio="none" width="100%" height="100%" overflow="visible" style="display: block;" viewBox="0 0 246.987 240.901" fill="none" xmlns="http://www.w3.org/2000/svg">
<g id="Group 1000002376">
<path id="Vector" d="M160.378 119.686C160.514 129.456 156.795 138.887 150.028 145.934C143.262 152.982 133.991 157.079 124.225 157.338C103.74 157.65 86.097 140.783 85.9064 120.622C85.8439 110.7 89.6728 101.149 96.5713 94.019C103.47 86.8889 112.888 82.748 122.804 82.4851C127.715 82.4531 132.585 83.3907 137.133 85.2442C141.681 87.0977 145.819 89.8307 149.309 93.2865C152.8 96.7423 155.574 100.853 157.474 105.383C159.373 109.913 160.36 114.774 160.378 119.686Z" fill="var(--fill-0, #FFE5C2)"/>
<g id="Group 1000002372">
<path id="Ellipse 206" d="M69.7699 205.622C55.024 196.848 42.8088 184.395 34.3197 169.483C25.8306 154.571 21.3585 137.711 21.3411 120.552C21.3236 103.393 25.7613 86.5231 34.22 71.5938C42.6787 56.6646 54.8685 44.1871 69.5964 35.3826L91.8693 72.6404C83.5919 77.5887 76.7409 84.6013 71.9869 92.9919C67.2329 101.383 64.7388 110.864 64.7486 120.507C64.7585 130.151 67.2719 139.627 72.043 148.008C76.814 156.389 83.6793 163.388 91.9668 168.319L69.7699 205.622Z" fill="var(--fill-0, #FFE5C2)"/>
<path id="Ellipse 207" d="M177.217 205.622C191.963 196.848 204.178 184.395 212.667 169.483C221.156 154.571 225.628 137.711 225.646 120.552C225.663 103.393 221.225 86.5231 212.767 71.5938C204.308 56.6646 192.118 44.1871 177.39 35.3826L155.117 72.6404C163.395 77.5887 170.246 84.6013 175 92.9919C179.754 101.383 182.248 110.864 182.238 120.507C182.228 130.151 179.715 139.627 174.944 148.008C170.173 156.389 163.308 163.388 155.02 168.319L177.217 205.622Z" fill="var(--fill-0, #FFE5C2)"/>
</g>
</g>
</svg>
