<svg preserveAspectRatio="none" width="100%" height="100%" overflow="visible" style="display: block;" viewBox="0 0 43.0599 48.1763" fill="none" xmlns="http://www.w3.org/2000/svg">
<path id="Vector" d="M21.7698 48.1763C13.9189 47.3442 6.69171 45.0733 1.75235 38.1739C0.92046 37.0298 -0.65661 35.1576 0.2966 34.4469C5.49592 30.5292 0.677846 26.4901 0.799163 22.5724C1.0418 14.3383 3.81477 7.40424 11.1978 2.98381C14.378 0.950092 18.0932 -0.0869504 21.8666 0.00570925C25.6401 0.0983689 29.2999 1.31651 32.3764 3.50386C39.4822 8.08031 42.4804 14.997 41.8218 23.4565C41.5618 26.9235 38.7196 30.2171 42.5671 33.8575C44.0576 35.2443 41.8392 38.1046 40.2621 39.8034C35.34 45.0733 29.0835 47.4135 21.7698 48.1763Z" fill="var(--fill-0, #FFE5C2)"/>
</svg>
