<svg preserveAspectRatio="none" width="100%" height="100%" overflow="visible" style="display: block;" viewBox="0 0 46.8572 47.0294" fill="none" xmlns="http://www.w3.org/2000/svg">
<path id="Vector" d="M46.8433 27.2425C46.9681 30.6976 46.2482 34.131 44.7462 37.2448C43.897 38.753 42.7358 41.2665 41.5053 40.9198C35.2315 39.1863 31.7479 44.5082 26.8779 46.1204C21.8197 47.6672 16.3623 47.2282 11.6163 44.8926C6.87024 42.5571 3.19218 38.5006 1.33061 33.5485C-0.530957 28.5964 -0.436163 23.121 1.5957 18.2363C3.62756 13.3517 7.44375 9.42497 12.2678 7.2552C15.994 5.52169 20.3788 5.52169 23.1171 1.23993C24.7289 -1.32565 28.5937 0.737218 31.1587 1.67331C40.3268 4.9323 46.9473 15.9921 46.8433 27.2425Z" fill="var(--fill-0, #FFE5C2)"/>
</svg>
