<svg preserveAspectRatio="none" width="100%" height="100%" overflow="visible" style="display: block;" viewBox="0 0 120.174 80.0532" fill="none" xmlns="http://www.w3.org/2000/svg">
<path id="Vector" d="M59.5671 80.0532C42.236 80.0532 24.9048 80.0532 7.57373 80.0532C0.190688 80.0532 0.0693243 80.0532 0.0519932 73.1192C-0.0173311 50.9072 -0.0173311 28.6953 0.0519932 6.48329C0.0519932 0.0693231 0.207973 0 6.98443 0C42.2012 0 77.4065 0 112.6 0C120.035 0 120.104 0.104005 120.122 7.71409C120.191 29.3598 120.191 50.9997 120.122 72.6338C120.122 79.9319 120.122 79.9839 112.323 80.0012C94.7317 80.0012 77.1234 80.0012 59.5324 80.0012L59.5671 80.0532Z" fill="var(--fill-0, #FFE5C2)"/>
</svg>
