<svg preserveAspectRatio="none" width="100%" height="100%" overflow="visible" style="display: block;" viewBox="0 0 46.8319 46.3665" fill="none" xmlns="http://www.w3.org/2000/svg">
<path id="Vector" d="M0.0329884 25.5454C0.0523647 21.2165 1.11852 16.9564 3.1405 13.1289C5.16248 9.30135 8.08028 6.01993 11.6448 3.56463C14.2131 1.72976 17.1854 0.540565 20.3104 0.0976203C24.1232 -0.526441 25.163 1.93514 26.2722 4.81275C26.8441 6.28623 28.8198 5.57549 30.1717 5.78351C39.3398 7.17031 44.0366 13.2202 46.3589 21.5757C47.2283 25.5449 46.894 29.6832 45.399 33.4613C43.9039 37.2393 41.316 40.4854 37.9663 42.7842C34.6166 45.083 30.6574 46.33 26.5952 46.3657C22.533 46.4014 18.5525 45.2241 15.163 42.9845C12.858 41.5457 11.1595 38.8761 7.60666 40.7656C5.35362 41.9617 3.96715 39.7428 2.96195 38.0093C0.815225 34.2199 -0.201194 29.8946 0.0329884 25.5454Z" fill="var(--fill-0, #FFE5C2)"/>
</svg>
