<svg preserveAspectRatio="none" width="100%" height="100%" overflow="visible" style="display: block;" viewBox="0 0 240.901 246.991" fill="none" xmlns="http://www.w3.org/2000/svg">
<g id="Group 1000002373">
<path id="Ellipse 206" d="M35.2792 69.7699C44.0537 55.024 56.5062 42.8088 71.4182 34.3197C86.3302 25.8306 103.191 21.3585 120.35 21.3411C137.509 21.3236 154.378 25.7613 169.308 34.22C184.237 42.6787 196.714 54.8685 205.519 69.5964L168.261 91.8693C163.313 83.5919 156.3 76.7409 147.91 71.9869C139.519 67.2329 130.038 64.7388 120.394 64.7486C110.75 64.7585 101.274 67.2719 92.8932 72.043C84.5123 76.814 77.5137 83.6793 72.5822 91.9668L35.2792 69.7699Z" fill="var(--fill-0, #FFE5C2)"/>
<path id="Ellipse 207" d="M35.2792 177.221C44.0537 191.967 56.5062 204.182 71.4182 212.671C86.3302 221.16 103.191 225.632 120.35 225.65C137.509 225.667 154.378 221.229 169.308 212.771C184.237 204.312 196.714 192.122 205.519 177.394L168.261 155.121C163.313 163.399 156.3 170.25 147.91 175.004C139.519 179.758 130.038 182.252 120.394 182.242C110.75 182.232 101.274 179.719 92.8932 174.948C84.5123 170.177 77.5137 163.311 72.5822 155.024L35.2792 177.221Z" fill="var(--fill-0, #FFE5C2)"/>
</g>
</svg>
