<svg preserveAspectRatio="none" width="100%" height="100%" overflow="visible" style="display: block;" viewBox="0 0 47.1014 45.2437" fill="none" xmlns="http://www.w3.org/2000/svg">
<path id="Vector" d="M47.1014 22.1672C46.6855 30.9907 44.0165 38.0287 37.5173 43.2639C36.1828 44.3387 33.8778 46.1069 33.0632 44.7548C30.1343 39.9876 26.7201 43.0213 23.3579 43.4026C19.3168 43.9613 15.2018 43.2629 11.5712 41.4022C7.94055 39.5415 4.97018 36.6087 3.06313 33.0016C0.869156 29.566 -0.192142 25.5285 0.0286022 21.4578C0.249346 17.3871 1.74105 13.4882 4.29367 10.31C6.47912 7.05485 9.62616 4.56348 13.2955 3.18365C16.9649 1.80382 20.9735 1.60442 24.7617 2.61328C26.4948 3.01199 28.7132 4.9535 30.2729 2.78662C34.3804 -2.88194 37.2054 1.43449 39.857 4.01742C45.1603 9.14859 46.7375 15.8746 47.1014 22.1672Z" fill="var(--fill-0, #FFE5C2)"/>
</svg>
