<svg preserveAspectRatio="none" width="100%" height="100%" overflow="visible" style="display: block;" viewBox="0 0 47.0083 46.7199" fill="none" xmlns="http://www.w3.org/2000/svg">
<path id="Vector" d="M46.9784 20.7046C46.9784 32.8392 39.6994 43.1016 29.318 45.9445C26.5451 46.7073 23.6161 47.938 22.3856 43.7256C21.5537 40.9693 19.11 42.1654 17.3076 41.8014C7.63687 39.8772 1.38036 33.3419 0.0978605 23.877C-0.309217 19.563 0.559489 15.2244 2.59608 11.3999C4.63267 7.57543 7.74741 4.43351 11.5537 2.3642C18.9714 -1.60552 25.9211 -0.270723 32.6456 4.09771C33.8934 4.91245 34.656 7.56471 36.6664 5.98722C42.4203 1.68813 43.5989 6.6113 45.0373 10.1823C46.4973 13.49 47.1621 17.0937 46.9784 20.7046Z" fill="var(--fill-0, #FFE5C2)"/>
</svg>
