<svg preserveAspectRatio="none" width="100%" height="100%" overflow="visible" style="display: block;" viewBox="0 0 80.6325 120.272" fill="none" xmlns="http://www.w3.org/2000/svg">
<path id="Vector" d="M0.190617 60.483C0.190617 42.3159 0.294603 24.0795 0.190617 5.99903C0.190617 1.69994 1.12655 -0.0508822 5.87526 0.00112289C28.6656 0.226478 51.456 0.00108269 74.2463 0.122428C80.4682 0.122428 80.5895 0.261108 80.6242 7.05644C80.6242 32.146 80.6242 57.2298 80.6242 82.3079C80.6242 92.9862 80.3122 103.665 80.6242 114.326C80.7975 119.734 78.2671 120.289 73.8477 120.272C51.6466 120.15 29.4455 120.272 7.22708 120.272C0.0866789 120.272 0.0173311 120.272 0 113.338C0 95.7598 0 78.1648 0 60.5697L0.190617 60.483Z" fill="var(--fill-0, #FFE5C2)"/>
</svg>
