<svg preserveAspectRatio="none" width="100%" height="100%" overflow="visible" style="display: block;" viewBox="0 0 47.501 44.7826" fill="none" xmlns="http://www.w3.org/2000/svg">
<path id="Vector" d="M47.4986 22.2157C47.5458 25.733 46.8893 29.2242 45.5678 32.484C44.2463 35.7439 42.2865 38.7065 39.8036 41.1976C37.2039 43.7458 34.4829 47.0568 30.5488 42.567C28.9196 40.6775 26.7879 42.099 24.8815 42.567C20.9434 43.5942 16.7801 43.334 13.0005 41.8243C9.22095 40.3146 6.02356 37.6348 3.87619 34.1769C1.53222 31.0243 0.188323 27.2407 0.0183778 23.3156C-0.151567 19.3905 0.860285 15.5048 2.92301 12.1614C7.35976 4.23928 14.5348 1.36164 23.287 1.89903C26.4413 2.08971 29.4915 4.53398 32.5938 0.685605C34.1189 -1.20391 36.8573 1.25763 38.5557 2.71377C44.6389 7.82761 47.0827 14.7096 47.4986 22.2157Z" fill="var(--fill-0, #FFE5C2)"/>
</svg>
