<svg preserveAspectRatio="none" width="100%" height="100%" overflow="visible" style="display: block;" viewBox="0 0 46.8978 44.2636" fill="none" xmlns="http://www.w3.org/2000/svg">
<path id="Vector" d="M25.7155 43.252C21.8507 44.4134 16.946 39.2823 12.6479 44.2227C12.4053 44.5001 10.1175 43.304 9.00835 42.4892C-4.16327 32.8163 -2.58612 8.82461 11.7467 1.12786C12.9079 0.503795 14.485 -0.831021 15.5422 0.729132C18.4192 4.95888 22.3013 2.46264 25.7329 2.46264C28.4637 2.33611 31.1918 2.76463 33.7524 3.72229C36.313 4.67996 38.6528 6.14691 40.6307 8.0345C42.6086 9.92208 44.1833 12.1911 45.2599 14.7046C46.3364 17.218 46.8924 19.9236 46.8942 22.6579C47.1022 34.5845 38.4366 43.2346 25.7155 43.252Z" fill="var(--fill-0, #FFE5C2)"/>
</svg>
