<svg preserveAspectRatio="none" width="100%" height="100%" overflow="visible" style="display: block;" viewBox="0 0 46.1329 45.0958" fill="none" xmlns="http://www.w3.org/2000/svg">
<path id="Vector" d="M0.00253117 25.9988C0.00253117 14.8177 2.42887 7.67565 8.87604 2.30179C10.1759 1.20968 12.4636 -0.714505 13.2608 0.273592C17.2469 5.21408 21.701 1.52172 25.8778 1.46971C37.247 1.29636 46.5191 11.4374 46.1205 23.7799C46.0339 26.5237 45.3851 29.2204 44.2143 31.7032C43.0435 34.186 41.3756 36.402 39.3139 38.2139C37.2522 40.0259 34.8405 41.3951 32.2283 42.237C29.6161 43.079 26.8588 43.3756 24.1274 43.1085C20.6611 42.7444 17.195 39.7801 14.0927 44.3566C12.8102 46.2114 10.3839 44.1486 8.89338 42.8311C3.00082 37.5092 -0.101455 30.9393 0.00253117 25.9988Z" fill="var(--fill-0, #FFE5C2)"/>
</svg>
