<svg preserveAspectRatio="none" width="100%" height="100%" overflow="visible" style="display: block;" viewBox="0 0 47.3497 45.1805" fill="none" xmlns="http://www.w3.org/2000/svg">
<path id="Vector" d="M47.3029 24.0861C47.5021 27.2373 47.0646 30.3963 46.0165 33.3746C44.9683 36.353 43.331 39.0896 41.2023 41.4211C39.0359 43.848 36.7309 47.4711 33.0394 42.8253C31.4969 40.8837 30.0064 42.8253 28.5506 43.4494C19.7638 47.0724 11.9821 44.8362 5.76019 38.3529C-0.461664 31.8696 -1.46683 24.2075 1.8954 16.008C5.25763 7.80852 12.4327 3.31874 21.5315 3.30141C24.4778 3.30141 27.5627 4.77488 29.8331 1.04785C31.2369 -1.24038 33.5246 0.805157 35.1537 1.67191C42.3635 5.52029 47.2162 14.6558 47.3029 24.0861Z" fill="var(--fill-0, #FFE5C2)"/>
</svg>
