<svg preserveAspectRatio="none" width="100%" height="100%" overflow="visible" style="display: block;" viewBox="0 0 43.7986 46.9301" fill="none" xmlns="http://www.w3.org/2000/svg">
<path id="Vector" d="M22.7072 0.0132982C25.6594 0.0478281 28.5671 0.737916 31.22 2.03372C33.8729 3.32952 36.2048 5.19866 38.0473 7.50604C39.8898 9.81342 41.1968 12.5014 41.8738 15.3757C42.5508 18.25 42.5809 21.2389 41.962 24.1263C41.4594 26.8306 39.345 29.6215 43.0539 32.1871C44.631 33.2966 43.4007 35.8101 42.1528 37.613C33.4873 50.2155 10.0728 50.0075 1.66725 37.1449C0.280766 35.0127 -1.41755 32.8979 2.014 30.6963C4.47501 29.1188 2.01387 27.1253 1.66725 25.3398C0.973728 22.2364 1.00083 19.0152 1.74638 15.9239C2.49193 12.8326 3.93621 9.95335 5.96808 7.50752C7.99994 5.0617 10.5654 3.11438 13.4673 1.8152C16.3691 0.516034 19.53 -0.100384 22.7072 0.0132982Z" fill="var(--fill-0, #FFE5C2)"/>
</svg>
