<svg preserveAspectRatio="none" width="100%" height="100%" overflow="visible" style="display: block;" viewBox="0 0 43.958 47.0205" fill="none" xmlns="http://www.w3.org/2000/svg">
<path id="Vector" d="M42.4242 20.291C43.0655 24.6768 38.282 29.5132 43.6547 33.587C44.5039 34.211 43.36 35.6498 42.7881 36.6553C35.0411 50.3153 9.85915 50.5233 1.40158 36.9846C0.639012 35.7192 -0.556858 33.899 0.292365 33.0843C4.29584 29.2706 1.43618 25.1968 1.22821 21.2098C1.05704 18.4791 1.44922 15.7425 2.38026 13.1699C3.3113 10.5973 4.7614 8.24369 6.64036 6.25537C8.51932 4.26705 10.7871 2.68649 13.3026 1.61192C15.8182 0.537356 18.5277 -0.00823989 21.263 0.00900694C23.9897 -0.0717468 26.7051 0.39118 29.2512 1.37082C31.7972 2.35046 34.1228 3.8272 36.0924 5.71497C38.062 7.60275 39.6362 9.8638 40.7233 12.3663C41.8104 14.8688 42.3886 17.5627 42.4242 20.291Z" fill="var(--fill-0, #FFE5C2)"/>
</svg>
