<svg preserveAspectRatio="none" width="100%" height="100%" overflow="visible" style="display: block;" viewBox="0 0 246.991 240.901" fill="none" xmlns="http://www.w3.org/2000/svg">
<g id="Group 1000002375">
<path id="Vector" d="M86.0542 120.537C86.1408 99.6483 102.831 82.2612 122.831 82.2265C143.368 82.2265 160.387 99.5616 160.405 120.676C160.405 140.542 143.299 157.322 123.125 157.235C102.952 157.149 85.9848 140.542 86.0542 120.537Z" fill="var(--fill-0, #FFE5C2)"/>
<g id="Group 1000002371">
<path id="Ellipse 206" d="M69.7699 205.622C55.024 196.848 42.8088 184.395 34.3197 169.483C25.8306 154.571 21.3585 137.711 21.3411 120.552C21.3236 103.393 25.7613 86.5231 34.22 71.5938C42.6787 56.6646 54.8685 44.1871 69.5964 35.3826L91.8693 72.6404C83.5919 77.5887 76.7409 84.6013 71.9869 92.9919C67.2329 101.383 64.7388 110.864 64.7486 120.507C64.7585 130.151 67.2719 139.627 72.043 148.008C76.814 156.389 83.6793 163.388 91.9668 168.319L69.7699 205.622Z" fill="var(--fill-0, #FFE5C2)"/>
<path id="Ellipse 207" d="M177.221 205.622C191.967 196.848 204.182 184.395 212.671 169.483C221.16 154.571 225.632 137.711 225.65 120.552C225.667 103.393 221.229 86.5231 212.771 71.5938C204.312 56.6646 192.122 44.1871 177.394 35.3826L155.121 72.6404C163.399 77.5887 170.25 84.6013 175.004 92.9919C179.758 101.383 182.252 110.864 182.242 120.507C182.232 130.151 179.719 139.627 174.948 148.008C170.177 156.389 163.311 163.388 155.024 168.319L177.221 205.622Z" fill="var(--fill-0, #FFE5C2)"/>
</g>
</g>
</svg>
