<svg preserveAspectRatio="none" width="100%" height="100%" overflow="visible" style="display: block;" viewBox="0 0 2364.83 1108.91" fill="none" xmlns="http://www.w3.org/2000/svg">
<g id="Group 1000002324">
<path id="Vector" d="M2099.5 506.66C2108.27 506.647 2117.04 506.527 2125.81 506.678C2130.2 506.76 2134.58 507.228 2138.79 508.673C2146.52 511.35 2148.32 515.725 2144.73 523.198C2144.06 524.62 2143.32 526.007 2142.51 527.351C2140.23 531.049 2137.2 533.49 2132.54 533.208C2130.98 533.112 2129.41 533.284 2127.84 533.242C2125.69 533.179 2124.35 534.089 2123.53 536.105C2122.92 537.55 2122.14 538.92 2121.21 540.187C2118.01 544.667 2113.66 545.592 2108.93 542.671C2106.81 541.362 2104.97 539.615 2102.99 538.033C2097.84 533.903 2092.54 529.987 2086.4 527.385C2083.83 526.22 2081.19 525.205 2078.51 524.344C2068.39 521.384 2066.58 521.782 2057.61 527.992C2037.83 541.681 2020.99 558.556 2006.35 577.518C1997.88 588.487 1992.19 601.206 1986.8 613.918C1974.37 643.261 1968.52 673.887 1970.41 705.778C1972.46 740.327 1976.16 774.634 1985.43 808.122C1986.52 812.051 1987.5 816.032 1988.91 819.863C1994.84 836.094 1999.51 852.717 2004.39 869.275C2005.1 871.682 2005.86 874.081 2006.73 876.437C2007.6 878.794 2009.19 879.133 2010.86 877.38C2013.91 874.167 2016.58 870.79 2017.63 866.284C2019.27 859.265 2021.16 852.307 2022.97 845.326C2026.95 830.001 2026.15 814.861 2021.63 799.79C2018.6 789.552 2014.46 779.673 2009.29 770.329C2005.71 763.886 2004.16 756.943 2002.53 749.885C2000.26 740.12 2006.76 725.076 2017.51 718.517C2024.02 714.55 2029.79 714.925 2035.51 720.477C2038.93 723.813 2042.34 725.588 2047.09 725.157C2048.92 724.994 2050.82 725.549 2052.68 725.874C2063.84 727.871 2071.54 734.196 2075.3 744.821C2078.49 753.813 2079.49 763.091 2077.77 772.639C2073.26 797.51 2063.16 819.874 2047.91 839.958C2044.87 843.962 2041.87 848.009 2038.53 851.757C2033.14 857.784 2030.16 864.929 2028.06 872.578C2022.37 893.327 2019.55 914.357 2021.76 935.902C2022.24 940.583 2022.23 945.307 2022.57 950.005C2022.68 951.251 2022.54 952.506 2022.15 953.695C2021.76 954.883 2021.13 955.98 2020.3 956.915C2017.29 960.522 2014.45 964.282 2011.61 967.886C2007.96 967.278 2009.86 963.32 2007.5 962.101C2007.05 962.264 2006.26 962.315 2006.1 962.662C2004.15 966.747 2000.45 968.325 1996.5 969.622C1993.5 970.606 1990.63 971.807 1988.69 974.533C1984.82 979.956 1984.68 984.262 1988.28 990.176C1990.71 994.171 1990.8 994.245 1988.31 997.409C1982.71 1004.6 1977.03 1011.72 1971.39 1018.87C1970.19 1020.39 1968.9 1021.63 1966.67 1021.28C1955.53 1019.5 1945.22 1016.19 1938.57 1006.13C1932.11 996.361 1931.18 985.586 1933.73 974.488C1935.09 968.563 1939.2 964.718 1945.08 963.007C1946.86 962.501 1948.79 961.998 1950.62 962.084C1954.04 962.234 1955.59 960.375 1957.12 957.684C1964.03 945.5 1974.43 941.076 1988.02 944.451C1995.19 946.233 2001.36 949.745 2005.73 956.067C2008.05 954.294 2006.73 952.439 2006.47 950.925C2003.86 935.76 2001.26 920.594 1998.37 905.476C1995.69 891.601 1992.06 877.922 1987.53 864.535C1983.85 853.52 1979.93 842.579 1976.49 831.489C1975.31 827.674 1973.17 825.894 1969.53 824.848C1944.26 817.615 1925.18 828.911 1912.11 848.139C1909.98 851.267 1909.13 855.003 1908.17 858.668C1907.56 861.061 1907.96 863.713 1906.14 866.096C1900.18 865.266 1895.33 862.035 1890.77 858.275C1885.18 853.666 1883.2 847.695 1884.17 840.639C1884.31 839.391 1884.57 838.161 1884.96 836.968C1886.14 833.746 1888.4 830.584 1888.42 827.378C1888.45 824.171 1886.05 821.02 1885.16 817.722C1882.53 807.967 1886.98 800.161 1896.7 797.388C1899.08 796.718 1901.69 796.053 1904.1 796.316C1909.02 796.847 1911.73 795.192 1914.46 790.807C1918.46 784.407 1928.73 783.334 1935.67 787.788C1940.17 790.672 1944.29 794.108 1946.42 799.32C1948.61 804.674 1952.53 808.784 1956.42 812.88C1959.28 815.894 1962.87 817.855 1966.78 819.185C1968.85 819.888 1970.58 818.605 1970.3 816.338C1969.95 812.592 1969.36 808.871 1968.55 805.197C1966.24 795.639 1962.39 787.018 1955.09 779.88C1940.26 765.392 1925.68 750.648 1908.98 738.272C1896.22 728.801 1882.05 722.365 1866.28 719.527C1850.71 716.735 1835.64 718.519 1820.87 723.833C1818.8 724.576 1816.81 725.524 1814.81 726.44C1801.13 732.733 1794.93 744.053 1793.62 758.479C1792.9 766.192 1795.7 772.639 1801.48 777.771C1803.27 779.363 1805.28 779.823 1807.56 778.777C1808.66 778.278 1809.42 776.468 1808.63 775.803C1807.65 775.029 1806.49 774.487 1805.55 773.654C1803.31 771.652 1802.42 769.01 1802.26 766.099C1801.82 758 1807.87 750.548 1815.91 749.49C1830.3 747.62 1840.87 759.236 1841.21 771.403C1841.43 779.677 1836.48 785.532 1829.63 789.57C1817.39 796.804 1796.78 794.534 1786.27 785.024C1782.43 781.549 1780.1 777.176 1778.8 772.204C1776.15 762.067 1777.35 752.292 1781.54 742.797C1784.73 735.517 1789.45 729.299 1794.74 723.416C1795.99 722.029 1797.19 720.591 1798.43 719.188C1799 718.533 1798.9 718.062 1798.08 717.703C1797.81 717.588 1797.52 717.224 1797.33 717.282C1795.85 717.745 1794.3 718.075 1792.94 718.816C1788.82 721.09 1784.67 723.33 1780.77 725.942C1774.12 730.395 1766.64 732.632 1759.07 734.736C1747.77 737.852 1738.63 734.45 1731.66 725.229C1729.41 722.238 1727.61 718.895 1725.72 715.645C1722.81 710.639 1722.85 710.613 1715.99 711.407C1714.96 707.233 1717.26 704.868 1720.56 703.188C1725.1 700.878 1730.35 700.423 1735.22 701.92C1737.9 702.786 1740.48 703.945 1742.9 705.374C1746.19 707.199 1749.59 709 1752.49 711.341C1757.96 715.762 1763.97 716.069 1770.29 714.318C1776.33 712.638 1782.36 710.867 1788.23 708.663C1792.61 706.985 1797.2 705.894 1801.87 705.418C1837.31 701.925 1870.77 708.9 1901.78 725.943C1921.05 736.54 1938.84 749.563 1954.03 765.785C1955.85 767.733 1957.53 770.016 1960.21 771.048C1962.03 768.789 1960.8 766.631 1960.52 764.603C1957.36 741.854 1955.73 718.999 1956.24 696.036C1956.38 689.463 1956.95 682.884 1957.66 676.34C1959.71 656.953 1960.43 637.536 1958.74 618.055C1955.33 578.893 1939.82 544.902 1915.1 514.766C1903.47 500.584 1889.62 488.796 1875.01 477.853C1866.72 471.643 1858.41 465.44 1849.36 460.329C1829.4 449.047 1808.19 443.566 1785.18 446.734C1769.02 448.96 1753.94 454.639 1741.01 464.332C1727.4 474.532 1715.58 486.834 1708.7 502.89C1700.18 522.758 1700 542.425 1710.44 561.828C1723.96 586.974 1744.36 603.297 1772.02 610.553C1776.07 611.615 1780.01 611.825 1784.03 610.473C1788.19 609.069 1792.47 607.987 1796.6 606.526C1799.29 605.617 1801.71 604.057 1803.64 601.984C1810.33 594.706 1811.24 588.97 1805.86 580.816C1802.43 575.601 1798.16 570.93 1794.25 566.028C1792.49 563.824 1790.48 561.783 1788.93 559.457C1779.61 545.226 1786.67 523.766 1802.6 517.702C1812.42 513.958 1825.1 518.047 1830.88 526.948C1832.03 528.815 1833.01 530.785 1833.8 532.832C1834.29 534.013 1835.22 534.066 1836.04 533.915C1837.57 533.638 1839.02 532.912 1840.55 532.656C1843.63 532.131 1846.76 531.387 1849.85 531.474C1860.57 531.756 1867.33 537.822 1869.19 548.416C1869.89 552.445 1870.04 556.55 1869.64 560.62C1869.42 562.849 1870.39 564.176 1872.33 564.974C1876.98 566.859 1881.63 568.725 1886.26 570.644C1892.73 573.327 1898.27 577.445 1903.36 582.165C1911.19 589.433 1914.96 598.533 1914.29 609.16C1913.42 622.707 1907.68 634.339 1899.79 645.169C1896.87 643.226 1896.94 640.466 1895.98 638.237C1894.11 633.899 1892.01 629.761 1889.11 625.962C1883.81 619.021 1876.75 615.528 1868.29 614.49C1862.3 613.754 1856.38 614.337 1850.51 615.608C1840.38 617.835 1830.52 621.122 1821.08 625.413C1800.92 634.471 1780.44 635.108 1759.54 628.458C1754.8 626.943 1750.05 625.491 1745.42 624.042C1743.67 626.705 1744.22 629.317 1743.96 631.764C1742.68 644.306 1738.32 656.336 1731.27 666.788C1722.12 680.547 1710.46 691.897 1697.62 702.081C1688.5 709.311 1685.54 719.294 1684.46 730.075C1683.95 735.304 1686.35 739.79 1690.34 743.39C1694.64 747.285 1699.75 749.567 1705.18 751.205C1708.73 752.273 1712.29 753.268 1716.37 754.445C1709.58 762.403 1702.33 768.732 1693.42 773.004C1677.44 780.666 1663.84 777.057 1652.63 762.867C1648.99 758.132 1646.07 752.876 1643.99 747.274C1642.99 744.694 1641.41 743.333 1638.73 742.529C1634.5 741.309 1630.49 739.423 1626.85 736.94C1617.26 730.262 1615.01 722.451 1619.73 711.637C1621.77 706.982 1624.82 702.916 1628.17 699.194C1630.57 696.528 1631.03 694.036 1629.87 690.714C1628.34 686.239 1627.64 681.526 1627.78 676.801C1627.97 667.811 1632.18 661.262 1640.26 657.361C1645.13 655.009 1650.23 653.761 1655.75 654.197C1662.96 654.828 1670.23 654.304 1677.27 652.646C1691.78 649.142 1701.71 640.421 1707.23 626.611C1709.38 621.259 1709.84 615.631 1709.95 609.979C1710.16 599.856 1708.47 589.961 1705.83 580.217C1703.5 571.413 1700.46 562.81 1696.75 554.492C1692.26 544.59 1690.08 534.272 1689.71 523.484C1689.57 519.403 1689.4 515.327 1689.16 511.265C1688.84 506.222 1687.09 501.376 1684.1 497.298C1677.13 487.505 1668.03 480.587 1656.58 476.995C1646.27 473.768 1636.17 474.488 1626.35 479.263C1623.64 480.58 1621.61 482.337 1620.56 485.099C1619.23 488.609 1617.64 492.097 1616.9 495.74C1615.66 501.861 1618.08 505.92 1623.85 508.584C1626.73 509.854 1629.84 510.528 1632.99 510.566C1637.4 510.703 1638.4 512.179 1635.31 516.429C1634.57 517.449 1633.89 518.497 1633.08 519.469C1623.81 530.497 1613.32 534.333 1598.93 526.444C1598.07 526.054 1597.26 525.568 1596.51 524.996C1593.56 522.346 1590.28 521.598 1586.21 521.702C1570.71 522.095 1564.35 511.312 1564.3 500.079C1564.23 487.294 1568.22 476.044 1578.98 468C1586.29 462.536 1594.09 457.899 1602.03 453.457C1603.6 452.581 1605.7 452.289 1605.95 449.666C1565.79 439.301 1529.52 446.758 1498.04 474.023C1488.06 482.644 1480.71 493.834 1473.53 504.939C1469.27 511.545 1465.36 518.307 1462.93 525.864C1454.96 550.71 1465.4 574.83 1486.28 589.109C1493.23 593.861 1501.12 595.615 1509.63 594.262C1514.26 593.526 1517.77 591.477 1520.4 587.535C1523.55 582.797 1525.79 577.621 1528.13 572.484C1529.43 569.632 1530.57 566.71 1531.78 563.812C1533.32 560.244 1536.09 558.589 1539.92 558.51C1543.39 558.44 1545.32 559.728 1546.03 563.094C1546.66 566.14 1546.98 569.253 1547.44 572.339C1551.45 572.582 1554.2 570.327 1557.1 568.557C1568.03 561.892 1575.33 566.29 1582.51 574.535C1584.45 576.761 1584.71 579.663 1583.87 582.564C1583.13 585.309 1581.75 587.837 1579.83 589.937C1577.89 591.989 1575.82 593.904 1573.74 595.809C1571.44 597.914 1568.42 599.556 1566.9 602.103C1565.23 604.936 1567.96 608.029 1568.38 611.073C1569.82 621.406 1564.49 632.15 1555.31 637.178C1544.37 643.135 1533.71 642.841 1523.32 635.892C1521.7 634.916 1520.16 633.827 1518.71 632.632C1511.65 626.402 1503.92 620.982 1495.66 616.472C1484.92 610.482 1475.41 602.745 1466.04 594.837C1464.15 593.191 1462.19 591.642 1460.15 590.195C1458.88 589.323 1457.68 589.978 1457.36 591.4C1455.48 599.81 1455.84 608.246 1457.41 616.647C1459.02 625.326 1461.37 633.883 1465.41 641.688C1468.8 648.172 1467.15 653.015 1462.7 657.842C1459.68 661.112 1456.35 663.954 1452.21 665.623C1449.59 666.673 1448.32 668.447 1447.83 671.174C1446.92 676.439 1445.32 681.561 1443.07 686.407C1438.21 696.896 1429.65 701.927 1418.23 701.392C1412.32 701.128 1408.07 698.609 1405.33 693.454C1404.17 691.267 1403.2 688.976 1402.13 686.71C1398.35 686.655 1395.45 688.797 1392.22 689.866C1385.8 691.996 1379.35 692.788 1372.77 691.012C1364.09 688.668 1362.94 684.159 1369.48 677.856C1373.56 673.924 1378.45 671.045 1383.28 668.103C1394 661.571 1404.44 654.639 1414.25 646.783C1421.88 640.729 1428.75 633.781 1434.72 626.088C1441.1 617.86 1445.25 608.13 1446.77 597.833C1447.79 591.323 1448.76 584.811 1449.47 578.263C1449.75 575.482 1449.49 572.629 1449.21 569.833C1447.19 550.213 1447.26 547.881 1450.77 530.812C1445.01 534.356 1444.52 534.795 1441.7 539.148C1438.1 544.7 1435.34 550.686 1432.84 556.78C1429.41 565.175 1423.89 571.832 1415.88 576.284C1412.6 578.158 1409 579.412 1405.27 579.985C1402.55 580.381 1399.77 580.224 1397.11 579.524C1394.44 578.824 1391.95 577.594 1389.77 575.909C1387.6 574.224 1385.78 572.118 1384.44 569.716C1383.09 567.314 1382.24 564.665 1381.95 561.929C1381.45 557.481 1382.12 553.158 1383.25 548.892C1384.61 543.737 1386.07 538.61 1387.35 533.439C1388.5 528.825 1388.84 524.132 1387.7 519.458C1387.16 517.201 1385.88 515.476 1383.32 515.135C1380.77 514.793 1378.35 514.517 1375.88 514.087C1374.47 513.869 1373.14 513.291 1372.02 512.41C1370.91 511.529 1370.04 510.374 1369.5 509.058C1365.21 499.631 1371.85 486.684 1382.05 484.68C1385.29 484.051 1388.36 484.902 1391.16 486.31C1396.87 489.169 1401.68 493.078 1404.83 498.849C1407.4 503.564 1409.28 508.557 1410.94 513.61C1411.84 516.292 1412.6 519.017 1413.61 521.656C1415.92 527.675 1421.15 531.183 1427.61 530.296C1440.9 528.478 1452.04 522.575 1460.25 511.728C1461.77 509.727 1463.15 507.623 1464.38 505.431C1472.24 491.369 1482.42 479.002 1492.59 466.624C1493.37 465.639 1494.14 464.661 1494.87 463.731C1494.51 461.449 1492.74 461.648 1491.28 461.642C1483.09 461.621 1474.99 463.294 1467.48 466.556C1458.81 470.284 1450.01 473.614 1440.68 475.349C1434.79 476.437 1428.87 477.095 1422.91 475.743C1413.19 473.537 1407.6 467.492 1406.43 457.66C1406.09 454.855 1406.07 452.021 1406.36 449.211C1406.83 445.478 1407.49 441.772 1408.33 438.106C1408.91 435.379 1409.77 432.675 1410.53 429.873C1408.19 427.716 1405.23 428.004 1402.62 427.409C1397.44 426.236 1394.62 423.131 1393.38 417.992C1390.17 404.724 1394.24 387.982 1409.68 379.252C1413.27 377.229 1416.94 375.425 1420.99 374.796C1425.36 374.101 1428.28 372.16 1430.31 368.065C1433.81 360.997 1438.81 354.864 1444.03 348.996C1446.73 345.943 1449.74 343.18 1453.02 340.752C1463.8 332.887 1473.47 334.288 1482.69 344.762C1481.85 347.342 1479.46 348.464 1477.65 350.149C1468.15 358.969 1459.7 368.57 1454.58 380.723C1448.34 395.536 1448.92 410.044 1456.13 424.362C1460.29 432.51 1465.92 439.82 1472.73 445.922C1480.24 452.772 1489.63 455.281 1499.63 455.572C1501.2 455.556 1502.75 455.197 1504.17 454.518C1517.65 448.495 1531.54 443.632 1545.62 439.239C1545.86 439.16 1546 438.757 1546.56 438.038C1543.99 435.185 1541.19 432.381 1538.75 429.292C1530.51 418.851 1528.21 407.43 1533.59 394.912C1534.23 393.485 1534.96 392.1 1535.78 390.762C1539.06 385.133 1543.53 381.732 1550.45 383.23C1552.86 383.75 1554.64 383.293 1555.84 380.841C1558.89 374.542 1563.61 370.335 1570.86 369.374C1578.74 368.331 1585.84 369.882 1591.94 375.173C1593.11 376.194 1594.21 377.311 1595.28 378.33C1594.25 381.103 1592.11 380.076 1590.42 380.034C1585.86 379.918 1581.58 380.574 1578.45 384.262C1574.64 388.761 1572.98 394.14 1573.1 399.935C1573.17 403.284 1575.53 405.559 1577.96 407.679C1584.41 413.326 1591.9 417.281 1599.55 420.953C1611.16 426.517 1623.04 431.418 1635.08 435.958C1639.22 437.432 1643.08 439.594 1646.5 442.353C1650.6 445.761 1654.94 448.897 1659.21 452.068C1672.34 461.83 1683.56 473.939 1692.28 487.783C1693.12 489.079 1694.1 490.319 1694.91 491.442C1697.49 491.509 1698.08 489.486 1699.09 488.088C1703.71 481.746 1707.89 475.086 1713.19 469.237C1724.57 456.656 1737.9 447.14 1754.48 442.59C1762.35 440.427 1770.13 437.965 1778.18 436.446C1800.94 432.179 1822.54 435.452 1842.97 446.266C1844.07 446.855 1845.19 447.488 1846.24 448.129C1846.92 448.55 1847.47 448.549 1847.84 447.907C1848.13 447.403 1848.63 446.696 1848.48 446.298C1847.12 442.803 1845.69 439.334 1844.16 435.895C1843.34 434.052 1841.46 433.398 1839.84 432.49C1834.94 429.678 1830 426.931 1825.24 423.91C1820.47 420.89 1816.07 417.318 1812.64 412.705C1806.48 404.367 1807.98 394.066 1816.23 387.767C1819.81 385.041 1823.92 383.448 1828.21 382.523C1831.35 381.85 1833.21 380.155 1834.29 377.319C1835.96 372.91 1838.17 368.726 1840.87 364.864C1847.75 355.009 1855.27 354.674 1862.93 364.015C1865.89 367.623 1867.73 372.46 1871.26 375.249C1874.52 377.821 1879.51 378.082 1883.47 379.956C1897.28 386.476 1901 397.284 1894.23 410.964C1890.61 418.291 1886.32 425.188 1879.8 430.509C1877.17 432.653 1875.04 435.532 1873.11 438.36C1870.76 441.753 1869.69 445.862 1870.07 449.968C1870.43 454.272 1872.32 457.543 1875.86 460.225C1884.62 466.877 1892.79 474.21 1900.93 481.612C1908.62 488.601 1915.95 495.935 1922.34 504.078C1931.43 515.666 1940.29 527.462 1948.2 539.917C1958.43 556.009 1965.43 573.334 1968.84 592.11C1969.22 594.235 1969.85 596.319 1970.42 598.402C1970.48 598.636 1970.9 598.782 1971.58 599.232C1975.1 593.345 1978.5 587.414 1982.12 581.621C1992.65 564.784 2004.44 549.043 2020.06 536.415C2028.41 529.732 2035.87 522.008 2042.26 513.431C2045.05 509.644 2047.77 505.816 2049.64 501.433C2051.52 497.05 2052.66 492.534 2051.8 487.697C2051.57 486.463 2051.44 485.212 2051.4 483.957C2051.13 472.42 2048.26 461.811 2041.58 452.136C2036.63 444.962 2034.79 436.709 2035.94 427.901C2036.6 422.903 2038.41 418.126 2041.21 413.939C2045.33 407.721 2050.98 404.311 2058.69 405.083C2060.25 405.239 2061.8 405.44 2063.34 405.635C2064.27 405.806 2065.22 405.707 2066.09 405.35C2066.96 404.993 2067.71 404.394 2068.25 403.624C2070.38 400.915 2072.46 398.124 2074.89 395.693C2080.94 389.638 2088.14 387.675 2096.48 390.212C2100.66 391.486 2103.77 393.887 2105.27 398.025C2106.43 401.261 2107.89 404.549 2108.23 407.894C2108.72 412.844 2111.24 415.889 2115.28 418.226C2117.17 419.349 2118.96 420.627 2120.64 422.048C2126.58 426.966 2128.17 433.288 2125.47 440.61C2123.47 446.033 2119.98 450.418 2115.78 454.329C2107.47 462.079 2098.01 468.21 2088.21 473.873C2085.25 475.588 2082.13 477.085 2079.78 479.772C2075.54 484.617 2072.86 490.036 2072.76 496.639C2076.11 497.848 2078.21 495.268 2080.58 494.122C2097.43 485.977 2115.07 480.747 2133.72 478.959C2147.18 477.728 2160.75 478.189 2174.09 480.332C2178.42 481.064 2182.79 481.471 2187.18 481.549C2192.6 481.555 2196.82 479.017 2199.27 474.009C2202.61 467.158 2198.24 458.633 2190.71 457.218C2187.7 456.652 2185.05 457.646 2182.82 459.483C2181.15 460.866 2179.87 462.719 2178.37 464.317C2175.64 467.203 2172.44 467.756 2169.1 465.922C2167.57 465.098 2166.24 463.955 2165.19 462.57C2164.15 461.186 2163.41 459.593 2163.03 457.898C2160.68 449 2161.73 439.547 2165.96 431.375C2168.81 425.687 2173.43 422.207 2179.73 421.024C2180.96 420.793 2182.22 420.387 2183.44 420.478C2188.37 420.834 2191.77 418.556 2194.46 414.66C2195.33 413.397 2196.71 412.486 2197.84 411.405C2202.85 406.666 2208.8 405.135 2215.25 407.158C2230.32 411.893 2241.99 420.692 2248.01 435.859C2252.63 447.507 2250.24 458.063 2242.85 467.701C2237.84 474.246 2231.31 479.177 2224.6 483.862C2222.03 485.658 2219.38 487.253 2216.95 488.819C2216.55 491.809 2218.89 492.006 2220.35 492.812C2233.85 500.273 2246.64 508.719 2258.43 518.735C2265.16 524.393 2271.29 530.733 2276.71 537.652C2288.03 552.375 2302.03 564.826 2317.98 574.351C2318.46 574.736 2318.89 575.185 2319.25 575.685C2319.57 577.844 2318.01 579.163 2316.88 580.592C2311.24 587.745 2305.59 594.882 2299.9 602.002C2299.71 602.236 2299.46 602.413 2299.18 602.517C2298.9 602.62 2298.59 602.645 2298.29 602.589C2298 602.533 2297.72 602.398 2297.49 602.199C2297.27 601.999 2297.1 601.742 2297.01 601.455C2296.24 599.403 2295.58 597.31 2294.85 595.238C2290.41 582.426 2284.17 570.489 2277.16 558.924C2273.71 553.224 2268.85 548.692 2264.24 544.023C2252.06 531.692 2238.74 520.745 2223.63 512.122C2198.59 497.858 2171.64 492.38 2143.03 494.047C2132.34 494.681 2121.77 495.979 2111.46 498.98C2107.54 500.123 2103.63 501.28 2100.08 503.377C2096.33 504.657 2096.33 504.657 2094.37 507.085C2095.21 507.391 2096.1 507.512 2096.98 507.439C2097.87 507.365 2098.73 507.099 2099.5 506.66Z" fill="url(#paint0_radial_158_2285)" fill-opacity="0.36"/>
<path id="Vector_2" d="M265.331 506.66C256.561 506.647 247.79 506.527 239.023 506.678C234.631 506.76 230.251 507.228 226.043 508.673C218.312 511.35 216.516 515.725 220.102 523.198C220.767 524.62 221.507 526.007 222.319 527.351C224.597 531.049 227.629 533.49 232.29 533.208C233.85 533.112 235.424 533.284 236.995 533.242C239.142 533.179 240.483 534.089 241.302 536.105C241.914 537.55 242.691 538.92 243.616 540.187C246.816 544.667 251.174 545.592 255.905 542.671C258.025 541.362 259.863 539.615 261.837 538.033C266.996 533.903 272.294 529.987 278.429 527.385C281 526.22 283.636 525.205 286.325 524.344C296.443 521.384 298.247 521.782 307.222 527.992C327.002 541.681 343.838 558.556 358.479 577.518C366.948 588.487 372.64 601.206 378.026 613.918C390.456 643.261 396.31 673.887 394.42 705.778C392.373 740.327 388.671 774.634 379.402 808.122C378.31 812.051 377.33 816.032 375.926 819.863C369.992 836.094 365.322 852.717 360.443 869.275C359.731 871.682 358.973 874.081 358.1 876.437C357.226 878.794 355.641 879.133 353.973 877.38C350.918 874.167 348.25 870.79 347.199 866.284C345.556 859.265 343.668 852.307 341.857 845.326C337.88 830.001 338.683 814.861 343.201 799.79C346.235 789.552 350.373 779.673 355.542 770.329C359.12 763.886 360.669 756.943 362.305 749.885C364.575 740.12 358.07 725.076 347.317 718.517C340.81 714.55 335.045 714.925 329.326 720.477C325.901 723.813 322.488 725.588 317.737 725.157C315.909 724.994 314.01 725.549 312.152 725.874C300.995 727.871 293.294 734.196 289.53 744.821C286.344 753.813 285.338 763.091 287.066 772.639C291.571 797.51 301.671 819.874 316.923 839.958C319.959 843.962 322.965 848.009 326.301 851.757C331.689 857.784 334.673 864.929 336.768 872.578C342.456 893.327 345.277 914.357 343.075 935.902C342.596 940.583 342.602 945.307 342.263 950.005C342.148 951.251 342.29 952.506 342.679 953.695C343.069 954.883 343.698 955.98 344.528 956.915C347.543 960.522 350.379 964.282 353.22 967.886C356.866 967.278 354.975 963.32 357.33 962.101C357.777 962.264 358.568 962.315 358.734 962.662C360.681 966.747 364.382 968.325 368.332 969.622C371.33 970.606 374.199 971.807 376.144 974.533C380.012 979.956 380.147 984.262 376.553 990.176C374.125 994.171 374.031 994.245 376.525 997.409C382.117 1004.6 387.803 1011.72 393.442 1018.87C394.639 1020.39 395.933 1021.63 398.161 1021.28C409.3 1019.5 419.612 1016.19 426.26 1006.13C432.724 996.361 433.651 985.586 431.103 974.488C429.736 968.563 425.635 964.718 419.755 963.007C417.974 962.501 416.044 961.998 414.208 962.084C410.787 962.234 409.245 960.375 407.716 957.684C400.797 945.5 390.396 941.076 376.812 944.451C369.642 946.233 363.467 949.745 359.105 956.067C356.784 954.294 358.104 952.439 358.361 950.925C360.972 935.76 363.576 920.594 366.458 905.476C369.146 891.601 372.768 877.922 377.3 864.535C380.986 853.52 384.901 842.579 388.343 831.489C389.524 827.674 391.661 825.894 395.305 824.848C420.566 817.615 439.65 828.911 452.719 848.139C454.848 851.267 455.705 855.003 456.659 858.668C457.273 861.061 456.873 863.713 458.695 866.096C464.649 865.266 469.499 862.035 474.059 858.275C479.656 853.666 481.633 847.695 480.66 840.639C480.523 839.391 480.258 838.161 479.867 836.968C478.689 833.746 476.433 830.584 476.407 827.378C476.381 824.171 478.779 821.02 479.668 817.722C482.297 807.967 477.85 800.161 468.133 797.388C465.752 796.718 463.14 796.053 460.731 796.316C455.809 796.847 453.104 795.192 450.366 790.807C446.372 784.407 436.098 783.334 429.163 787.788C424.657 790.672 420.541 794.108 418.411 799.32C416.221 804.674 412.3 808.784 408.412 812.88C405.549 815.894 401.964 817.855 398.047 819.185C395.985 819.888 394.254 818.605 394.529 816.338C394.886 812.592 395.471 808.871 396.282 805.197C398.596 795.639 402.443 787.018 409.745 779.88C424.571 765.392 439.156 750.648 455.849 738.272C468.614 728.801 482.778 722.365 498.556 719.527C514.122 716.735 529.196 718.519 543.965 723.833C546.027 724.576 548.023 725.524 550.018 726.44C563.7 732.733 569.899 744.053 571.213 758.479C571.926 766.192 569.134 772.639 563.351 777.771C561.557 779.363 559.552 779.823 557.269 778.777C556.175 778.278 555.411 776.468 556.198 775.803C557.179 775.029 558.343 774.487 559.278 773.654C561.519 771.652 562.416 769.01 562.572 766.099C563.011 758 556.959 750.548 548.919 749.49C534.535 747.62 523.958 759.236 523.625 771.403C523.4 779.677 528.352 785.532 535.196 789.57C547.443 796.804 568.055 794.534 578.56 785.024C582.403 781.549 584.729 777.176 586.03 772.204C588.682 762.067 587.476 752.292 583.289 742.797C580.097 735.517 575.38 729.299 570.093 723.416C568.84 722.029 567.636 720.591 566.403 719.188C565.83 718.533 565.935 718.062 566.754 717.703C567.02 717.588 567.312 717.224 567.498 717.282C568.977 717.745 570.529 718.075 571.89 718.816C576.006 721.09 580.166 723.33 584.064 725.942C590.713 730.395 598.187 732.632 605.765 734.736C617.058 737.852 626.203 734.45 633.168 725.229C635.419 722.238 637.221 718.895 639.108 715.645C642.018 710.639 641.979 710.613 648.837 711.407C649.868 707.233 647.571 704.868 644.267 703.188C639.733 700.878 634.477 700.423 629.613 701.92C626.933 702.786 624.356 703.945 621.928 705.374C618.637 707.199 615.238 709 612.341 711.341C606.869 715.762 600.86 716.069 594.546 714.318C588.505 712.638 582.467 710.867 576.606 708.663C572.219 706.985 567.63 705.894 562.958 705.418C527.522 701.925 494.062 708.9 463.051 725.943C443.777 736.54 425.989 749.563 410.805 765.785C408.98 767.733 407.304 770.016 404.622 771.048C402.804 768.789 404.031 766.631 404.31 764.603C407.474 741.854 409.101 718.999 408.595 696.036C408.455 689.463 407.877 682.884 407.175 676.34C405.121 656.953 404.405 637.536 406.095 618.055C409.497 578.893 425.008 544.902 449.728 514.766C461.363 500.584 475.21 488.796 489.819 477.853C498.108 471.643 506.421 465.44 515.473 460.329C535.436 449.047 556.642 443.566 579.65 446.734C595.811 448.96 610.893 454.639 623.824 464.332C637.435 474.532 649.252 486.834 656.129 502.89C664.655 522.758 664.836 542.425 654.394 561.828C640.866 586.974 620.466 603.297 592.81 610.553C588.758 611.615 584.825 611.825 580.799 610.473C576.637 609.069 572.365 607.987 568.227 606.526C565.542 605.617 563.124 604.057 561.19 601.984C554.498 594.706 553.586 588.97 558.973 580.816C562.406 575.601 566.668 570.93 570.577 566.028C572.34 563.824 574.347 561.783 575.9 559.457C585.224 545.226 578.161 523.766 562.234 517.702C552.408 513.958 539.736 518.047 533.951 526.948C532.799 528.815 531.822 530.785 531.033 532.832C530.545 534.013 529.613 534.066 528.787 533.915C527.257 533.638 525.813 532.912 524.28 532.656C521.199 532.131 518.073 531.387 514.984 531.474C504.257 531.756 497.498 537.822 495.639 548.416C494.94 552.445 494.79 556.55 495.194 560.62C495.411 562.849 494.446 564.176 492.497 564.974C487.852 566.859 483.2 568.725 478.569 570.644C472.097 573.327 466.558 577.445 461.475 582.165C453.645 589.433 449.869 598.533 450.544 609.16C451.407 622.707 457.152 634.339 465.04 645.169C467.964 643.226 467.896 640.466 468.85 638.237C470.72 633.899 472.819 629.761 475.725 625.962C481.018 619.021 488.081 615.528 496.544 614.49C502.533 613.754 508.448 614.337 514.32 615.608C524.447 617.835 534.311 621.122 543.75 625.413C563.915 634.471 584.393 635.108 605.295 628.458C610.028 626.943 614.784 625.491 619.416 624.042C621.158 626.705 620.614 629.317 620.869 631.764C622.153 644.306 626.513 656.336 633.563 666.788C642.716 680.547 654.375 691.897 667.216 702.081C676.334 709.311 679.295 719.294 680.371 730.075C680.877 735.304 678.481 739.79 674.495 743.39C670.193 747.285 665.085 749.567 659.648 751.205C656.104 752.273 652.541 753.268 648.465 754.445C655.254 762.403 662.503 768.732 671.409 773.004C687.392 780.666 700.99 777.057 712.199 762.867C715.846 758.132 718.76 752.876 720.844 747.274C721.84 744.694 723.422 743.333 726.105 742.529C730.336 741.309 734.346 739.423 737.983 736.94C747.569 730.262 749.822 722.451 745.097 711.637C743.064 706.982 740.011 702.916 736.657 699.194C734.257 696.528 733.801 694.036 734.963 690.714C736.488 686.239 737.195 681.526 737.051 676.801C736.859 667.811 732.651 661.262 724.566 657.361C719.701 655.009 714.599 653.761 709.079 654.197C701.868 654.828 694.603 654.304 687.556 652.646C673.049 649.142 663.125 640.421 657.599 626.611C655.449 621.259 654.99 615.631 654.876 609.979C654.669 599.856 656.36 589.961 658.998 580.217C661.333 571.413 664.372 562.81 668.084 554.492C672.571 544.59 674.75 534.272 675.12 523.484C675.257 519.403 675.43 515.327 675.673 511.265C675.99 506.222 677.745 501.376 680.73 497.298C687.702 487.505 696.801 480.587 708.254 476.995C718.556 473.768 728.666 474.488 738.484 479.263C741.19 480.58 743.225 482.337 744.275 485.099C745.604 488.609 747.188 492.097 747.928 495.74C749.175 501.861 746.747 505.92 740.986 508.584C738.102 509.854 734.992 510.528 731.841 510.566C727.429 510.703 726.428 512.179 729.524 516.429C730.264 517.449 730.938 518.497 731.755 519.469C741.022 530.497 751.506 534.333 765.899 526.444C766.757 526.054 767.568 525.568 768.317 524.996C771.275 522.346 774.55 521.598 778.617 521.702C794.122 522.095 800.486 511.312 800.531 500.079C800.599 487.294 796.613 476.044 785.847 468C778.542 462.536 770.736 457.899 762.798 453.457C761.228 452.581 759.127 452.289 758.886 449.666C799.045 439.301 835.307 446.758 866.788 474.023C876.767 482.644 884.124 493.834 891.299 504.939C895.564 511.545 899.469 518.307 901.899 525.864C909.875 550.71 899.434 574.83 878.549 589.109C871.601 593.861 863.708 595.615 855.2 594.262C850.571 593.526 847.065 591.477 844.435 587.535C841.28 582.797 839.045 577.621 836.702 572.484C835.403 569.632 834.257 566.71 833.048 563.812C831.509 560.244 828.74 558.589 824.916 558.51C821.443 558.44 819.51 559.728 818.802 563.094C818.167 566.14 817.852 569.253 817.394 572.339C813.379 572.582 810.627 570.327 807.729 568.557C796.804 561.892 789.505 566.29 782.325 574.535C780.381 576.761 780.123 579.663 780.965 582.564C781.702 585.309 783.086 587.837 785.001 589.937C786.936 591.989 789.012 593.904 791.093 595.809C793.389 597.914 796.409 599.556 797.927 602.103C799.606 604.936 796.869 608.029 796.455 611.073C795.008 621.406 800.339 632.15 809.522 637.178C820.456 643.135 831.117 642.841 841.515 635.892C843.127 634.916 844.668 633.827 846.126 632.632C853.179 626.402 860.909 620.982 869.169 616.472C879.909 610.482 889.426 602.745 898.795 594.837C900.678 593.191 902.643 591.642 904.684 590.195C905.951 589.323 907.148 589.978 907.467 591.4C909.348 599.81 908.989 608.246 907.425 616.647C905.807 625.326 903.462 633.883 899.416 641.688C896.036 648.172 897.677 653.015 902.131 657.842C905.154 661.112 908.477 663.954 912.626 665.623C915.242 666.673 916.513 668.447 917.002 671.174C917.909 676.439 919.508 681.561 921.759 686.407C926.621 696.896 935.178 701.927 946.596 701.392C952.512 701.128 956.764 698.609 959.5 693.454C960.659 691.267 961.635 688.976 962.701 686.71C966.477 686.655 969.381 688.797 972.611 689.866C979.026 691.996 985.482 692.788 992.064 691.012C1000.75 688.668 1001.9 684.159 995.348 677.856C991.268 673.924 986.376 671.045 981.549 668.103C970.836 661.571 960.393 654.639 950.584 646.783C942.955 640.729 936.08 633.781 930.107 626.088C923.731 617.86 919.581 608.13 918.057 597.833C917.044 591.323 916.068 584.811 915.362 578.263C915.079 575.482 915.339 572.629 915.623 569.833C917.644 550.213 917.575 547.881 914.057 530.812C919.817 534.356 920.309 534.795 923.129 539.148C926.729 544.7 929.488 550.686 931.988 556.78C935.422 565.175 940.938 571.832 948.954 576.284C952.232 578.158 955.828 579.412 959.561 579.985C962.285 580.381 965.061 580.224 967.724 579.524C970.386 578.824 972.88 577.594 975.057 575.909C977.234 574.224 979.049 572.118 980.394 569.716C981.739 567.314 982.586 564.665 982.886 561.929C983.384 557.481 982.707 553.158 981.578 548.892C980.22 543.737 978.762 538.61 977.481 533.439C976.333 528.825 975.988 524.132 977.129 519.458C977.674 517.201 978.949 515.476 981.506 515.135C984.063 514.793 986.481 514.517 988.956 514.087C990.362 513.869 991.688 513.291 992.806 512.41C993.924 511.529 994.795 510.374 995.336 509.058C999.624 499.631 992.977 486.684 982.777 484.68C979.537 484.051 976.472 484.902 973.667 486.31C967.957 489.169 963.152 493.078 959.998 498.849C957.432 503.564 955.556 508.557 953.886 513.61C952.996 516.292 952.235 519.017 951.221 521.656C948.907 527.675 943.682 531.183 937.216 530.296C923.93 528.478 912.79 522.575 904.577 511.728C903.059 509.727 901.681 507.623 900.453 505.431C892.589 491.369 882.413 479.002 872.242 466.624C871.465 465.639 870.695 464.661 869.961 463.731C870.32 461.449 872.094 461.648 873.547 461.642C881.736 461.621 889.841 463.294 897.352 466.556C906.02 470.284 914.82 473.614 924.151 475.349C930.038 476.437 935.962 477.095 941.917 475.743C951.636 473.537 957.229 467.492 958.396 457.66C958.739 454.855 958.765 452.021 958.471 449.211C958.002 445.478 957.343 441.772 956.497 438.106C955.919 435.379 955.061 432.675 954.304 429.873C956.645 427.716 959.597 428.004 962.209 427.409C967.389 426.236 970.212 423.131 971.451 417.992C974.659 404.724 970.59 387.982 955.146 379.252C951.559 377.229 947.889 375.425 943.842 374.796C939.474 374.101 936.55 372.16 934.519 368.065C931.016 360.997 926.022 354.864 920.804 348.996C918.101 345.943 915.086 343.18 911.81 340.752C901.033 332.887 891.36 334.288 882.143 344.762C882.98 347.342 885.367 348.464 887.179 350.149C896.678 358.969 905.131 368.57 910.249 380.723C916.49 395.536 915.908 410.044 908.702 424.362C904.544 432.51 898.915 439.82 892.1 445.922C884.589 452.772 875.198 455.281 865.203 455.572C863.631 455.556 862.08 455.197 860.661 454.518C847.186 448.495 833.288 443.632 819.214 439.239C818.967 439.16 818.833 438.757 818.267 438.038C820.836 435.185 823.642 432.381 826.083 429.292C834.321 418.851 836.617 407.43 831.243 394.912C830.598 393.485 829.867 392.1 829.054 390.762C825.769 385.133 821.299 381.732 814.383 383.23C811.972 383.75 810.193 383.293 808.992 380.841C805.936 374.542 801.219 370.335 793.975 369.374C786.093 368.331 778.99 369.882 772.892 375.173C771.718 376.194 770.624 377.311 769.55 378.33C770.578 381.103 772.721 380.076 774.413 380.034C778.969 379.918 783.248 380.574 786.379 384.262C790.192 388.761 791.848 394.14 791.731 399.935C791.666 403.284 789.296 405.559 786.874 407.679C780.421 413.326 772.933 417.281 765.279 420.953C753.675 426.517 741.789 431.418 729.747 435.958C725.609 437.432 721.75 439.594 718.332 442.353C714.226 445.761 709.893 448.897 705.62 452.068C692.486 461.83 681.273 473.939 672.548 487.783C671.711 489.079 670.728 490.319 669.925 491.442C667.337 491.509 666.754 489.486 665.741 488.088C661.124 481.746 656.936 475.086 651.645 469.237C640.263 456.656 626.931 447.14 610.351 442.59C602.484 440.427 594.706 437.965 586.652 436.446C563.89 432.179 542.293 435.452 521.862 446.266C520.76 446.855 519.642 447.488 518.594 448.129C517.914 448.55 517.359 448.549 516.986 447.907C516.697 447.403 516.197 446.696 516.355 446.298C517.712 442.803 519.14 439.334 520.669 435.895C521.489 434.052 523.367 433.398 524.988 432.49C529.888 429.678 534.826 426.931 539.594 423.91C544.362 420.89 548.765 417.318 552.194 412.705C558.353 404.367 556.854 394.066 548.597 387.767C545.022 385.041 540.914 383.448 536.62 382.523C533.486 381.85 531.622 380.155 530.544 377.319C528.876 372.91 526.664 368.726 523.96 364.864C517.082 355.009 509.561 354.674 501.902 364.015C498.94 367.623 497.1 372.46 493.57 375.249C490.308 377.821 485.325 378.082 481.366 379.956C467.555 386.476 463.833 397.284 470.6 410.964C474.225 418.291 478.509 425.188 485.034 430.509C487.66 432.653 489.789 435.532 491.726 438.36C494.069 441.753 495.145 445.862 494.765 449.968C494.402 454.272 492.512 457.543 488.973 460.225C480.212 466.877 472.039 474.21 463.901 481.612C456.214 488.601 448.882 495.935 442.493 504.078C433.396 515.666 424.546 527.462 416.635 539.917C406.404 556.009 399.398 573.334 395.993 592.11C395.606 594.235 394.982 596.319 394.415 598.402C394.352 598.636 393.932 598.782 393.249 599.232C389.735 593.345 386.333 587.414 382.708 581.621C372.186 564.784 360.395 549.043 344.768 536.415C336.421 529.732 328.963 522.008 322.576 513.431C319.781 509.644 317.063 505.816 315.186 501.433C313.31 497.05 312.175 492.534 313.029 487.697C313.258 486.463 313.392 485.212 313.429 483.957C313.698 472.42 316.571 461.811 323.248 452.136C328.198 444.962 330.044 436.709 328.894 427.901C328.231 422.903 326.425 418.126 323.616 413.939C319.504 407.721 313.849 404.311 306.144 405.083C304.581 405.239 303.026 405.44 301.487 405.635C300.563 405.806 299.609 405.707 298.74 405.35C297.871 404.993 297.123 404.394 296.585 403.624C294.449 400.915 292.37 398.124 289.938 395.693C283.892 389.638 276.692 387.675 268.347 390.212C264.17 391.486 261.059 393.887 259.565 398.025C258.399 401.261 256.942 404.549 256.599 407.894C256.109 412.844 253.595 415.889 249.556 418.226C247.665 419.349 245.87 420.627 244.191 422.048C238.252 426.966 236.66 433.288 239.363 440.61C241.366 446.033 244.855 450.418 249.051 454.329C257.364 462.079 266.818 468.21 276.617 473.873C279.585 475.588 282.701 477.085 285.049 479.772C289.288 484.617 291.974 490.036 292.068 496.639C288.718 497.848 286.62 495.268 284.247 494.122C267.399 485.977 249.761 480.747 231.106 478.959C217.647 477.728 204.086 478.189 190.741 480.332C186.414 481.064 182.039 481.471 177.651 481.549C172.232 481.555 168.016 479.017 165.558 474.009C162.226 467.158 166.595 458.633 174.124 457.218C177.128 456.652 179.783 457.646 182.015 459.483C183.684 460.866 184.96 462.719 186.462 464.317C189.195 467.203 192.394 467.756 195.729 465.922C197.257 465.098 198.589 463.955 199.636 462.57C200.683 461.186 201.42 459.593 201.798 457.898C204.147 449 203.104 439.547 198.873 431.375C196.019 425.687 191.397 422.207 185.105 421.024C183.873 420.793 182.611 420.387 181.39 420.478C176.457 420.834 173.063 418.556 170.374 414.66C169.506 413.397 168.126 412.486 166.994 411.405C161.984 406.666 156.028 405.135 149.577 407.158C134.511 411.893 122.84 420.692 116.819 435.859C112.201 447.507 114.589 458.063 121.977 467.701C126.99 474.246 133.525 479.177 140.236 483.862C142.803 485.658 145.455 487.253 147.886 488.819C148.283 491.809 145.942 492.006 144.484 492.812C130.981 500.273 118.192 508.719 106.398 518.735C99.6688 524.393 93.5431 530.733 88.1188 537.652C76.7976 552.375 62.7969 564.826 46.8532 574.351C46.3705 574.736 45.9425 575.185 45.5811 575.685C45.265 577.844 46.8209 579.163 47.9474 580.592C53.5861 587.745 59.2458 594.882 64.9264 602.002C65.1175 602.236 65.368 602.413 65.6516 602.517C65.9351 602.62 66.2413 602.645 66.5378 602.589C66.8344 602.533 67.1103 602.398 67.3368 602.199C67.5632 601.999 67.7318 601.742 67.8246 601.455C68.5944 599.403 69.2551 597.31 69.9774 595.238C74.4168 582.426 80.6606 570.489 87.6683 558.924C91.1197 553.224 95.9812 548.692 100.596 544.023C112.774 531.692 126.087 520.745 141.201 512.122C166.241 497.858 193.191 492.38 221.802 494.047C232.488 494.681 243.059 495.979 253.376 498.98C257.288 500.123 261.198 501.28 264.755 503.377C268.501 504.657 268.501 504.657 270.46 507.085C269.625 507.391 268.734 507.512 267.848 507.439C266.962 507.365 266.103 507.099 265.331 506.66Z" fill="url(#paint1_radial_158_2285)" fill-opacity="0.36"/>
</g>
<defs>
<radialGradient id="paint0_radial_158_2285" cx="0" cy="0" r="1" gradientUnits="userSpaceOnUse" gradientTransform="translate(2210.29 708.687) rotate(-125.062) scale(1190.81 1063.54)">
<stop stop-color="#FADAAC"/>
<stop offset="1" stop-color="#453723" stop-opacity="0.38"/>
</radialGradient>
<radialGradient id="paint1_radial_158_2285" cx="0" cy="0" r="1" gradientUnits="userSpaceOnUse" gradientTransform="translate(154.538 708.687) rotate(-54.9383) scale(1190.81 1063.54)">
<stop stop-color="#FADAAC"/>
<stop offset="1" stop-color="#453723" stop-opacity="0.38"/>
</radialGradient>
</defs>
</svg>
