<svg preserveAspectRatio="none" width="100%" height="100%" overflow="visible" style="display: block;" viewBox="0 0 170 257" fill="none" xmlns="http://www.w3.org/2000/svg">
<path id="Vector" d="M3.92042 48.8818C11.0554 37.4554 21.4967 28.4586 33.8644 23.0804C37.7595 21.4283 41.46 19.1932 45.209 17.1524C47.3922 16.2344 49.1652 14.5536 50.1959 12.4248C51.2266 10.296 51.4443 7.86535 50.8083 5.58789C49.6398 0.777442 52.0256 0 56.1155 0C74.3737 0 92.681 0 110.94 0C115.808 0 118.973 1.21476 116.88 7.1914C116.222 9.02268 116.272 11.0329 117.019 12.8297C117.766 14.6265 119.157 16.081 120.921 16.9095C124.328 19.1265 127.929 21.0293 131.682 22.5945C140.265 25.7977 148.096 30.7292 154.689 37.0822C161.281 43.4352 166.493 51.0739 170 59.5231C167.614 60.252 166.64 57.9683 165.131 57.1908C153.3 51.5057 137.378 48.7361 129.88 66.3741C128.275 69.9149 126.141 73.1915 123.551 76.0923C117.415 83.0897 110.453 82.6037 104.562 75.9951C102.417 72.9665 100.62 69.7067 99.2053 66.2775C98.2807 64.5277 96.8686 62.9243 94.5801 63.945C93.7991 64.3769 93.216 65.0935 92.9532 65.9447C92.6898 66.7966 92.7672 67.7164 93.1679 68.5121C96.3817 78.2303 100.617 87.4138 109.82 92.8073C122.142 100.528 130.976 112.724 134.457 126.821C135.751 130.219 136.03 133.918 135.261 137.47C134.492 141.024 132.707 144.278 130.123 146.84C125.254 151.262 120.775 150.242 117.902 144.313C126.715 136.587 127.884 129.736 122.041 120.941C117.415 114.333 112.547 113.361 104.562 117.589C104.902 110.251 103.247 108.842 96.5278 110.592L95.8948 109.863C98.1003 107.673 100.949 106.243 104.026 105.781C106.801 104.955 110.258 104.08 109.284 100.193C108.31 96.3057 104.756 96.5002 101.591 97.1806C92.2915 99.1243 87.7149 113.215 93.6549 121.865C94.3097 118.809 96.0365 116.086 98.5242 114.187C100.246 115.865 102.405 117.026 104.756 117.54C99.1079 130.854 102.468 142.904 110.55 153.934C112.249 156.803 114.881 159.004 118.009 160.171C121.136 161.338 124.569 161.4 127.738 160.348C130.977 159.23 133.877 157.303 136.161 154.752C138.444 152.201 140.037 149.109 140.786 145.771C143.252 136.053 142.395 125.793 138.352 116.617C132.168 100.242 136.599 84.9362 143.61 70.2127C144.268 68.7209 145.313 67.4303 146.636 66.4738C147.959 65.5179 149.513 64.9302 151.14 64.7719C152.765 64.6137 154.404 64.8903 155.888 65.5733C157.371 66.2563 158.646 67.3207 159.58 68.658C163.428 73.0625 165.825 78.5419 166.445 84.3529C170.487 111.903 163.914 137.365 151.4 161.66C149.015 166.276 146.532 170.747 143.756 175.314C142.588 177.355 141.516 179.687 143.221 181.825C144.925 183.963 147.408 183.234 149.648 182.262L152.228 180.999C149.988 186.392 147.36 191.64 145.558 197.083C140.749 211.022 133.64 224.062 124.524 235.663C122.918 237.607 120.97 239.842 121.311 242.32C122.187 248.831 118 250.823 113.131 252.281C93.3833 258.573 72.1625 258.573 52.415 252.281C47.254 250.58 43.018 248.102 43.4562 241.251C43.0856 237.596 41.4902 234.171 38.9281 231.533C32.37 223.149 27.3131 213.696 23.9805 203.593C30.4075 202.282 31.6733 199.998 28.6059 193.875C22.844 182.656 17.9606 171.008 13.9991 159.036C11.3083 152.039 9.46138 144.748 8.49725 137.317C14.4577 144.652 23.0177 149.42 32.4037 150.63C47.2485 152.94 61.8971 156.368 76.224 160.883C80.3273 162.173 83.9643 164.63 86.6886 167.954C89.413 171.276 91.1066 175.321 91.5611 179.59C92.0312 182.602 91.4187 185.683 89.8325 188.287C88.2468 190.893 85.7897 192.854 82.8943 193.827C80.4946 194.941 77.7847 195.201 75.2158 194.564C72.6469 193.928 70.374 192.433 68.7746 190.328C67.8494 189.114 66.8269 187.705 67.5573 186.052C68.2877 184.4 69.9432 184.303 71.5501 184.594C73.157 184.886 76.0292 185.421 77.3439 183.186C77.9158 182.055 78.1592 180.786 78.0469 179.524C77.9351 178.262 77.4725 177.056 76.7109 176.043C74.8388 173.462 72.2262 171.51 69.2184 170.443C66.2101 169.376 62.9489 169.244 59.8645 170.066C57.1883 170.679 54.8139 172.213 53.1579 174.399C51.5019 176.584 50.6701 179.283 50.8083 182.02C50.4675 194.896 64.7824 205.197 81.0933 203.788C83.9631 203.677 86.7729 202.935 89.3212 201.613C91.8701 200.291 94.0937 198.424 95.8342 196.144C97.5747 193.863 98.7882 191.227 99.3875 188.424C99.9875 185.621 99.9588 182.721 99.3027 179.93C98.4861 175.035 96.539 170.396 93.6149 166.381C90.6908 162.367 86.8703 159.087 82.4561 156.801C68.8901 149.294 54.239 143.934 39.0255 140.912C27.8027 138.287 17.7281 132.118 10.2987 123.322C20.8644 118.463 25.149 108.745 29.7745 99.7076C35.5685 88.0943 41.0704 76.3839 46.8158 64.7221C47.5018 62.8283 48.7604 61.194 50.4177 60.045C52.0749 58.896 54.0489 58.2891 56.0668 58.3084C58.1117 60.3006 57.6735 62.536 57.7709 64.6249C57.8683 66.7143 57.7709 69.1926 60.5949 69.4843C63.419 69.7759 67.2164 70.796 69.2128 67.8323C70.5613 66.0345 71.4633 63.9431 71.8441 61.73C72.2249 59.5168 72.0745 57.245 71.404 55.1014C70.7048 52.9929 69.417 51.1274 67.6921 49.7244C65.9672 48.3213 63.8766 47.439 61.666 47.1812C58.1081 46.4845 54.4246 46.8189 51.0509 48.1449C47.6774 49.4709 44.7547 51.7331 42.6285 54.6641C40.1229 58.1106 37.9235 61.7687 36.0554 65.597C32.8906 71.7196 30.0667 77.9873 26.7558 85.0328L15.0703 75.3152L13.4149 76.0437C13.9991 82.7495 19.8906 88.92 16.2875 96.1119C12.6659 102.367 8.19255 108.09 2.99533 113.118C0.901951 108.872 0.0578194 104.121 0.56086 99.4159C-0.120792 83.8182 -1.72754 68.0267 7.32868 53.7409C8.93543 51.0684 8.30248 48.2988 3.92042 48.8818ZM29.3363 123.808L27.9243 123.565L28.7033 124.537V125.703L26.9018 125.12L25.4898 120.261C25.1003 123.031 24.6134 124.634 25.4898 126.189C29.2389 133.72 36.4936 138.482 42.8232 137.317C46.2315 136.685 49.8345 134.984 49.0555 131.048C48.2764 127.112 44.6735 127.793 41.46 128.667C38.2465 129.542 34.0105 131.486 30.6509 127.987C33.6209 127.987 37.0292 129.007 38.1978 124.731C39.0255 121.816 37.6135 120.844 34.546 120.747C33.767 122.642 32.9393 125.995 29.3363 123.808ZM50.1266 214.721C52.3663 218.899 46.7671 218.025 46.3289 220.697C46.6697 223.321 48.4225 224.001 50.857 223.369C54.5574 222.398 54.1679 219.24 54.3626 216.421C57.1379 220.065 55.3364 223.71 54.3626 227.354C53.3888 230.998 52.5124 233.574 56.3102 234.642C60.108 235.712 61.6173 232.505 62.786 229.492C65.5128 222.641 56.8945 208.647 47.4487 210.056C48.2278 211.66 50.6623 211.368 51.0031 213.263C49.2502 212.971 49.6398 213.798 50.1266 214.721ZM119.509 206.897L118.925 208.015H119.85L116.831 211.222C127.153 210.299 136.307 197.519 133.337 187.947C132.119 183.915 129.783 179.687 124.767 181.29C119.752 182.894 122.333 187.219 123.356 190.571C123.697 191.689 124.232 192.709 124.621 193.827C125.8 195.999 126.21 198.504 125.786 200.938C125.362 203.371 124.129 205.591 122.285 207.238C121.457 204.759 124.037 203.302 124.134 201.067C124.259 200.41 124.247 199.734 124.098 199.082C123.949 198.431 123.667 197.816 123.27 197.278C122.872 196.74 122.368 196.289 121.788 195.955C121.208 195.62 120.564 195.408 119.899 195.333C117.805 194.993 115.517 194.556 115.03 197.617C114.543 200.678 117.367 200.824 119.314 201.553C119.655 201.553 119.85 202.087 120.191 202.476C119.801 204.079 119.655 205.391 119.509 206.897ZM119.85 58.3084C117.707 59.9118 111.962 55.976 112.936 63.1673C118.34 61.7583 116.587 67.006 118.633 68.8524C118.633 69.6301 116.977 69.9703 117.951 71.2335C121.165 70.6502 122.82 68.0753 124.134 65.6942C125.963 63.1978 126.948 60.1857 126.948 57.0936C126.948 54.0016 125.963 50.9897 124.134 48.4931C122.187 46.5981 119.752 45.432 117.415 47.2298C115.079 49.0277 116.247 51.2628 117.415 53.4007C118.584 55.5388 120.093 55.9275 119.85 58.3084ZM43.8457 36.0054C46.9618 32.847 50.6136 34.3047 54.1192 35.0337C57.6248 35.7625 60.7896 36.6371 61.4713 32.4098C62.1529 28.1824 58.6473 26.9676 55.1903 26.4817C52.8887 26.3791 50.5906 26.7543 48.4417 27.5836C46.2928 28.4129 44.3397 29.6782 42.7059 31.2995C41.0721 32.9208 39.7933 34.8628 38.9503 37.0027C38.1073 39.1425 37.7184 41.4337 37.8082 43.7313C37.8082 41.982 40.6809 42.8081 40.3401 40.6701C42.0442 41.7391 43.5536 39.1152 45.209 40.3786C46.8645 41.6419 45.7446 43.5855 47.8383 44.1686C50.9057 44.1686 51.49 41.9335 50.857 39.3096C49.9806 35.4223 46.6697 36.1512 43.8457 36.0054ZM69.505 229.249C71.2092 228.52 72.2318 230.27 73.6926 230.464C74.2563 230.599 74.8419 230.616 75.4131 230.516C75.9837 230.416 76.528 230.199 77.0118 229.88C77.4956 229.561 77.9089 229.147 78.2254 228.662C78.5425 228.177 78.7561 227.633 78.8534 227.062C79.4864 224.244 78.8534 222.203 74.5198 222.447C74.1789 224.876 73.8387 227.937 69.8945 226.577C68.5311 225.119 65.9991 225.264 65.3667 222.787C65.5065 227.354 67.4362 231.684 70.741 234.846C74.0466 238.007 78.4626 239.749 83.0404 239.696C84.5075 239.689 85.9408 239.259 87.1675 238.457C88.3942 237.655 89.3624 236.516 89.9548 235.177C90.2807 234.566 90.4093 233.868 90.3219 233.18C90.2345 232.493 89.9361 231.85 89.4679 231.338C87.1306 229.152 84.5986 230.172 81.8237 230.95C77.49 232.165 73.1083 233.233 69.505 229.249ZM135.187 43.051C138.401 43.051 140.056 42.7109 141.809 42.7595C144.876 42.7595 148.43 42.7595 148.333 38.8723C148.236 34.985 144.584 34.3533 141.322 34.4991C133.191 34.8393 126.374 45.6263 128.809 53.9352C129.977 50.8255 133.288 50.3881 135.09 48.4931C137.281 48.9304 137.086 51.8459 139.375 51.5543C142.636 47.8615 142.296 46.8411 135.187 43.051ZM20.28 58.8915C30.0179 57.1908 37.1266 47.5699 35.2277 39.4554C34.4 35.9569 32.6471 32.1668 28.3625 33.1386C24.0778 34.1104 25.5872 37.9977 26.5123 41.156C27.4374 44.3144 30.0667 48.153 26.7558 52.2346C26.5123 49.0277 27.3887 45.4806 22.9093 45.0432C21.3025 45.0432 19.7932 44.7517 19.2576 46.8411C18.2351 50.534 22.6172 49.2706 23.4449 51.7001C23.1446 54.3619 22.0409 56.8698 20.28 58.8915Z" fill="var(--fill-0, #FFE5C2)"/>
</svg>
