<svg preserveAspectRatio="none" width="100%" height="100%" overflow="visible" style="display: block;" viewBox="0 0 475.312 120" fill="none" xmlns="http://www.w3.org/2000/svg">
<g id="Group 1000002354">
<path id="Vector" d="M440.032 65.8132H419.574C419.574 65.025 419.337 64.2763 419.574 64.1974C424.974 61.1236 424.146 55.9611 424.146 50.9956C424.146 38.3848 424.146 25.8004 424.146 13.2422C424.146 9.53774 424.422 5.91215 420.204 4.05994C419.495 3.74467 419.258 2.83829 419.81 1.57721H439.086C431.202 10.0895 430.571 18.9958 438.219 27.311C441.688 31.2519 453.04 30.3849 456.391 27.311C460.569 23.3702 458.44 18.4441 459.15 13.9515C459.59 11.7116 459.29 9.38924 458.295 7.33483C457.299 5.28042 455.663 3.60538 453.631 2.56243C460.425 0.791691 467.538 0.629755 474.405 2.08951C465.26 7.88258 469.044 16.7101 468.611 24.3948C468.177 32.0795 468.611 40.4341 468.611 48.4734C468.611 54.5818 466.955 61.2418 475.312 64.6704L474.011 65.6162H454.853C454.853 65.1827 454.499 64.7098 454.617 64.6309C462.225 58.8379 458.914 50.6409 458.914 43.4291C458.914 37.3996 452.528 33.774 444.762 34.2075C437.864 34.5622 433.883 38.1484 433.686 44.5326C433.686 48.4734 433.686 52.099 433.686 55.8823C433.094 60.296 437.036 61.9906 440.032 65.8132Z" fill="var(--fill-0, #FFF4DE)"/>
<path id="Vector_2" d="M124.011 1.89251C136.744 1.45901 148.688 0.000903485 160.474 2.36542C162.946 2.66822 165.255 3.75938 167.059 5.47718C168.862 7.19499 170.064 9.448 170.486 11.9023C171.55 18.1288 170.959 24.1978 165.165 28.4145C163.548 29.5968 161.775 30.582 159.725 31.8824L163.667 34.1681C166.666 35.8321 169.051 38.4155 170.471 41.5374C171.89 44.6594 172.269 48.1546 171.55 51.5079C171.023 54.6118 169.607 57.496 167.473 59.8113C165.339 62.1265 162.579 63.7733 159.528 64.5522C147.939 67.6654 136.31 65.695 124.248 65.6556C132.92 58.5621 128.387 49.3799 129.057 41.3011C129.727 33.2223 129.057 25.5377 129.057 17.6559C129.175 11.9023 130.673 5.95159 124.011 1.89251ZM138.596 48.0794C138.596 50.6015 138.596 53.1237 138.596 55.6064C138.569 56.7914 138.916 57.9549 139.589 58.9313C140.261 59.9077 141.224 60.6472 142.341 61.0448C144.491 61.8547 146.802 62.1453 149.086 61.8928C151.37 61.6403 153.562 60.8519 155.483 59.5919C157.405 58.3319 159.001 56.6359 160.142 54.6421C161.283 52.6483 161.937 50.4132 162.05 48.1188C162.05 39.8036 157.084 35.114 147.86 34.9957C139.621 34.9957 138.478 36.3356 138.478 46.8183C138.557 47.1336 138.557 47.6065 138.596 48.0794ZM138.596 18.4835C138.695 20.0583 138.695 21.6378 138.596 23.2126C138.084 27.7051 139.424 30.2667 144.509 29.5574C145.291 29.5401 146.072 29.6196 146.835 29.7938C148.533 30.1089 150.278 30.0618 151.957 29.6556C153.635 29.2493 155.209 28.4931 156.575 27.4364C157.941 26.3797 159.068 25.0465 159.883 23.524C160.697 22.0015 161.181 20.3241 161.302 18.6018C161.972 10.72 157.754 6.10923 149.476 5.79396C139.188 5.43928 138.833 5.79396 138.833 17.6165L138.596 18.4835Z" fill="var(--fill-0, #FFF4DE)"/>
<path id="Vector_3" d="M407.827 1.81375C399.943 6.73982 402.387 14.2275 402.268 20.8875C402.268 31.7249 402.268 42.6016 402.268 53.439C402.268 57.3799 402.268 61.3207 406.92 63.1335C407.629 63.37 407.905 64.3158 407.472 65.6557H388.551C388.551 65.0645 388.196 64.5916 388.314 64.5128C396.198 57.7739 391.98 48.7494 392.65 40.8677C392.58 39.871 392.134 38.9381 391.403 38.2577C390.671 37.5773 389.708 37.2002 388.708 37.2027C386.991 36.9341 385.233 37.1243 383.613 37.7542C381.994 38.384 380.569 39.431 379.484 40.7889C375.627 47.0848 372.705 53.9082 370.812 61.0449C369.314 65.2222 367.343 66.9168 362.929 66.2862C359.714 66.3722 356.498 66.2009 353.31 65.7739C353.306 65.0893 353.517 64.4206 353.913 63.8621C354.309 63.3035 354.87 62.8833 355.518 62.6606C358.931 60.6254 361.525 57.4608 362.85 53.7149C364.986 46.7392 369.58 40.7746 375.779 36.9268L372.783 35.5475C364.466 31.6066 360.209 25.7348 360.958 18.72C362.022 9.06493 365.767 4.84822 375.858 2.64134C385.949 0.434459 396.75 1.41966 407.827 1.81375ZM392.808 21.8333C392.808 17.8925 392.808 15.3703 392.808 12.8482C392.992 11.4571 392.703 10.0446 391.988 8.83707C391.274 7.6295 390.174 6.69669 388.866 6.1881C386.983 5.64898 385.008 5.50561 383.066 5.76702C381.124 6.02844 379.258 6.68898 377.584 7.70704C375.91 8.7251 374.466 10.0786 373.341 11.6824C372.216 13.2861 371.436 15.1053 371.049 17.0255C369.945 25.9318 374.399 31.9219 382.874 32.2372C395.094 32.6707 392.611 32.7889 392.808 21.8333Z" fill="var(--fill-0, #FFF4DE)"/>
<path id="Vector_4" d="M29.8006 31.6066C35.8815 34.9408 40.4835 40.4421 42.6905 47.0153C45.4498 53.3207 47.1842 60.6901 54.8315 63.5669C55.1468 63.5669 55.1468 64.6309 55.3833 65.6162C50.2681 66.2022 45.1167 66.413 39.9706 66.2467C37.1719 58.7591 34.6097 51.3108 31.6533 44.0991C29.8794 39.4883 27.7114 34.8775 21.2467 34.9563C20.418 34.8572 19.5777 34.9407 18.7848 35.201C17.9918 35.4613 17.2655 35.892 16.6569 36.4629C16.0483 37.0338 15.5721 37.7311 15.2618 38.5056C14.9515 39.2802 14.8147 40.1133 14.8609 40.9464C14.5849 46.2666 14.8609 51.6261 14.8609 56.9857C14.8609 60.9265 17.975 62.0694 20.2218 64.8674C13.7369 66.2265 7.05929 66.4 0.512444 65.3797C8.79038 59.1926 4.80909 50.7985 5.28211 43.4291C5.83397 34.7986 5.28211 26.1288 5.28211 17.4589C5.28211 11.784 6.85886 5.63629 0 1.69543H19.8276C19.8276 1.89247 20.0641 2.40478 19.8276 2.44419C11.3132 8.63134 15.4522 17.5771 14.8609 25.4194C14.8699 26.6438 15.3498 27.8179 16.2011 28.6982C17.0523 29.5786 18.2097 30.0979 19.4334 30.1484C20.9171 30.4545 22.4603 30.261 23.8223 29.598C25.1843 28.935 26.2885 27.8398 26.9624 26.4834C29.6035 20.7692 32.008 14.9761 34.452 9.18307C35.2969 6.79953 36.8011 4.70468 38.7898 3.14203C40.7786 1.57938 43.17 0.613104 45.6863 0.355538C46.6874 0.149824 47.7211 0.162736 48.7167 0.393391C49.7123 0.624047 50.6463 1.067 51.4548 1.69194C52.2634 2.31689 52.9273 3.10908 53.4012 4.0143C53.8752 4.91952 54.1479 5.91642 54.2008 6.93678C54.2008 8.8678 54.4373 10.8776 52.5452 12.0599C50.6531 13.2422 49.3917 11.3505 48.0909 9.85301C45.6469 6.97618 43.0453 7.52791 41.1926 10.523C39.6891 13.1193 38.3719 15.819 37.2507 18.6017C35.8681 23.4804 33.31 27.9457 29.8006 31.6066Z" fill="var(--fill-0, #FFF4DE)"/>
<path id="Vector_5" d="M182.548 1.57721H204.071C195.044 7.37027 197.646 15.3308 197.251 22.5032C196.969 24.1625 197.319 25.8673 198.23 27.2821C199.142 28.697 200.551 29.7194 202.179 30.1484C203.832 30.5105 205.56 30.2633 207.045 29.4522C208.53 28.6411 209.671 27.3209 210.26 25.7347C212.506 21.0845 214.201 16.1584 216.251 11.3899C218.301 6.6215 221.179 1.30135 228.077 0.394954C229.373 0.13278 230.716 0.218543 231.969 0.643543C233.221 1.06854 234.339 1.81762 235.208 2.81456C236.077 3.81151 236.667 5.02076 236.916 6.31935C237.166 7.61794 237.068 8.95953 236.631 10.2077C235.645 13.1239 233.674 13.0845 231.585 11.1535C227.643 7.21264 224.923 7.84317 222.598 12.9663C220.272 18.0894 218.656 22.1879 216.37 26.7199C215.277 28.5484 214.024 30.276 212.625 31.8824C221.494 35.8233 224.214 44.1779 227.683 52.0596C229.732 56.6704 231.625 61.3995 236.907 63.2911C237.301 63.2911 237.498 64.2763 238.168 65.5374H222.401C219.286 57.6556 216.133 49.2222 212.664 40.9858C212.034 39.0138 210.727 37.3276 208.975 36.2246C207.222 35.1215 205.137 34.6723 203.085 34.9563C199.656 35.2321 197.803 36.6114 197.803 40.1582C197.803 45.9513 198.158 51.9808 197.803 57.6162C197.527 61.5571 202.06 61.9512 202.77 65.4979H183.455C183.455 65.0644 183.139 64.5521 183.218 64.5127C189.959 59.8625 188.54 52.6902 188.579 46.2666C188.579 37.1238 188.579 28.0204 188.579 18.6805C188.579 8.82839 188.579 8.82839 182.548 1.57721Z" fill="var(--fill-0, #FFF4DE)"/>
<path id="Vector_6" d="M61.1392 34.4045C60.5178 27.2892 61.8824 20.141 65.081 13.7545C67.2441 9.32697 70.6916 5.65397 74.9739 3.21461C79.2562 0.775252 84.1744 -0.317235 89.087 0.0796672C100.716 1.06488 108.047 6.42445 111.043 17.4589C114.512 30.3455 114.985 43.3109 107.574 55.1729C104.717 59.6655 100.5 63.1282 95.5362 65.0564C90.5727 66.9846 85.1229 67.2773 79.9813 65.892C75.3767 64.7435 71.214 62.2605 68.0161 58.7549C64.8181 55.2493 62.7274 50.8772 62.0064 46.1877C61.1909 42.3165 60.8992 38.3534 61.1392 34.4045ZM71.4274 32.8282C71.0823 38.3726 71.6415 43.9361 73.083 49.301C75.527 57.498 79.6265 61.5177 86.3671 61.6359C94.2509 61.6359 98.7052 58.4832 100.952 49.8133C104.13 38.1328 103.676 25.7621 99.6513 14.3456C98.6938 11.7474 96.9967 9.48612 94.7693 7.8405C92.5419 6.19489 89.8815 5.23687 87.1161 5.08456C84.3495 5.09053 81.6485 5.92793 79.364 7.48805C77.0794 9.04817 75.3168 11.2589 74.305 13.8333C71.857 19.8484 70.8708 26.3581 71.4274 32.8282Z" fill="var(--fill-0, #FFF4DE)"/>
<path id="Vector_7" d="M298.833 65.7739H278.099C277.911 65.5466 277.781 65.277 277.721 64.9883C277.661 64.6995 277.672 64.4005 277.753 64.117C277.835 63.8336 277.984 63.5743 278.189 63.3617C278.393 63.1491 278.647 62.9896 278.927 62.897C285.904 59.9808 282.198 55.0153 281.528 50.4833C281.534 49.5228 281.317 48.574 280.893 47.7121C280.468 46.8503 279.849 46.099 279.084 45.5178C278.319 44.9366 277.43 44.5414 276.485 44.3636C275.541 44.1857 274.569 44.2301 273.645 44.4932C271.295 44.6508 268.938 44.6508 266.589 44.4932C264.79 44.3288 262.979 44.6018 261.309 45.2888C259.639 45.9757 258.16 47.0564 256.999 48.4385C255.837 49.8205 255.027 51.4631 254.638 53.2259C254.248 54.9887 254.291 56.8195 254.763 58.5621C254.817 59.4527 255.14 60.306 255.689 61.0095C256.238 61.713 256.987 62.2337 257.838 62.5029C259.178 62.9758 260.636 63.3699 260.006 65.9709C253.533 66.5486 247.016 66.4164 240.572 65.5768C253.58 46.976 257.601 24.9072 266.431 5.00582C267.732 2.05018 269.151 0.11916 272.541 0.237386C275.931 0.355611 276.68 3.03538 277.468 5.67576C282.277 21.4392 287.126 37.4785 291.895 53.3996C292.408 55.6817 293.368 57.8393 294.722 59.7471C296.075 61.6549 297.794 63.2748 299.779 64.5128L298.833 65.7739ZM276.522 32.7889C276.565 32.3038 276.565 31.8159 276.522 31.3308C275.34 27.3899 274.118 23.449 272.935 19.5082C272.541 18.0501 271.831 16.6708 270.294 16.5525C268.757 16.4343 267.613 17.9318 267.062 19.4294C265.643 23.3702 264.421 27.3111 263.12 30.9761C262.646 32.3267 262.636 33.797 263.093 35.1535C263.551 36.51 264.448 37.6751 265.643 38.4637C266.612 39.2929 267.814 39.8024 269.084 39.9223C270.354 40.0422 271.63 39.7668 272.738 39.1337C273.871 38.5026 274.818 37.5836 275.483 36.4695C276.147 35.3555 276.506 34.0858 276.522 32.7889Z" fill="var(--fill-0, #FFF4DE)"/>
<path id="Vector_8" d="M303.642 36.5326C304.037 24.71 305.377 14.7396 313.182 7.40963C315.911 4.8004 319.204 2.85341 322.806 1.7191C326.408 0.584796 330.223 0.29353 333.955 0.867805C335.02 0.867805 336.123 0.867805 337.227 0.867805C346.569 1.10426 348.107 2.83823 347.358 12.2569C347.358 13.715 347.358 15.2125 345.505 15.6854C343.652 16.1583 342.549 14.8578 341.839 13.4391C340.262 10.3653 339.001 7.17318 335.335 5.79388C332.48 4.72695 329.347 4.66477 326.451 5.61762C323.556 6.57046 321.073 8.4814 319.41 11.0352C314.246 18.2076 313.812 26.7987 313.931 34.6804C313.704 40.9574 314.791 47.2125 317.124 53.0448C318.025 55.5715 319.656 57.7739 321.81 59.3734C323.965 60.9728 326.545 61.8974 329.225 62.0299C331.836 62.2465 334.445 61.5899 336.643 60.1633C338.84 58.7368 340.502 56.621 341.366 54.1482C342.076 52.2566 343.022 49.9709 345.544 50.2074C348.067 50.4438 347.555 53.3206 347.594 55.2517C347.594 64.8674 347.161 65.6949 337.464 65.7737C333.451 66.2879 329.398 66.4067 325.362 66.1284C313.852 64.0792 307.072 57.892 305.18 46.4241C304.291 43.1964 303.776 39.8776 303.642 36.5326Z" fill="var(--fill-0, #FFF4DE)"/>
<path id="Vector_9" d="M363.244 120C362.574 119.251 361.864 118.778 361.825 118.305C361.391 110.66 356.385 110.069 350.315 110.424C345.387 110.739 340.421 110.424 335.493 110.424C339.059 100.881 339.059 90.371 335.493 80.8278C339.13 80.1713 342.855 80.1713 346.491 80.8278C341.367 87.9608 343.732 95.2908 343.771 102.266C343.791 102.949 343.956 103.62 344.255 104.234C344.555 104.848 344.981 105.392 345.507 105.828C346.033 106.264 346.646 106.584 347.305 106.764C347.964 106.945 348.654 106.984 349.329 106.877C349.963 106.953 350.606 106.9 351.219 106.722C351.832 106.543 352.403 106.242 352.896 105.837C353.39 105.432 353.796 104.931 354.091 104.365C354.386 103.799 354.563 103.179 354.611 102.542C354.611 95.5667 357.055 88.2367 352.128 81.4978C355.918 80.5633 359.852 80.3627 363.717 80.9067C358.12 88.7884 361.549 97.143 360.642 104.946C360.642 106.246 361.549 106.64 362.535 107.31C364.25 108.936 365.278 111.155 365.41 113.514C365.542 115.873 364.767 118.193 363.244 120Z" fill="var(--fill-0, #FFF4DE)"/>
<path id="Vector_10" d="M319.095 81.1037C315.153 87.212 315.153 104.434 319.095 109.517C315.429 111.921 311.921 109.793 307.743 109.517C312.67 104.355 309.95 98.6799 310.699 93.1627C303.249 95.6061 297.691 104.039 299.78 109.399C296.524 109.849 293.221 109.849 289.965 109.399C292.988 100.106 292.849 90.0735 289.571 80.8672C293.136 80.0353 296.845 80.0353 300.411 80.8672C296.981 86.1086 295.759 91.074 299.504 96.3154C307.664 91.4681 310.581 86.1874 307.664 80.946C311.438 80.1426 315.345 80.1965 319.095 81.1037Z" fill="var(--fill-0, #FFF4DE)"/>
<path id="Vector_11" d="M97.8767 81.1037C93.9348 87.4879 93.9348 104.434 98.1921 109.872C94.1628 110.74 90.0096 110.874 85.9328 110.266C91.3726 103.685 88.9681 96.7883 89.2834 90.2859C89.4252 89.495 89.3832 88.6821 89.1607 87.91C88.9381 87.1379 88.541 86.4273 88 85.833C87.459 85.2388 86.7885 84.777 86.0405 84.4831C85.2925 84.1892 84.4869 84.0712 83.686 84.1381C79.3893 84.1381 77.9702 86.6603 78.0097 90.5617C78.0491 94.4632 78.0097 97.8129 78.0097 101.439C78.0097 104.158 77.3395 107.153 81.9515 109.084C78.0553 109.834 74.0667 109.98 70.1259 109.517C73.4765 101.911 73.2006 87.015 69.2981 81.1037H97.8767Z" fill="var(--fill-0, #FFF4DE)"/>
<path id="Vector_12" d="M216.449 82.4436H226.106C223.834 91.86 223.726 101.669 225.791 111.133H217.592C218.656 106.719 221.297 101.911 216.685 98.4435C215.302 97.3323 213.559 96.7668 211.786 96.8539C210.014 96.9411 208.335 97.6749 207.067 98.9164C204.071 102.306 205.254 106.798 207.067 111.054C204.173 111.623 201.21 111.756 198.277 111.448C200.542 101.939 200.542 92.0314 198.277 82.5224H206.594C205.687 86.4633 202.652 90.9559 207.737 93.7539C209.152 94.7945 210.889 95.3019 212.642 95.1866C214.394 95.0712 216.05 94.3405 217.316 93.1234C218.544 91.5617 219.138 89.5938 218.977 87.6135C218.816 85.6333 217.913 83.7868 216.449 82.4436Z" fill="var(--fill-0, #FFF4DE)"/>
<path id="Vector_13" d="M114.433 102.897L115.774 105.655C121.253 104.237 123.973 86.7786 119.715 81.0643C127.384 80.3158 135.107 80.3158 142.775 81.0643C137.493 87.7244 137.375 103.015 142.263 110.266C138.358 111.024 134.343 111.024 130.437 110.266C135.68 102.148 132.053 93.5174 133.275 85.5963C132.546 84.9261 131.623 84.5042 130.638 84.3909C129.654 84.2777 128.659 84.4789 127.796 84.9658C126.739 91.6551 125.13 98.2456 122.987 104.67C122.6 105.973 121.919 107.169 120.997 108.167C120.074 109.164 118.934 109.936 117.666 110.424C115.695 111.054 113.054 111.645 111.713 109.241C110.373 106.838 111.122 104.946 114.433 102.897Z" fill="var(--fill-0, #FFF4DE)"/>
<path id="Vector_14" d="M243.844 82.4436H253.226C251.058 86.3845 248.929 90.3253 253.423 93.5174C254.881 94.6482 256.689 95.232 258.533 95.1672C260.377 95.1024 262.14 94.3931 263.514 93.1628C266.628 90.2071 265.643 86.3057 262.765 82.6407H271.516C269.052 92.0341 269.257 101.928 272.108 111.212H262.726C265.722 107.271 266.944 102.778 263.396 99.3893C262.056 98.0124 260.258 97.1724 258.342 97.0273C256.425 96.8822 254.522 97.4418 252.989 98.6012C249.954 100.769 250.27 105.971 253.502 110.818C250.363 111.584 247.096 111.665 243.923 111.054C247.155 103.645 247.195 88.9461 243.844 82.4436Z" fill="var(--fill-0, #FFF4DE)"/>
<path id="Vector_15" d="M396.277 93.3597C396.277 89.4189 396.277 86.1874 393.202 84.2564C390.128 82.3253 387.211 83.8623 385.319 86.7785C385.051 87.264 384.612 87.6332 384.088 87.8151C383.564 87.997 382.992 87.9787 382.48 87.7637C381.943 87.6089 381.471 87.2823 381.136 86.834C380.802 86.3857 380.623 85.8403 380.628 85.281C380.628 83.9411 381.456 83.35 382.52 82.8771C386.639 80.8603 391.242 80.041 395.804 80.5126C400.377 81.1825 401.953 84.4534 402.15 88.3943C402.348 92.3351 402.15 97.1824 402.15 101.596C401.828 103.092 402.048 104.654 402.77 106.003C403.492 107.353 404.669 108.403 406.092 108.966C401.362 109.399 397.893 111.133 396.119 106.246C393.346 108.828 389.736 110.325 385.949 110.463C384.377 110.485 382.84 109.992 381.573 109.06C380.307 108.128 379.38 106.808 378.933 105.301C378.425 103.797 378.445 102.166 378.99 100.676C379.535 99.1856 380.571 97.9256 381.929 97.1036C386.268 94.5414 391.238 93.2445 396.277 93.3597ZM387.368 106.837C392.926 106.837 396.435 103.488 396.198 99.6651C396.198 97.34 394.464 96.5124 392.256 96.5124C387.92 96.5124 384.018 99.4681 384.373 102.778C384.727 106.089 386.422 106.798 387.368 106.837Z" fill="var(--fill-0, #FFF4DE)"/>
<path id="Vector_16" d="M163.351 96.4732C163.824 101.36 164.14 105.537 168.988 107.468C173.837 109.399 176.596 105.458 180.222 105.025C181.366 106.365 180.971 107.192 180.222 107.862C178.345 109.686 176.008 110.965 173.459 111.562C170.911 112.159 168.248 112.052 165.756 111.251C163.65 110.562 161.787 109.281 160.389 107.562C158.991 105.843 158.117 103.759 157.872 101.557C155.704 92.1776 160.198 83.7836 168.357 81.8526C170.035 81.3908 171.799 81.3395 173.501 81.7031C175.202 82.0666 176.791 82.8343 178.133 83.9412C179.665 84.9771 180.857 86.4426 181.558 88.1534C182.259 89.8643 182.439 91.7442 182.075 93.5569C181.129 97.4978 177.463 96.5126 174.625 96.5914C170.801 96.552 167.214 96.4732 163.351 96.4732ZM164.297 93.6357H173.048C175.729 93.6357 176.754 92.4141 175.886 89.6949C175.019 86.9757 173.521 83.7048 169.816 84.4536C166.111 85.2023 163.706 88.4338 164.297 93.6357Z" fill="var(--fill-0, #FFF4DE)"/>
</g>
</svg>
