<svg preserveAspectRatio="none" width="100%" height="100%" overflow="visible" style="display: block;" viewBox="0 0 324 9" fill="none" xmlns="http://www.w3.org/2000/svg">
<path id="Vector" d="M0 4.60337C26.3007 3.91957 52.5906 3.24541 78.8586 2.0897C91.6297 1.52789 104.401 0.942014 117.172 0.332056C118.611 0.235244 120.048 0.54371 121.277 1.21328C124.305 2.84091 127.414 4.25665 131.172 4.10256C133.671 4.01107 135.713 4.0207 137.706 1.9356C140.657 -1.16074 147.54 -0.346923 150.23 2.99019C150.483 3.35373 150.842 3.65026 151.269 3.84856C151.697 4.04686 152.177 4.13959 152.659 4.11701C155.882 4.22295 159.002 4.23258 161.044 1.4348C161.681 0.553567 162.525 0.572829 163.157 1.47332C165.259 4.43964 168.602 4.14108 171.831 4.07848C172.228 4.07985 172.618 3.99221 172.966 3.82376C173.313 3.65531 173.607 3.41157 173.819 3.11539C177.407 -0.944041 184.388 -0.900701 187.721 3.23096C187.902 3.48869 188.156 3.70045 188.458 3.8456C188.759 3.99075 189.098 4.06435 189.442 4.05922C194.288 4.43483 198.84 3.72214 202.886 1.20365C203.994 0.510575 205.346 0.189596 206.698 0.298348C244.706 2.2759 282.752 3.65954 320.836 4.44927C321.898 4.47335 322.955 4.54558 324 4.52632C304.756 5.08491 285.507 5.53275 266.28 6.23099C246.437 6.94849 226.606 7.90677 206.768 8.77837C205.512 8.90913 204.245 8.63749 203.196 8.01271C199.312 5.57633 194.55 4.48958 189.817 4.95971C189.384 4.94649 188.955 5.03433 188.573 5.21438C188.19 5.39444 187.868 5.66036 187.639 5.9854C184.475 9.99186 176.994 9.98705 173.857 6.02874C173.34 5.37866 172.948 4.96453 171.978 4.96934C168.755 4.96934 165.368 4.43483 163.266 7.49264C162.411 8.73985 161.431 8.22459 160.756 7.37226C158.964 5.11381 156.487 4.78154 153.617 4.96453C151.983 5.0512 150.894 5.25827 149.805 6.57289C147.083 9.87629 139.459 9.7848 136.845 6.43806C135.914 5.24864 134.961 5.0801 133.535 4.99342C129.065 4.61957 124.595 5.70368 120.967 8.0416C119.924 8.6744 118.657 8.9531 117.4 8.82652C91.1432 7.50227 64.8806 6.36101 38.5962 5.62424C25.7399 5.21975 12.8672 4.926 0 4.60337Z" fill="var(--fill-0, white)" fill-opacity="0.79"/>
</svg>
