<svg preserveAspectRatio="none" width="100%" height="100%" overflow="visible" style="display: block;" viewBox="0 0 16.5 12" fill="none" xmlns="http://www.w3.org/2000/svg">
<path id="Vector" d="M12 12H0V9.9C0 9.47333 0.11 9.08333 0.33 8.73C0.55 8.37 0.84 8.09667 1.2 7.91C1.97333 7.52333 2.76 7.23333 3.56 7.04C4.36 6.84667 5.17333 6.75 6 6.75C6.82667 6.75 7.64 6.84667 8.44 7.04C9.24 7.23333 10.0267 7.52333 10.8 7.91C11.16 8.09667 11.45 8.37 11.67 8.73C11.89 9.08333 12 9.47333 12 9.9V12ZM16.5 12H13.5V9.75C13.5 9.19667 13.3467 8.67 13.04 8.17C12.7333 7.66333 12.3 7.22667 11.74 6.86C12.3733 6.93333 12.9733 7.06333 13.54 7.25C14.1 7.43 14.6233 7.65 15.11 7.91C15.5633 8.16333 15.9067 8.44333 16.14 8.75C16.38 9.05667 16.5 9.39 16.5 9.75V12ZM6 6C5.17333 6 4.46667 5.70667 3.88 5.12C3.29333 4.53333 3 3.82667 3 3C3 2.17333 3.29333 1.46667 3.88 0.88C4.46667 0.293333 5.17333 0 6 0C6.82667 0 7.53333 0.293333 8.12 0.88C8.70667 1.46667 9 2.17333 9 3C9 3.82667 8.70667 4.53333 8.12 5.12C7.53333 5.70667 6.82667 6 6 6ZM13.5 3C13.5 3.82667 13.2067 4.53333 12.62 5.12C12.0333 5.70667 11.3267 6 10.5 6C10.36 6 10.1833 5.98333 9.97 5.95C9.76333 5.92333 9.59 5.89 9.45 5.85C9.79 5.45 10.05 5.00667 10.23 4.52C10.41 4.03333 10.5 3.52667 10.5 3C10.5 2.47333 10.41 1.96667 10.23 1.48C10.05 0.993333 9.79 0.55 9.45 0.15C9.62333 0.0899996 9.79667 0.0499997 9.97 0.0299997C10.15 0.00999973 10.3267 0 10.5 0C11.3267 0 12.0333 0.293333 12.62 0.88C13.2067 1.46667 13.5 2.17333 13.5 3ZM1.5 9.9V10.5H10.5V9.9C10.5 9.76 10.4667 9.63667 10.4 9.53C10.3267 9.41667 10.2367 9.32667 10.13 9.26C9.45 8.92667 8.76667 8.67333 8.08 8.5C7.39333 8.33333 6.7 8.25 6 8.25C5.3 8.25 4.60667 8.33333 3.92 8.5C3.23333 8.67333 2.55333 8.92667 1.88 9.26C1.76667 9.32667 1.67333 9.41667 1.6 9.53C1.53333 9.63667 1.5 9.76 1.5 9.9ZM6 4.5C6.41333 4.5 6.76667 4.35333 7.06 4.06C7.35333 3.76667 7.5 3.41333 7.5 3C7.5 2.58667 7.35333 2.23333 7.06 1.94C6.76667 1.64667 6.41333 1.5 6 1.5C5.58667 1.5 5.23333 1.64667 4.94 1.94C4.64667 2.23333 4.5 2.58667 4.5 3C4.5 3.41333 4.64667 3.76667 4.94 4.06C5.23333 4.35333 5.58667 4.5 6 4.5Z" fill="var(--fill-0, white)"/>
</svg>
