<svg preserveAspectRatio="none" width="100%" height="100%" overflow="visible" style="display: block;" viewBox="0 0 15 15" fill="none" xmlns="http://www.w3.org/2000/svg">
<path id="Vector" d="M6.75 7.8L9.97 11.03L11.03 9.98L8.25 7.2V3.75H6.75V7.8ZM7.5 15C6.46 15 5.48667 14.8033 4.58 14.41C3.66667 14.0167 2.87 13.4833 2.19 12.81C1.51667 12.13 0.983333 11.3333 0.59 10.42C0.196667 9.51333 0 8.54 0 7.5C0 6.46 0.196667 5.48667 0.59 4.58C0.983333 3.66667 1.51667 2.87 2.19 2.19C2.87 1.51667 3.66667 0.983333 4.58 0.59C5.48667 0.196667 6.46 0 7.5 0C8.54 0 9.51333 0.196667 10.42 0.59C11.3333 0.983333 12.13 1.51667 12.81 2.19C13.4833 2.87 14.0167 3.66667 14.41 4.58C14.8033 5.48667 15 6.46 15 7.5C15 8.54 14.8033 9.51333 14.41 10.42C14.0167 11.3333 13.4833 12.13 12.81 12.81C12.13 13.4833 11.3333 14.0167 10.42 14.41C9.51333 14.8033 8.54 15 7.5 15ZM7.5 13.5C9.16 13.5 10.5767 12.9167 11.75 11.75C12.9167 10.5767 13.5 9.16 13.5 7.5C13.5 5.84 12.9167 4.42333 11.75 3.25C10.5767 2.08333 9.16 1.5 7.5 1.5C5.84 1.5 4.42333 2.08333 3.25 3.25C2.08333 4.42333 1.5 5.84 1.5 7.5C1.5 9.16 2.08333 10.5767 3.25 11.75C4.42333 12.9167 5.84 13.5 7.5 13.5Z" fill="var(--fill-0, white)"/>
</svg>
