<svg preserveAspectRatio="none" width="100%" height="100%" overflow="visible" style="display: block;" viewBox="0 0 13.5 15" fill="none" xmlns="http://www.w3.org/2000/svg">
<path id="Vector" d="M12 15H1.5C1.08667 15 0.733333 14.8533 0.44 14.56C0.146667 14.2667 0 13.9133 0 13.5V3C0 2.58667 0.146667 2.23333 0.44 1.94C0.733333 1.64667 1.08667 1.5 1.5 1.5H2.25V0H3.75V1.5H9.75V0H11.25V1.5H12C12.4133 1.5 12.7667 1.64667 13.06 1.94C13.3533 2.23333 13.5 2.58667 13.5 3V13.5C13.5 13.9133 13.3533 14.2667 13.06 14.56C12.7667 14.8533 12.4133 15 12 15ZM1.5 13.5H12V6H1.5V13.5ZM1.5 3V4.5H12V3H1.5ZM6.75 9C6.53667 9 6.36 8.92667 6.22 8.78C6.07333 8.64 6 8.46333 6 8.25C6 8.03667 6.07333 7.86 6.22 7.72C6.36 7.57333 6.53667 7.5 6.75 7.5C6.96333 7.5 7.14 7.57333 7.28 7.72C7.42667 7.86 7.5 8.03667 7.5 8.25C7.5 8.46333 7.42667 8.64 7.28 8.78C7.14 8.92667 6.96333 9 6.75 9ZM3.75 9C3.53667 9 3.36 8.92667 3.22 8.78C3.07333 8.64 3 8.46333 3 8.25C3 8.03667 3.07333 7.86 3.22 7.72C3.36 7.57333 3.53667 7.5 3.75 7.5C3.96333 7.5 4.14 7.57333 4.28 7.72C4.42667 7.86 4.5 8.03667 4.5 8.25C4.5 8.46333 4.42667 8.64 4.28 8.78C4.14 8.92667 3.96333 9 3.75 9ZM9.75 9C9.53667 9 9.36 8.92667 9.22 8.78C9.07333 8.64 9 8.46333 9 8.25C9 8.03667 9.07333 7.86 9.22 7.72C9.36 7.57333 9.53667 7.5 9.75 7.5C9.96333 7.5 10.14 7.57333 10.28 7.72C10.4267 7.86 10.5 8.03667 10.5 8.25C10.5 8.46333 10.4267 8.64 10.28 8.78C10.14 8.92667 9.96333 9 9.75 9ZM6.75 12C6.53667 12 6.36 11.9267 6.22 11.78C6.07333 11.64 6 11.4633 6 11.25C6 11.0367 6.07333 10.86 6.22 10.72C6.36 10.5733 6.53667 10.5 6.75 10.5C6.96333 10.5 7.14 10.5733 7.28 10.72C7.42667 10.86 7.5 11.0367 7.5 11.25C7.5 11.4633 7.42667 11.64 7.28 11.78C7.14 11.9267 6.96333 12 6.75 12ZM3.75 12C3.53667 12 3.36 11.9267 3.22 11.78C3.07333 11.64 3 11.4633 3 11.25C3 11.0367 3.07333 10.86 3.22 10.72C3.36 10.5733 3.53667 10.5 3.75 10.5C3.96333 10.5 4.14 10.5733 4.28 10.72C4.42667 10.86 4.5 11.0367 4.5 11.25C4.5 11.4633 4.42667 11.64 4.28 11.78C4.14 11.9267 3.96333 12 3.75 12ZM9.75 12C9.53667 12 9.36 11.9267 9.22 11.78C9.07333 11.64 9 11.4633 9 11.25C9 11.0367 9.07333 10.86 9.22 10.72C9.36 10.5733 9.53667 10.5 9.75 10.5C9.96333 10.5 10.14 10.5733 10.28 10.72C10.4267 10.86 10.5 11.0367 10.5 11.25C10.5 11.4633 10.4267 11.64 10.28 11.78C10.14 11.9267 9.96333 12 9.75 12Z" fill="var(--fill-0, white)"/>
</svg>
