<svg width="24" height="27" viewBox="0 0 24 27" fill="none" xmlns="http://www.w3.org/2000/svg">
<path fill-rule="evenodd" clip-rule="evenodd" d="M9.10285 2.98505e-07C8.6734 -0.000229322 8.25272 0.132019 7.88972 0.381367C7.52672 0.630716 7.23631 0.986919 7.05226 1.40856C6.16567 1.41701 5.47609 1.46068 4.8591 1.72267C4.12257 2.03575 3.48201 2.56782 3.01072 3.258C2.53502 3.95242 2.31078 4.84544 2.00488 6.0723L1.94395 6.31175L1.27901 10.4867C1.03964 10.6661 0.829658 10.8816 0.649054 11.1332C-0.518819 12.7573 0.03725 15.1758 1.14939 20.0086C1.85581 23.0835 2.20967 24.6202 3.26478 25.516C4.31988 26.4105 5.7781 26.4105 8.69454 26.4105H14.6959C17.6124 26.4105 19.0706 26.4105 20.1257 25.516C21.1808 24.6202 21.5334 23.0835 22.2411 20.0086C23.3532 15.1744 23.9093 12.7587 22.7414 11.1332C22.5627 10.8835 22.3498 10.665 22.1102 10.4853L21.4452 6.31316L21.3856 6.07371C21.0784 4.84544 20.8542 3.95242 20.3798 3.25659C19.9083 2.56693 19.2678 2.03536 18.5314 1.72267C17.9144 1.46068 17.2235 1.41701 16.3382 1.40997C16.1544 0.988065 15.864 0.63157 15.501 0.381962C15.138 0.132355 14.7172 -0.000102988 14.2876 2.98505e-07H9.10285ZM20.0142 9.71342L19.545 6.77235C19.1782 5.30745 19.0447 4.84685 18.8191 4.51725C18.5653 4.14554 18.2203 3.859 17.8237 3.69042C17.5385 3.56929 17.1937 3.53407 16.3356 3.52421C16.1514 3.9449 15.8612 4.30023 15.4988 4.54903C15.1363 4.79783 14.7164 4.92991 14.2876 4.92996H9.10285C8.67412 4.92991 8.25419 4.79783 7.89172 4.54903C7.52925 4.30023 7.23909 3.9449 7.05486 3.52421C6.19548 3.53407 5.85199 3.56929 5.56682 3.69042C5.17014 3.859 4.82515 4.14554 4.57134 4.51725C4.34581 4.84685 4.2123 5.30604 3.84547 6.77094L3.37625 9.71342C4.66985 9.50777 6.3938 9.50777 8.69454 9.50777H14.6959C16.9967 9.50777 18.7206 9.50777 20.0142 9.71342ZM6.51045 14.0856C6.76828 14.0856 7.01555 14.1969 7.19787 14.395C7.38018 14.5931 7.4826 14.8618 7.4826 15.142V20.7762C7.4826 21.0564 7.38018 21.3251 7.19787 21.5232C7.01555 21.7214 6.76828 21.8327 6.51045 21.8327C6.25262 21.8327 6.00535 21.7214 5.82304 21.5232C5.64073 21.3251 5.53831 21.0564 5.53831 20.7762V15.142C5.53831 14.8618 5.64073 14.5931 5.82304 14.395C6.00535 14.1969 6.25262 14.0856 6.51045 14.0856ZM17.8522 15.142C17.8522 14.8618 17.7497 14.5931 17.5674 14.395C17.3851 14.1969 17.1379 14.0856 16.88 14.0856C16.6222 14.0856 16.3749 14.1969 16.1926 14.395C16.0103 14.5931 15.9079 14.8618 15.9079 15.142V20.7762C15.9079 21.0564 16.0103 21.3251 16.1926 21.5232C16.3749 21.7214 16.6222 21.8327 16.88 21.8327C17.1379 21.8327 17.3851 21.7214 17.5674 21.5232C17.7497 21.3251 17.8522 21.0564 17.8522 20.7762V15.142ZM11.6952 14.0856C11.9531 14.0856 12.2003 14.1969 12.3826 14.395C12.565 14.5931 12.6674 14.8618 12.6674 15.142V20.7762C12.6674 21.0564 12.565 21.3251 12.3826 21.5232C12.2003 21.7214 11.9531 21.8327 11.6952 21.8327C11.4374 21.8327 11.1901 21.7214 11.0078 21.5232C10.8255 21.3251 10.7231 21.0564 10.7231 20.7762V15.142C10.7231 14.8618 10.8255 14.5931 11.0078 14.395C11.1901 14.1969 11.4374 14.0856 11.6952 14.0856Z" fill="white"/>
</svg>
