<svg width="29" height="29" viewBox="0 0 29 29" fill="none" xmlns="http://www.w3.org/2000/svg">
<path d="M28.1504 11.6963H23.4209L20.0225 7.16504C20.1546 6.95736 20.2585 6.73551 20.334 6.49951C20.4095 6.26351 20.4473 6.01335 20.4473 5.74902C20.4473 5.05046 20.1971 4.45101 19.6968 3.95068C19.1965 3.45036 18.597 3.2002 17.8984 3.2002C17.1999 3.2002 16.6004 3.45036 16.1001 3.95068C15.5998 4.45101 15.3496 5.05046 15.3496 5.74902C15.3496 6.46647 15.5998 7.07064 16.1001 7.56152C16.6004 8.05241 17.1999 8.29785 17.8984 8.29785C18.0306 8.29785 18.158 8.28841 18.2808 8.26953C18.4035 8.25065 18.5309 8.22233 18.6631 8.18457L21.2969 11.6963H7.70312L10.3369 8.18457C10.4691 8.22233 10.5965 8.25065 10.7192 8.26953C10.842 8.28841 10.9694 8.29785 11.1016 8.29785C11.8001 8.29785 12.3996 8.05241 12.8999 7.56152C13.4002 7.07064 13.6504 6.46647 13.6504 5.74902C13.6504 5.05046 13.4002 4.45101 12.8999 3.95068C12.3996 3.45036 11.8001 3.2002 11.1016 3.2002C10.403 3.2002 9.80355 3.45036 9.30322 3.95068C8.8029 4.45101 8.55273 5.05046 8.55273 5.74902C8.55273 6.01335 8.59049 6.26351 8.66602 6.49951C8.74154 6.73551 8.84538 6.95736 8.97754 7.16504L5.5791 11.6963H0.849609C0.623047 11.6963 0.424805 11.7812 0.254883 11.9512C0.0849609 12.1211 0 12.3193 0 12.5459C0 12.7913 0.0849609 12.9943 0.254883 13.1548C0.424805 13.3153 0.623047 13.3955 0.849609 13.3955H1.9541L2.37891 15.0947H26.6211L27.0459 13.3955H28.1504C28.377 13.3955 28.5752 13.3153 28.7451 13.1548C28.915 12.9943 29 12.7913 29 12.5459C29 12.3193 28.915 12.1211 28.7451 11.9512C28.5752 11.7812 28.377 11.6963 28.1504 11.6963ZM17.0488 5.74902C17.0488 5.52246 17.1338 5.32422 17.3037 5.1543C17.4736 4.98438 17.6719 4.89941 17.8984 4.89941C18.125 4.89941 18.3232 4.98438 18.4932 5.1543C18.6631 5.32422 18.748 5.52246 18.748 5.74902C18.748 5.99447 18.6631 6.19743 18.4932 6.35791C18.3232 6.51839 18.125 6.59863 17.8984 6.59863C17.6719 6.59863 17.4736 6.51839 17.3037 6.35791C17.1338 6.19743 17.0488 5.99447 17.0488 5.74902ZM11.1016 4.89941C11.3281 4.89941 11.5264 4.98438 11.6963 5.1543C11.8662 5.32422 11.9512 5.52246 11.9512 5.74902C11.9512 5.99447 11.8662 6.19743 11.6963 6.35791C11.5264 6.51839 11.3281 6.59863 11.1016 6.59863C10.875 6.59863 10.6768 6.51839 10.5068 6.35791C10.3369 6.19743 10.252 5.99447 10.252 5.74902C10.252 5.52246 10.3369 5.32422 10.5068 5.1543C10.6768 4.98438 10.875 4.89941 11.1016 4.89941ZM4.87109 25.0635C5.00326 25.6299 5.30062 26.0924 5.76318 26.4512C6.22575 26.8099 6.74967 26.9893 7.33496 26.9893H21.665C22.2503 26.9893 22.7743 26.8099 23.2368 26.4512C23.6994 26.0924 23.9967 25.6299 24.1289 25.0635L26.1963 16.7939H2.80371L4.87109 25.0635ZM18.748 19.3428C18.748 19.1162 18.833 18.918 19.0029 18.748C19.1729 18.5781 19.3711 18.4932 19.5977 18.4932C19.8242 18.4932 20.0225 18.5781 20.1924 18.748C20.3623 18.918 20.4473 19.1162 20.4473 19.3428V24.4404C20.4473 24.6859 20.3623 24.8888 20.1924 25.0493C20.0225 25.2098 19.8242 25.29 19.5977 25.29C19.3711 25.29 19.1729 25.2098 19.0029 25.0493C18.833 24.8888 18.748 24.6859 18.748 24.4404V19.3428ZM13.6504 19.3428C13.6504 19.1162 13.7354 18.918 13.9053 18.748C14.0752 18.5781 14.2734 18.4932 14.5 18.4932C14.7266 18.4932 14.9248 18.5781 15.0947 18.748C15.2646 18.918 15.3496 19.1162 15.3496 19.3428V24.4404C15.3496 24.6859 15.2646 24.8888 15.0947 25.0493C14.9248 25.2098 14.7266 25.29 14.5 25.29C14.2734 25.29 14.0752 25.2098 13.9053 25.0493C13.7354 24.8888 13.6504 24.6859 13.6504 24.4404V19.3428ZM8.55273 19.3428C8.55273 19.1162 8.6377 18.918 8.80762 18.748C8.97754 18.5781 9.17578 18.4932 9.40234 18.4932C9.62891 18.4932 9.82715 18.5781 9.99707 18.748C10.167 18.918 10.252 19.1162 10.252 19.3428V24.4404C10.252 24.6859 10.167 24.8888 9.99707 25.0493C9.82715 25.2098 9.62891 25.29 9.40234 25.29C9.17578 25.29 8.97754 25.2098 8.80762 25.0493C8.6377 24.8888 8.55273 24.6859 8.55273 24.4404V19.3428Z" fill="#FFF4DE"/>
</svg>
